<svg width="116" height="98" viewBox="0 0 116 98" fill="none" xmlns="http://www.w3.org/2000/svg">
<path d="M57.9999 97.9308L6.69223 75.8462L57.9999 95.1423L109.308 75.8462L57.9999 97.9308Z" fill="#D3C3BF"/>
<path d="M5.66838 61.1691C4.9355 61.1691 4.26925 61.0454 3.66962 60.7979C3.0795 60.5409 2.58933 60.1745 2.19909 59.6986L3.741 57.8711C4.0075 58.2138 4.28352 58.4755 4.56906 58.6564C4.8546 58.8277 5.15442 58.9134 5.46851 58.9134C6.30609 58.9134 6.72488 58.4279 6.72488 57.4571V53.1598H3.26986V50.9754H9.52315V57.2858C9.52315 58.5898 9.19478 59.5653 8.53805 60.2126C7.88131 60.8503 6.92475 61.1691 5.66838 61.1691ZM13.9581 58.7563L13.8011 55.5868L18.0985 50.9754H21.2108L16.9277 55.6154L15.3573 57.2572L13.9581 58.7563ZM11.4311 60.9692V50.9754H14.2294V60.9692H11.4311ZM18.1413 60.9692L14.8861 56.8432L16.7279 54.873L21.425 60.9692H18.1413ZM21.9526 57.7427V56.2579H25.8787V57.7427H21.9526ZM31.1007 61.112C30.3202 61.112 29.5731 61.0026 28.8592 60.7836C28.1454 60.5552 27.5791 60.2649 27.1603 59.9127L27.8027 58.4708C28.2025 58.7849 28.6974 59.0466 29.2875 59.256C29.8777 59.4654 30.482 59.5701 31.1007 59.5701C31.6242 59.5701 32.0478 59.513 32.3714 59.3988C32.695 59.2846 32.9329 59.1323 33.0852 58.9419C33.2375 58.742 33.3136 58.5184 33.3136 58.2709C33.3136 57.9663 33.2042 57.7236 32.9853 57.5428C32.7664 57.3524 32.4808 57.2049 32.1287 57.1002C31.786 56.986 31.4005 56.8813 30.9722 56.7861C30.5534 56.6909 30.1299 56.5815 29.7016 56.4577C29.2828 56.3245 28.8973 56.1579 28.5451 55.958C28.2025 55.7486 27.9217 55.4726 27.7028 55.13C27.4839 54.7873 27.3744 54.3495 27.3744 53.8165C27.3744 53.274 27.5172 52.779 27.8027 52.3317C28.0978 51.8748 28.5404 51.5132 29.1305 51.2467C29.7301 50.9706 30.4868 50.8326 31.4005 50.8326C32.0002 50.8326 32.595 50.9088 33.1851 51.0611C33.7753 51.2133 34.2892 51.4323 34.7271 51.7178L34.1417 53.1598C33.6944 52.8933 33.2327 52.6981 32.7568 52.5744C32.2809 52.4412 31.8241 52.3745 31.3863 52.3745C30.8723 52.3745 30.4535 52.4364 30.1299 52.5601C29.8158 52.6839 29.5826 52.8457 29.4303 53.0455C29.2875 53.2454 29.2162 53.4739 29.2162 53.7308C29.2162 54.0354 29.3209 54.2829 29.5303 54.4732C29.7492 54.6541 30.0299 54.7968 30.3726 54.9015C30.7248 55.0062 31.115 55.1109 31.5433 55.2156C31.9716 55.3108 32.3952 55.4203 32.8139 55.544C33.2423 55.6677 33.6277 55.8295 33.9704 56.0294C34.3225 56.2293 34.6033 56.5006 34.8127 56.8432C35.0316 57.1859 35.1411 57.6189 35.1411 58.1424C35.1411 58.6754 34.9936 59.1703 34.6985 59.6272C34.413 60.0746 33.9704 60.4362 33.3707 60.7123C32.7711 60.9788 32.0144 61.112 31.1007 61.112ZM39.6798 61.0692C38.8422 61.0692 38.195 60.855 37.7381 60.4267C37.2813 59.9889 37.0529 59.3464 37.0529 58.4993V51.6607H38.8375V58.4565C38.8375 58.8182 38.9279 59.099 39.1087 59.2988C39.2991 59.4987 39.5608 59.5987 39.894 59.5987C40.2937 59.5987 40.6268 59.494 40.8933 59.2846L41.393 60.5552C41.1836 60.7265 40.9267 60.855 40.6221 60.9407C40.3175 61.0263 40.0034 61.0692 39.6798 61.0692ZM35.7965 54.8302V53.4025H40.8791V54.8302H35.7965ZM42.8611 60.9692V53.3454H44.5601V55.4441L44.3602 54.8302C44.5886 54.3162 44.9455 53.926 45.431 53.6595C45.9259 53.393 46.5398 53.2597 47.2727 53.2597V54.9587C47.1965 54.9396 47.1251 54.9301 47.0585 54.9301C46.9919 54.9206 46.9253 54.9158 46.8586 54.9158C46.1829 54.9158 45.6451 55.1157 45.2454 55.5155C44.8456 55.9057 44.6457 56.491 44.6457 57.2715V60.9692H42.8611ZM52.1433 61.0692C51.3629 61.0692 50.6681 60.9026 50.0589 60.5695C49.4498 60.2268 48.9691 59.7605 48.6169 59.1703C48.2648 58.5802 48.0887 57.9092 48.0887 57.1573C48.0887 56.3959 48.2648 55.7248 48.6169 55.1443C48.9691 54.5541 49.4498 54.0925 50.0589 53.7594C50.6681 53.4263 51.3629 53.2597 52.1433 53.2597C52.9333 53.2597 53.6329 53.4263 54.242 53.7594C54.8607 54.0925 55.3414 54.5494 55.684 55.13C56.0362 55.7106 56.2123 56.3863 56.2123 57.1573C56.2123 57.9092 56.0362 58.5802 55.684 59.1703C55.3414 59.7605 54.8607 60.2268 54.242 60.5695C53.6329 60.9026 52.9333 61.0692 52.1433 61.0692ZM52.1433 59.5415C52.5812 59.5415 52.9714 59.4464 53.314 59.256C53.6567 59.0656 53.9232 58.7896 54.1136 58.4279C54.3134 58.0663 54.4134 57.6427 54.4134 57.1573C54.4134 56.6624 54.3134 56.2388 54.1136 55.8867C53.9232 55.525 53.6567 55.249 53.314 55.0586C52.9714 54.8682 52.5859 54.7731 52.1576 54.7731C51.7198 54.7731 51.3296 54.8682 50.9869 55.0586C50.6538 55.249 50.3873 55.525 50.1874 55.8867C49.9875 56.2388 49.8876 56.6624 49.8876 57.1573C49.8876 57.6427 49.9875 58.0663 50.1874 58.4279C50.3873 58.7896 50.6538 59.0656 50.9869 59.256C51.3296 59.4464 51.715 59.5415 52.1433 59.5415ZM67.5414 53.2597C68.1506 53.2597 68.6884 53.3787 69.1547 53.6166C69.6306 53.8546 70.0018 54.221 70.2683 54.7159C70.5348 55.2014 70.6681 55.8295 70.6681 56.6005V60.9692H68.8835V56.8289C68.8835 56.1532 68.7359 55.6487 68.4409 55.3156C68.1458 54.9824 67.7223 54.8159 67.1702 54.8159C66.78 54.8159 66.4326 54.9015 66.128 55.0729C65.833 55.2442 65.5998 55.4964 65.4285 55.8295C65.2667 56.1627 65.1858 56.5862 65.1858 57.1002V60.9692H63.4011V56.8289C63.4011 56.1532 63.2536 55.6487 62.9586 55.3156C62.6635 54.9824 62.2399 54.8159 61.6879 54.8159C61.2977 54.8159 60.9503 54.9015 60.6457 55.0729C60.3506 55.2442 60.1174 55.4964 59.9461 55.8295C59.7843 56.1627 59.7034 56.5862 59.7034 57.1002V60.9692H57.9188V53.3454H59.6178V55.3727L59.3179 54.7731C59.5749 54.2781 59.9461 53.9022 60.4315 53.6452C60.9265 53.3882 61.488 53.2597 62.1162 53.2597C62.8301 53.2597 63.4487 53.4358 63.9722 53.7879C64.5052 54.1401 64.8574 54.6731 65.0287 55.387L64.3291 55.1443C64.5766 54.5732 64.9859 54.1163 65.557 53.7737C66.128 53.431 66.7895 53.2597 67.5414 53.2597ZM77.1746 61.0692C76.5559 61.0692 75.9896 60.9264 75.4756 60.6409C74.9712 60.3553 74.5667 59.927 74.2621 59.3559C73.967 58.7754 73.8195 58.0425 73.8195 57.1573C73.8195 56.2626 73.9623 55.5297 74.2478 54.9587C74.5429 54.3876 74.9426 53.964 75.4471 53.688C75.9515 53.4025 76.5274 53.2597 77.1746 53.2597C77.9265 53.2597 78.588 53.4215 79.1591 53.7451C79.7397 54.0687 80.1965 54.5208 80.5297 55.1014C80.8723 55.682 81.0436 56.3673 81.0436 57.1573C81.0436 57.9473 80.8723 58.6373 80.5297 59.2275C80.1965 59.808 79.7397 60.2602 79.1591 60.5838C78.588 60.9074 77.9265 61.0692 77.1746 61.0692ZM72.9486 63.739V53.3454H74.6476V55.1443L74.5905 57.1716L74.7332 59.1989V63.739H72.9486ZM76.9747 59.5415C77.403 59.5415 77.7837 59.4464 78.1169 59.256C78.4595 59.0656 78.7308 58.7896 78.9306 58.4279C79.1305 58.0663 79.2305 57.6427 79.2305 57.1573C79.2305 56.6624 79.1305 56.2388 78.9306 55.8867C78.7308 55.525 78.4595 55.249 78.1169 55.0586C77.7837 54.8682 77.403 54.7731 76.9747 54.7731C76.5464 54.7731 76.1609 54.8682 75.8183 55.0586C75.4756 55.249 75.2044 55.525 75.0045 55.8867C74.8046 56.2388 74.7047 56.6624 74.7047 57.1573C74.7047 57.6427 74.8046 58.0663 75.0045 58.4279C75.2044 58.7896 75.4756 59.0656 75.8183 59.256C76.1609 59.4464 76.5464 59.5415 76.9747 59.5415ZM82.7361 60.9692V53.3454H84.4351V55.4441L84.2352 54.8302C84.4636 54.3162 84.8205 53.926 85.306 53.6595C85.8009 53.393 86.4148 53.2597 87.1477 53.2597V54.9587C87.0715 54.9396 87.0001 54.9301 86.9335 54.9301C86.8669 54.9206 86.8003 54.9158 86.7336 54.9158C86.0579 54.9158 85.5201 55.1157 85.1204 55.5155C84.7206 55.9057 84.5207 56.491 84.5207 57.2715V60.9692H82.7361ZM92.0183 61.0692C91.2379 61.0692 90.5431 60.9026 89.9339 60.5695C89.3248 60.2268 88.8441 59.7605 88.4919 59.1703C88.1398 58.5802 87.9637 57.9092 87.9637 57.1573C87.9637 56.3959 88.1398 55.7248 88.4919 55.1443C88.8441 54.5541 89.3248 54.0925 89.9339 53.7594C90.5431 53.4263 91.2379 53.2597 92.0183 53.2597C92.8083 53.2597 93.5079 53.4263 94.1171 53.7594C94.7357 54.0925 95.2164 54.5494 95.559 55.13C95.9112 55.7106 96.0873 56.3863 96.0873 57.1573C96.0873 57.9092 95.9112 58.5802 95.559 59.1703C95.2164 59.7605 94.7357 60.2268 94.1171 60.5695C93.5079 60.9026 92.8083 61.0692 92.0183 61.0692ZM92.0183 59.5415C92.4562 59.5415 92.8464 59.4464 93.1891 59.256C93.5317 59.0656 93.7982 58.7896 93.9886 58.4279C94.1884 58.0663 94.2884 57.6427 94.2884 57.1573C94.2884 56.6624 94.1884 56.2388 93.9886 55.8867C93.7982 55.525 93.5317 55.249 93.1891 55.0586C92.8464 54.8682 92.4609 54.7731 92.0326 54.7731C91.5948 54.7731 91.2046 54.8682 90.8619 55.0586C90.5288 55.249 90.2623 55.525 90.0624 55.8867C89.8625 56.2388 89.7626 56.6624 89.7626 57.1573C89.7626 57.6427 89.8625 58.0663 90.0624 58.4279C90.2623 58.7896 90.5288 59.0656 90.8619 59.256C91.2046 59.4464 91.59 59.5415 92.0183 59.5415ZM98.0365 60.9692V52.9171C98.0365 52.1175 98.2697 51.4798 98.7361 51.0039C99.212 50.5185 99.8877 50.2758 100.763 50.2758C101.077 50.2758 101.373 50.3091 101.649 50.3758C101.934 50.4424 102.172 50.5471 102.362 50.6899L101.877 52.0319C101.744 51.9272 101.591 51.851 101.42 51.8035C101.249 51.7463 101.073 51.7178 100.892 51.7178C100.521 51.7178 100.24 51.8225 100.05 52.0319C99.8592 52.2318 99.764 52.5363 99.764 52.9456V53.8022L99.8211 54.6017V60.9692H98.0365ZM96.7801 54.8302V53.4025H101.863V54.8302H96.7801ZM103.119 60.9692V53.3454H104.904V60.9692H103.119ZM104.019 52.089C103.685 52.089 103.409 51.9843 103.19 51.7749C102.981 51.5655 102.876 51.3133 102.876 51.0182C102.876 50.7136 102.981 50.4614 103.19 50.2615C103.409 50.0522 103.685 49.9475 104.019 49.9475C104.352 49.9475 104.623 50.0474 104.832 50.2473C105.051 50.4376 105.161 50.6803 105.161 50.9754C105.161 51.2895 105.056 51.556 104.847 51.7749C104.637 51.9843 104.361 52.089 104.019 52.089ZM109.602 61.0692C108.965 61.0692 108.351 60.9883 107.761 60.8265C107.18 60.6551 106.718 60.4505 106.376 60.2126L107.061 58.8563C107.404 59.0752 107.813 59.256 108.289 59.3988C108.765 59.5415 109.241 59.6129 109.717 59.6129C110.278 59.6129 110.683 59.5368 110.93 59.3845C111.187 59.2322 111.316 59.0276 111.316 58.7706C111.316 58.5612 111.23 58.4042 111.059 58.2995C110.887 58.1852 110.664 58.0996 110.388 58.0425C110.112 57.9854 109.802 57.933 109.46 57.8854C109.126 57.8378 108.789 57.776 108.446 57.6998C108.113 57.6142 107.808 57.4952 107.532 57.3429C107.256 57.1811 107.033 56.9669 106.861 56.7004C106.69 56.4339 106.604 56.0818 106.604 55.6439C106.604 55.1585 106.742 54.7397 107.018 54.3876C107.294 54.0259 107.68 53.7499 108.175 53.5595C108.679 53.3596 109.274 53.2597 109.959 53.2597C110.473 53.2597 110.992 53.3168 111.515 53.431C112.039 53.5452 112.472 53.707 112.815 53.9164L112.129 55.2727C111.768 55.0538 111.401 54.9063 111.03 54.8302C110.668 54.7445 110.307 54.7017 109.945 54.7017C109.402 54.7017 108.998 54.7826 108.731 54.9444C108.474 55.1062 108.346 55.3108 108.346 55.5583C108.346 55.7867 108.432 55.958 108.603 56.0723C108.774 56.1865 108.998 56.2769 109.274 56.3435C109.55 56.4101 109.855 56.4672 110.188 56.5148C110.53 56.5529 110.868 56.6148 111.201 56.7004C111.535 56.7861 111.839 56.9051 112.115 57.0574C112.401 57.2001 112.629 57.4048 112.8 57.6713C112.972 57.9378 113.057 58.2852 113.057 58.7135C113.057 59.1894 112.915 59.6034 112.629 59.9556C112.353 60.3077 111.958 60.5838 111.444 60.7836C110.93 60.974 110.316 61.0692 109.602 61.0692Z" fill="#D3C3BF"/>
<path d="M18.4825 67.7628H20.0886V68.142H18.4825V67.7628ZM18.5226 69.1503H20.343V69.5385H18.0765V66.4154H20.2805V66.8035H18.5226V69.1503ZM21.6008 69.5385V66.4154H21.9666L24.0323 68.9808H23.8404V66.4154H24.2866V69.5385H23.9208L21.8551 66.9731H22.0469V69.5385H21.6008ZM26.1628 67.7628H27.7689V68.142H26.1628V67.7628ZM26.2029 69.1503H28.0232V69.5385H25.7568V66.4154H27.9608V66.8035H26.2029V69.1503ZM29.2811 69.5385V66.4154H30.4991C30.7727 66.4154 31.0062 66.4585 31.1995 66.5448C31.3928 66.631 31.5416 66.7559 31.6457 66.9195C31.7498 67.0831 31.8018 67.2779 31.8018 67.504C31.8018 67.73 31.7498 67.9249 31.6457 68.0885C31.5416 68.2491 31.3928 68.3725 31.1995 68.4588C31.0062 68.545 30.7727 68.5881 30.4991 68.5881H29.5264L29.7272 68.3829V69.5385H29.2811ZM31.3691 69.5385L30.5749 68.4052H31.0523L31.8554 69.5385H31.3691ZM29.7272 68.4275L29.5264 68.2089H30.4857C30.7712 68.2089 30.9868 68.1479 31.1326 68.026C31.2813 67.9011 31.3557 67.7271 31.3557 67.504C31.3557 67.2809 31.2813 67.1084 31.1326 66.9865C30.9868 66.8645 30.7712 66.8035 30.4857 66.8035H29.5264L29.7272 66.5805V68.4275ZM34.4679 69.5741C34.2269 69.5741 34.0054 69.5355 33.8031 69.4581C33.6008 69.3778 33.4254 69.2663 33.2766 69.1235C33.1279 68.9778 33.0119 68.8082 32.9286 68.6149C32.8454 68.4216 32.8037 68.2089 32.8037 67.9769C32.8037 67.7449 32.8454 67.5322 32.9286 67.3389C33.0119 67.1456 33.1279 66.9775 33.2766 66.8348C33.4283 66.689 33.6053 66.5775 33.8076 66.5001C34.0098 66.4198 34.2329 66.3797 34.4768 66.3797C34.7237 66.3797 34.9497 66.4198 35.1549 66.5001C35.3602 66.5805 35.5342 66.7009 35.6769 66.8615L35.4003 67.1381C35.2724 67.0132 35.1326 66.9225 34.9809 66.866C34.8322 66.8065 34.6701 66.7768 34.4946 66.7768C34.3162 66.7768 34.1496 66.8065 33.9949 66.866C33.8433 66.9255 33.7109 67.0088 33.5979 67.1158C33.4878 67.2229 33.4016 67.3508 33.3391 67.4995C33.2796 67.6453 33.2499 67.8044 33.2499 67.9769C33.2499 68.1465 33.2796 68.3056 33.3391 68.4543C33.4016 68.6 33.4878 68.7279 33.5979 68.838C33.7109 68.9451 33.8433 69.0283 33.9949 69.0878C34.1466 69.1473 34.3117 69.1771 34.4902 69.1771C34.6567 69.1771 34.8159 69.1518 34.9676 69.1012C35.1222 69.0477 35.265 68.9599 35.3959 68.838L35.6502 69.1771C35.4955 69.3079 35.3141 69.4076 35.1059 69.476C34.9006 69.5414 34.688 69.5741 34.4679 69.5741ZM35.2219 69.1191V67.9591H35.6502V69.1771L35.2219 69.1191ZM37.0398 69.5385V66.4154H37.4859V69.5385H37.0398ZM39.3623 67.7628H40.9685V68.142H39.3623V67.7628ZM39.4025 69.1503H41.2228V69.5385H38.9563V66.4154H41.1603V66.8035H39.4025V69.1503ZM44.2141 69.5385V66.4154H44.6603V69.5385H44.2141ZM46.1307 69.5385V66.4154H46.4965L48.5622 68.9808H48.3704V66.4154H48.8165V69.5385H48.4507L46.385 66.9731H46.5768V69.5385H46.1307ZM52.0203 69.5385V66.4154H53.4212C53.7811 66.4154 54.0577 66.4882 54.251 66.634C54.4444 66.7768 54.541 66.9731 54.541 67.2229C54.541 67.3925 54.5024 67.5352 54.425 67.6512C54.3507 67.7672 54.2495 67.8565 54.1216 67.9189C53.9937 67.9814 53.8554 68.0126 53.7067 68.0126L53.787 67.8788C53.9655 67.8788 54.1231 67.91 54.2599 67.9725C54.3968 68.0349 54.5053 68.1271 54.5856 68.2491C54.6659 68.368 54.7061 68.5168 54.7061 68.6952C54.7061 68.9629 54.605 69.1711 54.4027 69.3198C54.2034 69.4656 53.906 69.5385 53.5104 69.5385H52.0203ZM52.4664 69.1771H53.4926C53.7394 69.1771 53.9283 69.1354 54.0592 69.0521C54.1901 68.9689 54.2555 68.838 54.2555 68.6595C54.2555 68.4781 54.1901 68.3457 54.0592 68.2625C53.9283 68.1792 53.7394 68.1375 53.4926 68.1375H52.4263V67.7761H53.381C53.6071 67.7761 53.7826 67.7345 53.9075 67.6512C54.0324 67.5679 54.0949 67.443 54.0949 67.2765C54.0949 67.1099 54.0324 66.985 53.9075 66.9017C53.7826 66.8184 53.6071 66.7768 53.381 66.7768H52.4664V69.1771ZM56.3383 67.7628H57.9444V68.142H56.3383V67.7628ZM56.3784 69.1503H58.1988V69.5385H55.9323V66.4154H58.1363V66.8035H56.3784V69.1503ZM60.3667 69.5741C60.1288 69.5741 59.9012 69.5385 59.6841 69.4671C59.467 69.3927 59.2959 69.2975 59.171 69.1815L59.3361 68.8335C59.4551 68.9376 59.6068 69.0239 59.7912 69.0923C59.9756 69.1607 60.1674 69.1949 60.3667 69.1949C60.5481 69.1949 60.6954 69.1741 60.8084 69.1325C60.9214 69.0908 61.0047 69.0343 61.0583 68.9629C61.1118 68.8886 61.1386 68.8053 61.1386 68.7131C61.1386 68.606 61.1029 68.5197 61.0315 68.4543C60.9631 68.3889 60.8724 68.3368 60.7593 68.2981C60.6493 68.2565 60.5273 68.2208 60.3935 68.1911C60.2596 68.1613 60.1243 68.1271 59.9875 68.0885C59.8536 68.0468 59.7302 67.9948 59.6172 67.9323C59.5071 67.8698 59.4179 67.7866 59.3495 67.6825C59.2811 67.5754 59.2469 67.4386 59.2469 67.272C59.2469 67.1114 59.2885 66.9641 59.3718 66.8303C59.458 66.6935 59.5889 66.5849 59.7644 66.5046C59.9429 66.4213 60.1689 66.3797 60.4426 66.3797C60.624 66.3797 60.8039 66.4035 60.9824 66.4511C61.1609 66.4987 61.3155 66.5671 61.4464 66.6563L61.2992 67.0132C61.1653 66.924 61.024 66.86 60.8753 66.8214C60.7266 66.7797 60.5824 66.7589 60.4426 66.7589C60.2671 66.7589 60.1228 66.7812 60.0098 66.8258C59.8968 66.8705 59.8135 66.9299 59.7599 67.0043C59.7094 67.0787 59.6841 67.1619 59.6841 67.2541C59.6841 67.3642 59.7183 67.4519 59.7867 67.5174C59.8581 67.5828 59.9488 67.6349 60.0589 67.6735C60.1719 67.7122 60.2953 67.7479 60.4292 67.7806C60.563 67.8103 60.6969 67.8446 60.8307 67.8832C60.9675 67.9219 61.091 67.9725 61.201 68.0349C61.314 68.0974 61.4048 68.1807 61.4732 68.2848C61.5416 68.3889 61.5758 68.5227 61.5758 68.6863C61.5758 68.8439 61.5327 68.9912 61.4464 69.128C61.3601 69.2618 61.2263 69.3704 61.0449 69.4537C60.8664 69.534 60.6404 69.5741 60.3667 69.5741ZM63.3396 69.5385V66.8035H62.2688V66.4154H64.852V66.8035H63.7813V69.5385H63.3396ZM66.2793 67.7628H67.8855V68.142H66.2793V67.7628ZM66.3195 69.1503H68.1398V69.5385H65.8733V66.4154H68.0773V66.8035H66.3195V69.1503ZM69.3976 69.5385V66.4154H69.7634L71.8291 68.9808H71.6373V66.4154H72.0834V69.5385H71.7176L69.6519 66.9731H69.8438V69.5385H69.3976ZM77.5269 66.4154H77.973V69.5385H77.5269V66.4154ZM75.7333 69.5385H75.2872V66.4154H75.7333V69.5385ZM77.567 68.1465H75.6887V67.7583H77.567V68.1465ZM78.9703 69.5385L80.3846 66.4154H80.8263L82.2451 69.5385H81.7766L80.514 66.6652H80.6924L79.4298 69.5385H78.9703ZM79.5726 68.7577L79.6931 68.4008H81.4509L81.5803 68.7577H79.5726ZM81.0226 66.0852C80.9601 66.0852 80.9066 66.0644 80.862 66.0228C80.8174 65.9781 80.7951 65.9231 80.7951 65.8577C80.7951 65.7893 80.8174 65.7342 80.862 65.6926C80.9066 65.648 80.9601 65.6257 81.0226 65.6257C81.0851 65.6257 81.1386 65.648 81.1832 65.6926C81.2278 65.7342 81.2501 65.7893 81.2501 65.8577C81.2501 65.9231 81.2278 65.9781 81.1832 66.0228C81.1386 66.0644 81.0851 66.0852 81.0226 66.0852ZM80.1927 66.0852C80.1303 66.0852 80.0767 66.0644 80.0321 66.0228C79.9875 65.9781 79.9652 65.9231 79.9652 65.8577C79.9652 65.7893 79.9875 65.7342 80.0321 65.6926C80.0767 65.648 80.1303 65.6257 80.1927 65.6257C80.2552 65.6257 80.3087 65.648 80.3534 65.6926C80.398 65.7342 80.4203 65.7893 80.4203 65.8577C80.4203 65.9231 80.398 65.9781 80.3534 66.0228C80.3087 66.0644 80.2552 66.0852 80.1927 66.0852ZM83.2463 69.5385V66.4154H83.6122L85.6779 68.9808H85.486V66.4154H85.9322V69.5385H85.5663L83.5006 66.9731H83.6925V69.5385H83.2463ZM87.4023 69.5385V66.4154H88.7185C89.0516 66.4154 89.3446 66.4808 89.5974 66.6117C89.8532 66.7426 90.051 66.9255 90.1908 67.1605C90.3336 67.3954 90.405 67.6676 90.405 67.9769C90.405 68.2862 90.3336 68.5584 90.1908 68.7934C90.051 69.0283 89.8532 69.2113 89.5974 69.3421C89.3446 69.473 89.0516 69.5385 88.7185 69.5385H87.4023ZM87.8485 69.1503H88.6917C88.9505 69.1503 89.1736 69.1012 89.361 69.0031C89.5513 68.9049 89.6986 68.7681 89.8027 68.5926C89.9068 68.4141 89.9588 68.2089 89.9588 67.9769C89.9588 67.7419 89.9068 67.5367 89.8027 67.3612C89.6986 67.1857 89.5513 67.0489 89.361 66.9508C89.1736 66.8526 88.9505 66.8035 88.6917 66.8035H87.8485V69.1503ZM92.0297 67.7628H93.6359V68.142H92.0297V67.7628ZM92.0699 69.1503H93.8902V69.5385H91.6237V66.4154H93.8277V66.8035H92.0699V69.1503ZM95.148 69.5385V66.4154H95.5138L97.5795 68.9808H97.3877V66.4154H97.8338V69.5385H97.468L95.4023 66.9731H95.5942V69.5385H95.148Z" fill="url(#paint0_radial_317_1729)"/>
<g clip-path="url(#clip0_317_1729)">
<path d="M69.375 25.201C69.3708 25.1916 69.3661 25.1823 69.3608 25.1734C69.2946 25.061 69.1874 24.9785 69.0618 24.9433L63.4779 23.3675C63.4331 23.3549 63.3867 23.3485 63.3402 23.3485H52.3405C52.2893 23.3485 52.2385 23.3562 52.1896 23.3714L47.1284 24.9454C47.0143 24.9809 46.9163 25.0555 46.8518 25.1561C46.8464 25.1645 46.8415 25.1731 46.8371 25.1821L44.8345 29.2345C44.7813 29.3241 44.757 29.4279 44.7652 29.5318C44.7734 29.6357 44.8136 29.7345 44.8802 29.8146L44.8799 29.8149L57.5391 45.03C57.5415 45.0328 57.544 45.0356 57.5465 45.0385C57.594 45.0908 57.6518 45.1327 57.7164 45.1615C57.781 45.1902 57.8509 45.2052 57.9216 45.2054H57.9229C57.9934 45.2054 58.0631 45.1907 58.1276 45.1623C58.1921 45.1339 58.25 45.0924 58.2976 45.0405C58.3001 45.0377 58.3025 45.0351 58.3049 45.0321L71.1173 29.8161L71.1168 29.8157C71.1828 29.7382 71.2238 29.6423 71.2343 29.541C71.2448 29.4396 71.2242 29.3374 71.1754 29.248L69.375 25.201ZM52.3453 23.8888H63.3358L68.1596 25.2502L62.7344 27.052L62.7321 27.0528H52.95L52.9468 27.0516L47.9727 25.2486L52.3453 23.8888ZM65.7223 26.6289L63.4204 31.6736L63.0671 27.5107L65.7223 26.6289ZM58.0007 27.6452L62.6109 32.4589H53.455L58.0007 27.6452ZM53.1113 32.0359L53.1645 27.5928H57.307L53.1113 32.0359ZM58.6986 27.5928H62.5317L62.9044 31.9841L58.6986 27.5928ZM52.6253 27.5095L52.5771 31.5298L50.3276 26.6768L52.6253 27.5095ZM47.252 25.5621L49.167 26.2561L45.7678 28.5654L47.252 25.5621ZM49.6788 26.5616L52.3059 32.2298L45.3635 29.493L49.6788 26.5616ZM46.0099 30.3285L52.6279 32.9371L56.8457 43.3517L46.0099 30.3285ZM57.9247 44.5761L53.2358 32.9991H62.8278L57.9247 44.5761ZM59.0462 43.3132L63.4415 32.9362L69.9733 30.336L59.0462 43.3132ZM63.7616 32.2273L66.37 26.5108L70.2909 29.6282L63.7616 32.2273ZM66.8962 26.239L68.9433 25.5592L70.5317 29.1293L66.8962 26.239Z" fill="url(#paint1_radial_317_1729)"/>
</g>
<path d="M58.0001 3.56921L109.308 25.6538L58.0001 6.35768L6.69238 25.6538L58.0001 3.56921Z" fill="#D3C3BF"/>
<defs>
<radialGradient id="paint0_radial_317_1729" cx="0" cy="0" r="1" gradientUnits="userSpaceOnUse" gradientTransform="translate(113.375 50.4343) rotate(162.379) scale(90.845 12.9954)">
<stop stop-color="#FDC830"/>
<stop offset="1" stop-color="#D44832" stop-opacity="0.7"/>
</radialGradient>
<radialGradient id="paint1_radial_317_1729" cx="0" cy="0" r="1" gradientUnits="userSpaceOnUse" gradientTransform="translate(64.3971 17.7665) rotate(112.62) scale(34.8363 25.1553)">
<stop stop-color="#FDC830"/>
<stop offset="0.28125" stop-color="#E98931" stop-opacity="0.853125"/>
<stop offset="0.645833" stop-color="#DE6831" stop-opacity="0.775453"/>
<stop offset="1" stop-color="#D44832" stop-opacity="0.7"/>
<stop offset="1" stop-color="#D44832" stop-opacity="0.7"/>
</radialGradient>
<clipPath id="clip0_317_1729">
<rect width="27.8117" height="27.6569" fill="white" transform="translate(44.0947 20.4485)"/>
</clipPath>
</defs>
</svg>
