<svg width="660" height="146" viewBox="0 0 660 146" fill="none" xmlns="http://www.w3.org/2000/svg">
<g clip-path="url(#clip0_1134_1964)">
<path d="M115.098 35.2429C115.081 35.2039 115.061 35.166 115.039 35.1292C114.767 34.6662 114.325 34.3266 113.808 34.1815L90.8155 27.6931C90.6309 27.6411 90.44 27.6148 90.2482 27.6148H44.9549C44.7443 27.6148 44.5349 27.6466 44.3337 27.7091L23.493 34.1902C23.0232 34.3365 22.6199 34.6437 22.354 35.0578C22.3319 35.0923 22.3117 35.128 22.2935 35.1648L14.0477 51.8516C13.8283 52.2204 13.7286 52.648 13.7623 53.0757C13.796 53.5035 13.9614 53.9102 14.2359 54.24L14.2343 54.2414L66.3613 116.892C66.3711 116.904 66.3813 116.916 66.3915 116.927C66.5871 117.143 66.8254 117.316 67.0914 117.434C67.3573 117.552 67.645 117.614 67.9361 117.615H67.9417C68.2318 117.615 68.5188 117.554 68.7844 117.437C69.0499 117.32 69.2883 117.15 69.4845 116.936C69.4947 116.924 69.5047 116.914 69.5145 116.901L122.272 54.2465L122.27 54.2449C122.542 53.9254 122.711 53.5309 122.754 53.1135C122.797 52.6961 122.712 52.2754 122.511 51.907L115.098 35.2429ZM44.9749 29.8395H90.2302L110.093 35.4456L87.7537 42.8647L87.7444 42.8679H47.4645L47.4514 42.863L26.9695 35.4389L44.9749 29.8395ZM100.057 41.1224L90.5785 61.8948L89.1239 44.7532L100.057 41.1224ZM68.262 45.3072L87.2454 65.1288H49.5441L68.262 45.3072ZM48.129 63.3866L48.3479 45.0916H65.4056L48.129 63.3866ZM71.1358 45.0916H86.919L88.454 63.1735L71.1358 45.0916ZM46.1275 44.7486L45.9293 61.303L36.6663 41.3195L46.1275 44.7486ZM24.002 36.7296L31.8873 39.5874L17.8907 49.0962L24.002 36.7296ZM33.9947 40.8452L44.8125 64.1851L16.2258 52.9159L33.9947 40.8452ZM18.8876 56.3561L46.1382 67.0978L63.506 109.982L18.8876 56.3561ZM67.9488 115.024L48.6415 67.3532H88.1386L67.9488 115.024ZM72.5672 109.823L90.6655 67.0938L117.561 56.3872L72.5672 109.823ZM91.9834 64.1748L102.724 40.6363L118.869 53.4725L91.9834 64.1748ZM104.891 39.5169L113.32 36.7176L119.861 51.4183L104.891 39.5169Z" fill="url(#paint0_radial_1134_1964)"/>
</g>
<path d="M164.104 74.0108C160.819 74.0108 157.832 73.4561 155.144 72.3468C152.499 71.1948 150.301 69.5521 148.552 67.4188L155.464 59.2268C156.659 60.7628 157.896 61.9361 159.176 62.7468C160.456 63.5148 161.8 63.8988 163.208 63.8988C166.963 63.8988 168.84 61.7228 168.84 57.3708V38.1068H153.352V28.3148H181.384V56.6028C181.384 62.4481 179.912 66.8215 176.968 69.7228C174.024 72.5815 169.736 74.0108 164.104 74.0108ZM201.265 63.1948L200.561 48.9868L219.825 28.3148H233.777L214.577 49.1148L207.537 56.4748L201.265 63.1948ZM189.937 73.1148V28.3148H202.481V73.1148H189.937ZM220.017 73.1148L205.425 54.6188L213.681 45.7868L234.737 73.1148H220.017ZM237.102 58.6508V51.9948H254.702V58.6508H237.102ZM277.174 73.7548C273.675 73.7548 270.326 73.2641 267.126 72.2828C263.926 71.2588 261.387 69.9575 259.51 68.3788L262.39 61.9148C264.182 63.3228 266.4 64.4961 269.046 65.4348C271.691 66.3735 274.4 66.8428 277.174 66.8428C279.52 66.8428 281.419 66.5868 282.87 66.0748C284.32 65.5628 285.387 64.8801 286.07 64.0268C286.752 63.1308 287.094 62.1281 287.094 61.0188C287.094 59.6535 286.603 58.5655 285.622 57.7548C284.64 56.9015 283.36 56.2401 281.782 55.7708C280.246 55.2588 278.518 54.7895 276.598 54.3628C274.72 53.9361 272.822 53.4455 270.902 52.8908C269.024 52.2935 267.296 51.5468 265.718 50.6508C264.182 49.7121 262.923 48.4748 261.942 46.9388C260.96 45.4028 260.47 43.4401 260.47 41.0508C260.47 38.6188 261.11 36.4001 262.39 34.3948C263.712 32.3468 265.696 30.7255 268.342 29.5308C271.03 28.2935 274.422 27.6748 278.518 27.6748C281.206 27.6748 283.872 28.0161 286.518 28.6988C289.163 29.3815 291.467 30.3628 293.43 31.6428L290.806 38.1068C288.8 36.9121 286.731 36.0375 284.598 35.4828C282.464 34.8855 280.416 34.5868 278.454 34.5868C276.15 34.5868 274.272 34.8641 272.822 35.4188C271.414 35.9735 270.368 36.6988 269.686 37.5948C269.046 38.4908 268.726 39.5148 268.726 40.6668C268.726 42.0321 269.195 43.1415 270.134 43.9948C271.115 44.8055 272.374 45.4455 273.91 45.9148C275.488 46.3841 277.238 46.8535 279.158 47.3228C281.078 47.7495 282.976 48.2401 284.854 48.7948C286.774 49.3495 288.502 50.0748 290.038 50.9708C291.616 51.8668 292.875 53.0828 293.814 54.6188C294.795 56.1548 295.286 58.0961 295.286 60.4428C295.286 62.8321 294.624 65.0508 293.302 67.0988C292.022 69.1041 290.038 70.7255 287.35 71.9628C284.662 73.1575 281.27 73.7548 277.174 73.7548ZM315.632 73.5628C311.877 73.5628 308.976 72.6028 306.928 70.6828C304.88 68.7201 303.856 65.8401 303.856 62.0428V31.3868H311.856V61.8508C311.856 63.4721 312.261 64.7308 313.072 65.6268C313.925 66.5228 315.098 66.9708 316.592 66.9708C318.384 66.9708 319.877 66.5015 321.072 65.5628L323.312 71.2588C322.373 72.0268 321.221 72.6028 319.856 72.9868C318.49 73.3708 317.082 73.5628 315.632 73.5628ZM298.224 45.5948V39.1948H321.008V45.5948H298.224ZM329.893 73.1148V38.9388H337.509V48.3468L336.613 45.5948C337.637 43.2908 339.237 41.5415 341.413 40.3468C343.631 39.1521 346.383 38.5548 349.669 38.5548V46.1708C349.327 46.0855 349.007 46.0428 348.709 46.0428C348.41 46.0001 348.111 45.9788 347.813 45.9788C344.783 45.9788 342.373 46.8748 340.581 48.6668C338.789 50.4161 337.893 53.0401 337.893 56.5388V73.1148H329.893ZM371.503 73.5628C368.004 73.5628 364.889 72.8161 362.159 71.3228C359.428 69.7868 357.273 67.6961 355.695 65.0508C354.116 62.4055 353.327 59.3975 353.327 56.0268C353.327 52.6135 354.116 49.6055 355.695 47.0028C357.273 44.3575 359.428 42.2881 362.159 40.7948C364.889 39.3015 368.004 38.5548 371.503 38.5548C375.044 38.5548 378.18 39.3015 380.911 40.7948C383.684 42.2881 385.839 44.3361 387.375 46.9388C388.953 49.5415 389.743 52.5708 389.743 56.0268C389.743 59.3975 388.953 62.4055 387.375 65.0508C385.839 67.6961 383.684 69.7868 380.911 71.3228C378.18 72.8161 375.044 73.5628 371.503 73.5628ZM371.503 66.7148C373.465 66.7148 375.215 66.2881 376.751 65.4348C378.287 64.5815 379.481 63.3441 380.335 61.7228C381.231 60.1015 381.679 58.2028 381.679 56.0268C381.679 53.8081 381.231 51.9095 380.335 50.3308C379.481 48.7095 378.287 47.4721 376.751 46.6188C375.215 45.7655 373.487 45.3388 371.567 45.3388C369.604 45.3388 367.855 45.7655 366.319 46.6188C364.825 47.4721 363.631 48.7095 362.735 50.3308C361.839 51.9095 361.391 53.8081 361.391 56.0268C361.391 58.2028 361.839 60.1015 362.735 61.7228C363.631 63.3441 364.825 64.5815 366.319 65.4348C367.855 66.2881 369.583 66.7148 371.503 66.7148ZM440.529 38.5548C443.259 38.5548 445.67 39.0881 447.761 40.1548C449.894 41.2215 451.558 42.8641 452.753 45.0828C453.947 47.2588 454.545 50.0748 454.545 53.5308V73.1148H446.545V54.5548C446.545 51.5255 445.883 49.2641 444.561 47.7708C443.238 46.2775 441.339 45.5308 438.865 45.5308C437.115 45.5308 435.558 45.9148 434.193 46.6828C432.87 47.4508 431.825 48.5815 431.057 50.0748C430.331 51.5681 429.969 53.4668 429.969 55.7708V73.1148H421.969V54.5548C421.969 51.5255 421.307 49.2641 419.985 47.7708C418.662 46.2775 416.763 45.5308 414.289 45.5308C412.539 45.5308 410.982 45.9148 409.617 46.6828C408.294 47.4508 407.249 48.5815 406.481 50.0748C405.755 51.5681 405.393 53.4668 405.393 55.7708V73.1148H397.393V38.9388H405.009V48.0268L403.665 45.3388C404.817 43.1201 406.481 41.4348 408.657 40.2828C410.875 39.1308 413.393 38.5548 416.209 38.5548C419.409 38.5548 422.182 39.3441 424.529 40.9228C426.918 42.5015 428.497 44.8908 429.265 48.0908L426.129 47.0028C427.238 44.4428 429.073 42.3948 431.633 40.8588C434.193 39.3228 437.158 38.5548 440.529 38.5548ZM483.712 73.5628C480.938 73.5628 478.4 72.9228 476.096 71.6428C473.834 70.3628 472.021 68.4428 470.656 65.8828C469.333 63.2801 468.672 59.9948 468.672 56.0268C468.672 52.0161 469.312 48.7308 470.592 46.1708C471.914 43.6108 473.706 41.7121 475.968 40.4748C478.229 39.1948 480.81 38.5548 483.712 38.5548C487.082 38.5548 490.048 39.2801 492.608 40.7308C495.21 42.1815 497.258 44.2081 498.752 46.8108C500.288 49.4135 501.056 52.4855 501.056 56.0268C501.056 59.5681 500.288 62.6615 498.752 65.3068C497.258 67.9095 495.21 69.9361 492.608 71.3868C490.048 72.8375 487.082 73.5628 483.712 73.5628ZM464.768 85.5308V38.9388H472.384V47.0028L472.128 56.0908L472.768 65.1788V85.5308H464.768ZM482.816 66.7148C484.736 66.7148 486.442 66.2881 487.936 65.4348C489.472 64.5815 490.688 63.3441 491.584 61.7228C492.48 60.1015 492.928 58.2028 492.928 56.0268C492.928 53.8081 492.48 51.9095 491.584 50.3308C490.688 48.7095 489.472 47.4721 487.936 46.6188C486.442 45.7655 484.736 45.3388 482.816 45.3388C480.896 45.3388 479.168 45.7655 477.632 46.6188C476.096 47.4721 474.88 48.7095 473.984 50.3308C473.088 51.9095 472.64 53.8081 472.64 56.0268C472.64 58.2028 473.088 60.1015 473.984 61.7228C474.88 63.3441 476.096 64.5815 477.632 65.4348C479.168 66.2881 480.896 66.7148 482.816 66.7148ZM508.643 73.1148V38.9388H516.259V48.3468L515.363 45.5948C516.387 43.2908 517.987 41.5415 520.163 40.3468C522.381 39.1521 525.133 38.5548 528.419 38.5548V46.1708C528.077 46.0855 527.757 46.0428 527.459 46.0428C527.16 46.0001 526.861 45.9788 526.563 45.9788C523.533 45.9788 521.123 46.8748 519.331 48.6668C517.539 50.4161 516.643 53.0401 516.643 56.5388V73.1148H508.643ZM550.253 73.5628C546.754 73.5628 543.639 72.8161 540.909 71.3228C538.178 69.7868 536.023 67.6961 534.445 65.0508C532.866 62.4055 532.077 59.3975 532.077 56.0268C532.077 52.6135 532.866 49.6055 534.445 47.0028C536.023 44.3575 538.178 42.2881 540.909 40.7948C543.639 39.3015 546.754 38.5548 550.253 38.5548C553.794 38.5548 556.93 39.3015 559.661 40.7948C562.434 42.2881 564.589 44.3361 566.125 46.9388C567.703 49.5415 568.493 52.5708 568.493 56.0268C568.493 59.3975 567.703 62.4055 566.125 65.0508C564.589 67.6961 562.434 69.7868 559.661 71.3228C556.93 72.8161 553.794 73.5628 550.253 73.5628ZM550.253 66.7148C552.215 66.7148 553.965 66.2881 555.501 65.4348C557.037 64.5815 558.231 63.3441 559.085 61.7228C559.981 60.1015 560.429 58.2028 560.429 56.0268C560.429 53.8081 559.981 51.9095 559.085 50.3308C558.231 48.7095 557.037 47.4721 555.501 46.6188C553.965 45.7655 552.237 45.3388 550.317 45.3388C548.354 45.3388 546.605 45.7655 545.069 46.6188C543.575 47.4721 542.381 48.7095 541.485 50.3308C540.589 51.9095 540.141 53.8081 540.141 56.0268C540.141 58.2028 540.589 60.1015 541.485 61.7228C542.381 63.3441 543.575 64.5815 545.069 65.4348C546.605 66.2881 548.333 66.7148 550.253 66.7148ZM577.231 73.1148V37.0188C577.231 33.4348 578.276 30.5761 580.367 28.4428C582.5 26.2668 585.529 25.1788 589.455 25.1788C590.863 25.1788 592.185 25.3281 593.423 25.6268C594.703 25.9255 595.769 26.3948 596.623 27.0348L594.447 33.0508C593.849 32.5815 593.167 32.2401 592.399 32.0268C591.631 31.7708 590.841 31.6428 590.031 31.6428C588.367 31.6428 587.108 32.1121 586.255 33.0508C585.401 33.9468 584.975 35.3121 584.975 37.1468V40.9868L585.231 44.5708V73.1148H577.231ZM571.599 45.5948V39.1948H594.383V45.5948H571.599ZM600.015 73.1148V38.9388H608.015V73.1148H600.015ZM604.047 33.3068C602.553 33.3068 601.316 32.8375 600.335 31.8988C599.396 30.9601 598.927 29.8295 598.927 28.5068C598.927 27.1415 599.396 26.0108 600.335 25.1148C601.316 24.1761 602.553 23.7068 604.047 23.7068C605.54 23.7068 606.756 24.1548 607.695 25.0508C608.676 25.9041 609.167 26.9921 609.167 28.3148C609.167 29.7228 608.697 30.9175 607.759 31.8988C606.82 32.8375 605.583 33.3068 604.047 33.3068ZM629.078 73.5628C626.219 73.5628 623.467 73.2001 620.822 72.4748C618.219 71.7068 616.15 70.7895 614.614 69.7228L617.686 63.6428C619.222 64.6241 621.056 65.4348 623.19 66.0748C625.323 66.7148 627.456 67.0348 629.59 67.0348C632.107 67.0348 633.92 66.6935 635.03 66.0108C636.182 65.3281 636.758 64.4108 636.758 63.2588C636.758 62.3201 636.374 61.6161 635.606 61.1468C634.838 60.6348 633.835 60.2508 632.598 59.9948C631.36 59.7388 629.974 59.5041 628.438 59.2908C626.944 59.0775 625.43 58.8001 623.894 58.4588C622.4 58.0748 621.035 57.5415 619.798 56.8588C618.56 56.1335 617.558 55.1735 616.79 53.9788C616.022 52.7841 615.638 51.2055 615.638 49.2428C615.638 47.0668 616.256 45.1895 617.494 43.6108C618.731 41.9895 620.459 40.7521 622.678 39.8988C624.939 39.0028 627.606 38.5548 630.678 38.5548C632.982 38.5548 635.307 38.8108 637.654 39.3228C640 39.8348 641.942 40.5601 643.478 41.4988L640.406 47.5788C638.784 46.5975 637.142 45.9361 635.478 45.5948C633.856 45.2108 632.235 45.0188 630.614 45.0188C628.182 45.0188 626.368 45.3815 625.174 46.1068C624.022 46.8321 623.446 47.7495 623.446 48.8588C623.446 49.8828 623.83 50.6508 624.598 51.1628C625.366 51.6748 626.368 52.0801 627.606 52.3788C628.843 52.6775 630.208 52.9335 631.702 53.1468C633.238 53.3175 634.752 53.5948 636.246 53.9788C637.739 54.3628 639.104 54.8961 640.342 55.5788C641.622 56.2188 642.646 57.1361 643.414 58.3308C644.182 59.5255 644.566 61.0828 644.566 63.0028C644.566 65.1361 643.926 66.9921 642.646 68.5708C641.408 70.1495 639.638 71.3868 637.334 72.2828C635.03 73.1361 632.278 73.5628 629.078 73.5628Z" fill="#D3C3BF"/>
<path d="M154.689 105.563H163.329V107.603H154.689V105.563ZM154.905 113.027H164.697V115.115H152.505V98.3148H164.361V100.403H154.905V113.027ZM171.464 115.115V98.3148H173.432L184.544 112.115H183.512V98.3148H185.912V115.115H183.944L172.832 101.315H173.864V115.115H171.464ZM196.004 105.563H204.644V107.603H196.004V105.563ZM196.22 113.027H206.012V115.115H193.82V98.3148H205.676V100.403H196.22V113.027ZM212.778 115.115V98.3148H219.33C220.802 98.3148 222.058 98.5468 223.098 99.0108C224.138 99.4748 224.938 100.147 225.498 101.027C226.058 101.907 226.338 102.955 226.338 104.171C226.338 105.387 226.058 106.435 225.498 107.315C224.938 108.179 224.138 108.843 223.098 109.307C222.058 109.771 220.802 110.003 219.33 110.003H214.098L215.178 108.899V115.115H212.778ZM224.01 115.115L219.738 109.019H222.306L226.626 115.115H224.01ZM215.178 109.139L214.098 107.963H219.258C220.794 107.963 221.954 107.635 222.738 106.979C223.538 106.307 223.938 105.371 223.938 104.171C223.938 102.971 223.538 102.043 222.738 101.387C221.954 100.731 220.794 100.403 219.258 100.403H214.098L215.178 99.2028V109.139ZM240.68 115.307C239.384 115.307 238.192 115.099 237.104 114.683C236.016 114.251 235.072 113.651 234.272 112.883C233.472 112.099 232.848 111.187 232.4 110.147C231.952 109.107 231.728 107.963 231.728 106.715C231.728 105.467 231.952 104.323 232.4 103.283C232.848 102.243 233.472 101.339 234.272 100.571C235.088 99.7868 236.04 99.1868 237.128 98.7708C238.216 98.3388 239.416 98.1228 240.728 98.1228C242.056 98.1228 243.272 98.3388 244.376 98.7708C245.48 99.2028 246.416 99.8508 247.184 100.715L245.696 102.203C245.008 101.531 244.256 101.043 243.44 100.739C242.64 100.419 241.768 100.259 240.824 100.259C239.864 100.259 238.968 100.419 238.136 100.739C237.32 101.059 236.608 101.507 236 102.083C235.408 102.659 234.944 103.347 234.608 104.147C234.288 104.931 234.128 105.787 234.128 106.715C234.128 107.627 234.288 108.483 234.608 109.283C234.944 110.067 235.408 110.755 236 111.347C236.608 111.923 237.32 112.371 238.136 112.691C238.952 113.011 239.84 113.171 240.8 113.171C241.696 113.171 242.552 113.035 243.368 112.763C244.2 112.475 244.968 112.003 245.672 111.347L247.04 113.171C246.208 113.875 245.232 114.411 244.112 114.779C243.008 115.131 241.864 115.307 240.68 115.307ZM244.736 112.859V106.619H247.04V113.171L244.736 112.859ZM254.515 115.115V98.3148H256.915V115.115H254.515ZM267.009 105.563H275.649V107.603H267.009V105.563ZM267.225 113.027H277.017V115.115H264.825V98.3148H276.681V100.403H267.225V113.027ZM293.108 115.115V98.3148H295.508V115.115H293.108ZM303.418 115.115V98.3148H305.386L316.498 112.115H315.466V98.3148H317.866V115.115H315.898L304.786 101.315H305.818V115.115H303.418ZM335.1 115.115V98.3148H342.636C344.572 98.3148 346.06 98.7068 347.1 99.4908C348.14 100.259 348.66 101.315 348.66 102.659C348.66 103.571 348.452 104.339 348.036 104.963C347.636 105.587 347.092 106.067 346.404 106.403C345.716 106.739 344.972 106.907 344.172 106.907L344.604 106.187C345.564 106.187 346.412 106.355 347.148 106.691C347.884 107.027 348.468 107.523 348.9 108.179C349.332 108.819 349.548 109.619 349.548 110.579C349.548 112.019 349.004 113.139 347.916 113.939C346.844 114.723 345.244 115.115 343.116 115.115H335.1ZM337.5 113.171H343.02C344.348 113.171 345.364 112.947 346.068 112.499C346.772 112.051 347.124 111.347 347.124 110.387C347.124 109.411 346.772 108.699 346.068 108.251C345.364 107.803 344.348 107.579 343.02 107.579H337.284V105.635H342.42C343.636 105.635 344.58 105.411 345.252 104.963C345.924 104.515 346.26 103.843 346.26 102.947C346.26 102.051 345.924 101.379 345.252 100.931C344.58 100.483 343.636 100.259 342.42 100.259H337.5V113.171ZM358.328 105.563H366.968V107.603H358.328V105.563ZM358.544 113.027H368.336V115.115H356.144V98.3148H368V100.403H358.544V113.027ZM379.998 115.307C378.718 115.307 377.494 115.115 376.326 114.731C375.158 114.331 374.238 113.819 373.566 113.195L374.454 111.323C375.094 111.883 375.91 112.347 376.902 112.715C377.894 113.083 378.926 113.267 379.998 113.267C380.974 113.267 381.766 113.155 382.374 112.931C382.982 112.707 383.43 112.403 383.718 112.019C384.006 111.619 384.15 111.171 384.15 110.675C384.15 110.099 383.958 109.635 383.574 109.283C383.206 108.931 382.718 108.651 382.11 108.443C381.518 108.219 380.862 108.027 380.142 107.867C379.422 107.707 378.694 107.523 377.958 107.315C377.238 107.091 376.574 106.811 375.966 106.475C375.374 106.139 374.894 105.691 374.526 105.131C374.158 104.555 373.974 103.819 373.974 102.923C373.974 102.059 374.198 101.267 374.646 100.547C375.11 99.8108 375.814 99.2268 376.758 98.7948C377.718 98.3468 378.934 98.1228 380.406 98.1228C381.382 98.1228 382.35 98.2508 383.31 98.5068C384.27 98.7628 385.102 99.1308 385.806 99.6108L385.014 101.531C384.294 101.051 383.534 100.707 382.734 100.499C381.934 100.275 381.158 100.163 380.406 100.163C379.462 100.163 378.686 100.283 378.078 100.523C377.47 100.763 377.022 101.083 376.734 101.483C376.462 101.883 376.326 102.331 376.326 102.827C376.326 103.419 376.51 103.891 376.878 104.243C377.262 104.595 377.75 104.875 378.342 105.083C378.95 105.291 379.614 105.483 380.334 105.659C381.054 105.819 381.774 106.003 382.494 106.211C383.23 106.419 383.894 106.691 384.486 107.027C385.094 107.363 385.582 107.811 385.95 108.371C386.318 108.931 386.502 109.651 386.502 110.531C386.502 111.379 386.27 112.171 385.806 112.907C385.342 113.627 384.622 114.211 383.646 114.659C382.686 115.091 381.47 115.307 379.998 115.307ZM395.99 115.115V100.403H390.23V98.3148H404.126V100.403H398.366V115.115H395.99ZM411.804 105.563H420.444V107.603H411.804V105.563ZM412.02 113.027H421.812V115.115H409.62V98.3148H421.476V100.403H412.02V113.027ZM428.578 115.115V98.3148H430.546L441.658 112.115H440.626V98.3148H443.026V115.115H441.058L429.946 101.315H430.978V115.115H428.578ZM472.308 98.3148H474.708V115.115H472.308V98.3148ZM462.66 115.115H460.26V98.3148H462.66V115.115ZM472.524 107.627H462.42V105.539H472.524V107.627ZM480.072 115.115L487.68 98.3148H490.056L497.688 115.115H495.168L488.376 99.6588H489.336L482.544 115.115H480.072ZM483.312 110.915L483.96 108.995H493.416L494.112 110.915H483.312ZM491.112 96.5388C490.776 96.5388 490.488 96.4268 490.248 96.2028C490.008 95.9628 489.888 95.6668 489.888 95.3148C489.888 94.9468 490.008 94.6508 490.248 94.4268C490.488 94.1868 490.776 94.0668 491.112 94.0668C491.448 94.0668 491.736 94.1868 491.976 94.4268C492.216 94.6508 492.336 94.9468 492.336 95.3148C492.336 95.6668 492.216 95.9628 491.976 96.2028C491.736 96.4268 491.448 96.5388 491.112 96.5388ZM486.648 96.5388C486.312 96.5388 486.024 96.4268 485.784 96.2028C485.544 95.9628 485.424 95.6668 485.424 95.3148C485.424 94.9468 485.544 94.6508 485.784 94.4268C486.024 94.1868 486.312 94.0668 486.648 94.0668C486.984 94.0668 487.272 94.1868 487.512 94.4268C487.752 94.6508 487.872 94.9468 487.872 95.3148C487.872 95.6668 487.752 95.9628 487.512 96.2028C487.272 96.4268 486.984 96.5388 486.648 96.5388ZM503.074 115.115V98.3148H505.042L516.154 112.115H515.122V98.3148H517.522V115.115H515.554L504.442 101.315H505.474V115.115H503.074ZM525.431 115.115V98.3148H532.511C534.303 98.3148 535.879 98.6668 537.239 99.3708C538.615 100.075 539.679 101.059 540.431 102.323C541.199 103.587 541.583 105.051 541.583 106.715C541.583 108.379 541.199 109.843 540.431 111.107C539.679 112.371 538.615 113.355 537.239 114.059C535.879 114.763 534.303 115.115 532.511 115.115H525.431ZM527.831 113.027H532.367C533.759 113.027 534.959 112.763 535.967 112.235C536.991 111.707 537.783 110.971 538.343 110.027C538.903 109.067 539.183 107.963 539.183 106.715C539.183 105.451 538.903 104.347 538.343 103.403C537.783 102.459 536.991 101.723 535.967 101.195C534.959 100.667 533.759 100.403 532.367 100.403H527.831V113.027ZM550.323 105.563H558.963V107.603H550.323V105.563ZM550.539 113.027H560.331V115.115H548.139V98.3148H559.995V100.403H550.539V113.027ZM567.097 115.115V98.3148H569.065L580.177 112.115H579.145V98.3148H581.545V115.115H579.577L568.465 101.315H569.497V115.115H567.097Z" fill="url(#paint1_radial_1134_1964)"/>
<defs>
<radialGradient id="paint0_radial_1134_1964" cx="0" cy="0" r="1" gradientUnits="userSpaceOnUse" gradientTransform="translate(94.6001 4.62971) rotate(112.62) scale(143.445 103.582)">
<stop stop-color="#FDC830"/>
<stop offset="0.28125" stop-color="#E98931" stop-opacity="0.853125"/>
<stop offset="0.645833" stop-color="#DE6831" stop-opacity="0.775453"/>
<stop offset="1" stop-color="#D44832" stop-opacity="0.7"/>
<stop offset="1" stop-color="#D44832" stop-opacity="0.7"/>
</radialGradient>
<radialGradient id="paint1_radial_1134_1964" cx="0" cy="0" r="1" gradientUnits="userSpaceOnUse" gradientTransform="translate(664.651 4.51063) rotate(161.067) scale(491.577 74.8052)">
<stop stop-color="#FDC830"/>
<stop offset="1" stop-color="#D44832" stop-opacity="0.7"/>
</radialGradient>
<clipPath id="clip0_1134_1964">
<rect width="114.52" height="90" fill="white" transform="translate(11 27.6148)"/>
</clipPath>
</defs>
</svg>
