<svg width="535" height="535" viewBox="0 0 535 535" fill="none" xmlns="http://www.w3.org/2000/svg">
<g clip-path="url(#clip0_376_8381)">
<path d="M360.958 239.359C360.958 239.359 389.31 224.905 399.038 229.012C408.766 233.119 426.377 267.604 434.291 273.311C443.443 279.924 456.574 295.551 466.91 314.655C477.246 333.759 478.643 371.785 478.643 371.785H407.891L360.958 239.359Z" fill="#CBB8B3"/>
<path d="M207.956 284.511C207.956 284.511 174.975 265.311 160.767 257.257C146.559 249.204 109.908 297.62 88.4151 301.705C66.9218 305.791 60.0098 372.884 60.0098 372.884H194.41L207.956 284.511Z" fill="#D3C3BF"/>
<path d="M255.178 279.178C255.178 279.178 234.378 261.759 223.434 258.463C212.49 255.167 172.512 293.354 156.512 293.194C140.512 293.034 100.682 310.709 100.682 310.709L69.0449 372.927H208.608L255.178 279.178Z" fill="#CBB8B3"/>
<path d="M475.135 373.194H282.378C280.721 373.191 279.132 372.531 277.961 371.36C276.789 370.188 276.13 368.6 276.127 366.943V86.1111C276.133 84.456 276.793 82.8705 277.965 81.7012C279.136 80.5319 280.723 79.8739 282.378 79.8711H475.135C476.79 79.8739 478.377 80.5319 479.548 81.7012C480.719 82.8705 481.38 84.456 481.386 86.1111V366.943C481.383 368.6 480.723 370.188 479.552 371.36C478.38 372.531 476.792 373.191 475.135 373.194ZM282.378 80.1378C281.589 80.1321 280.807 80.2824 280.077 80.5799C279.347 80.8775 278.683 81.3164 278.122 81.8715C277.562 82.4266 277.118 83.0869 276.814 83.8145C276.51 84.5421 276.352 85.3226 276.351 86.1111V366.943C276.351 368.53 276.981 370.052 278.104 371.174C279.226 372.297 280.748 372.927 282.335 372.927H475.135C476.722 372.927 478.244 372.297 479.366 371.174C480.488 370.052 481.119 368.53 481.119 366.943V86.1111C481.119 84.524 480.488 83.002 479.366 81.8798C478.244 80.7576 476.722 80.1271 475.135 80.1271L282.378 80.1378Z" fill="#E1D6D3"/>
<path d="M252.809 373.193H60.0095C58.3525 373.19 56.7643 372.53 55.5927 371.359C54.4211 370.187 53.7616 368.599 53.7588 366.942V86.11C53.7616 84.4531 54.4211 82.8649 55.5927 81.6933C56.7643 80.5217 58.3525 79.8622 60.0095 79.8594H252.809C254.466 79.8622 256.055 80.5217 257.226 81.6933C258.398 82.8649 259.057 84.4531 259.06 86.11V366.942C259.057 368.599 258.398 370.187 257.226 371.359C256.055 372.53 254.466 373.19 252.809 373.193ZM60.0095 80.1367C58.4242 80.1367 56.9038 80.7657 55.7819 81.8856C54.66 83.0055 54.0283 84.5248 54.0255 86.11V366.942C54.0255 368.529 54.6559 370.051 55.7781 371.173C56.9003 372.296 58.4224 372.926 60.0095 372.926H252.809C256.116 372.926 258.793 370.249 259.572 366.355V85.5234C259.134 84.0448 258.248 82.7384 257.037 81.7834C255.826 80.8284 254.349 80.2718 252.809 80.19L60.0095 80.1367Z" fill="#E1D6D3"/>
<path d="M534.111 438.336H0.777344V438.603H534.111V438.336Z" fill="#E1D6D3"/>
<path d="M465.385 199.935C463.593 195.754 459.07 187.935 449.726 185.802C441.193 183.85 434.718 194.655 429.46 195.402C424.201 196.149 424.745 193.813 414.142 189.823C405.075 186.421 398.995 195.274 396.841 199.882L465.385 199.935Z" fill="#BEA6A0"/>
<path d="M147.305 156.882C147.305 156.882 147.305 147.367 137.961 146.973C133.492 146.781 128.03 150.439 124.585 144.647C120.585 137.938 113.577 133.981 107.273 136.53C100.308 139.399 96.361 150.397 89.5556 149.511C82.7503 148.626 69.7796 144.082 63.0703 156.882H147.305Z" fill="#BEA6A0"/>
<path d="M384.927 114.664C384.927 114.664 384.927 105.15 375.583 104.755C371.114 104.563 365.652 108.222 362.207 102.43C358.207 95.7097 351.199 91.7631 344.895 94.3124C337.93 97.1817 333.983 108.179 327.178 107.294C320.372 106.408 307.402 101.864 300.692 114.664H384.927Z" fill="#BEA6A0"/>
<path d="M225.11 130.192C235.836 125.685 240.878 113.336 236.371 102.609C231.865 91.8828 219.516 86.8407 208.789 91.3475C198.063 95.8543 193.021 108.203 197.527 118.93C202.034 129.656 214.383 134.698 225.11 130.192Z" fill="#E1D6D3"/>
<path d="M318.506 265.608C318.506 265.608 297.748 243.837 290.058 242.568C282.367 241.298 246.132 273.608 240.991 276.808C235.85 280.008 220.404 281.608 214.506 282.674C208.607 283.741 191.807 290.546 191.274 292.541C190.74 294.536 173.962 312.744 173.962 312.744C173.962 312.744 106.442 352.338 94.0791 372.968H352.778L318.506 265.608Z" fill="#E1D6D3"/>
<path d="M476.51 477.654C476.51 481.664 381.875 484.918 265.128 484.918C148.382 484.918 53.7578 481.664 53.7578 477.654C53.7578 473.643 148.392 470.379 265.128 470.379C381.864 470.379 476.51 473.632 476.51 477.654Z" fill="#D3C3BF"/>
<path d="M322.078 222.613V154.635L321.331 154.613L321.384 222.592L322.078 222.613Z" fill="#504643"/>
<path d="M322.078 154.744C322.078 154.744 316.894 152.12 311.955 155.053C307.017 157.986 300.425 154.402 300.425 154.402C301.619 157.282 304.083 160.802 306.761 161.538C305.126 163.835 302.949 165.692 300.425 166.946C300.425 166.946 306.515 170.082 310.803 166.946C315.091 163.81 322.078 167.576 322.078 167.576V154.744Z" fill="#504643"/>
<path d="M284.362 261.325V177.869L283.444 177.848L283.508 261.293L284.362 261.325Z" fill="#504643"/>
<path d="M284.361 177.995C284.361 177.995 277.961 174.795 271.934 178.379C265.907 181.963 257.779 177.579 257.779 177.579C259.251 181.109 262.27 185.451 265.566 186.347C263.548 189.161 260.876 191.442 257.779 192.992C257.779 192.992 265.246 196.832 270.515 192.992C275.785 189.152 284.382 193.749 284.382 193.749L284.361 177.995Z" fill="#504643"/>
<path d="M241.215 311.585V212.118L240.127 212.086L240.202 311.553L241.215 311.585Z" fill="#504643"/>
<path d="M241.215 212.269C241.215 212.269 233.631 208.44 226.399 212.728C219.167 217.016 209.535 211.768 209.535 211.768C211.284 215.981 214.868 221.154 218.815 222.221C216.415 225.578 213.229 228.296 209.535 230.136C209.535 230.136 218.452 234.712 224.714 230.136C230.975 225.56 241.215 231.053 241.215 231.053V212.269Z" fill="#504643"/>
<path d="M353.427 192.758V130.881L352.744 130.859L352.797 192.737L353.427 192.758Z" fill="#504643"/>
<path d="M353.427 130.976C353.427 130.976 348.702 128.587 344.211 131.254C339.72 133.92 333.715 130.656 333.715 130.656C334.782 133.28 337.043 136.502 339.486 137.163C337.993 139.253 336.012 140.945 333.715 142.091C333.715 142.091 339.261 144.939 343.165 142.091C347.069 139.243 353.427 142.656 353.427 142.656V130.976Z" fill="#504643"/>
<path d="M487.07 438.333H172.403C172.403 438.333 172.659 437.341 173.022 436.04C173.086 435.816 173.15 435.581 173.214 435.325C173.278 435.069 173.321 434.952 173.363 434.771C173.406 434.589 173.555 434.056 173.673 433.704C173.676 433.683 173.676 433.661 173.673 433.64C174.334 431.219 175.251 427.997 176.393 424.104C176.531 423.624 176.681 423.133 176.83 422.632C176.979 422.131 177.139 421.565 177.278 421.064C177.619 419.997 177.971 418.781 178.345 417.555C178.59 416.819 178.814 416.04 179.049 415.251C179.283 414.461 179.603 413.459 179.891 412.531C180.083 411.923 180.265 411.283 180.457 410.675C180.649 410.067 180.787 409.608 180.937 409.096C181.214 408.253 181.481 407.4 181.758 406.504C181.929 405.971 182.11 405.437 182.281 404.872C182.451 404.307 182.697 403.549 182.921 402.856C183.987 399.571 185.054 396.136 186.27 392.637C186.305 392.558 186.333 392.476 186.355 392.392C186.825 391.037 187.283 389.651 187.763 388.264C187.783 388.188 187.808 388.113 187.838 388.04L188.787 385.288C189.139 384.307 189.47 383.325 189.854 382.323C190.238 381.32 190.494 380.531 190.825 379.635L192.019 376.296C192.688 374.483 193.363 372.662 194.046 370.835L196.041 365.651L196.926 363.411C197.811 361.181 198.707 358.941 199.625 356.733C199.934 356.008 200.233 355.272 200.542 354.6C201.769 351.677 203.027 348.808 204.297 346.067C205.193 344.09 206.099 342.159 207.017 340.275C208.691 336.808 210.398 333.491 212.126 330.387C219.411 317.245 227.059 307.752 234.398 305.939C239.827 304.605 245.673 300.445 251.71 294.579C253.769 292.595 255.849 290.397 257.939 288.04C273.086 271.069 289.043 246.067 302.665 229.544L322.089 215.485C323.103 214.613 324.035 213.649 324.873 212.605C329.683 207.176 339.113 195.656 342.174 191.795C344.894 189.075 350.59 187.891 357.278 187.219C365.811 194.685 385.598 222.269 401.374 251.027C403.507 254.899 418.835 271.901 421.278 275.645C422.227 277.096 423.134 278.579 424.019 280.083C436.414 301.267 442.697 327.187 458.153 343.283C459.923 345.139 462.419 345.597 464.329 347.283C465.857 348.638 467.25 350.139 468.489 351.763C472.424 357.049 475.492 362.929 477.577 369.181C487.571 397.8 487.07 438.333 487.07 438.333Z" fill="url(#paint0_linear_376_8381)"/>
<path opacity="0.1" d="M246.771 310.406C246.771 310.406 278.11 339.505 287.71 344.476C297.31 349.446 331.625 320.038 331.625 320.038C331.625 320.038 339.294 314.652 333.406 312.166C327.518 309.681 306.035 322.076 292.137 323.814C282.206 325.062 269.907 315.068 267.774 314.652C265.641 314.236 246.771 310.406 246.771 310.406Z" fill="#D3C3BF"/>
<path opacity="0.1" d="M371.069 234.621L340.136 235.933C327.336 236.488 307.613 233.8 302.675 229.384L322.099 215.325C323.114 214.453 324.046 213.489 324.883 212.445C330.045 218.205 339.112 228.019 341.736 228.819C345.469 229.96 371.069 234.621 371.069 234.621Z" fill="#D3C3BF"/>
<path opacity="0.2" d="M468.509 351.602C451.944 354.802 435.837 359.858 415.923 358.194C382.568 355.399 344.349 357.298 346.504 349.981C348.659 342.663 354.579 319.922 378.792 320.167C392.509 320.295 412.563 297.661 424.029 279.922C436.424 301.106 442.707 327.026 458.163 343.122C459.933 344.978 462.429 345.437 464.339 347.122C465.871 348.477 467.267 349.977 468.509 351.602Z" fill="black"/>
<path opacity="0.2" d="M487.07 438.332H172.403L173.022 436.017C173.097 435.793 173.15 435.559 173.214 435.313C173.275 435.132 173.325 434.946 173.363 434.759C173.47 434.407 173.566 434.044 173.673 433.692C173.676 433.674 173.676 433.656 173.673 433.639C174.345 431.228 175.273 427.985 176.393 424.113C176.542 423.623 176.681 423.132 176.83 422.62C176.979 422.108 177.139 421.553 177.289 421.063C177.63 419.996 177.971 418.769 178.355 417.564C178.601 416.807 178.825 416.049 179.059 415.249C179.294 414.449 179.614 413.457 179.902 412.529C180.094 411.911 180.275 411.292 180.467 410.673C180.659 410.055 180.798 409.607 180.958 409.095C181.225 408.252 181.502 407.399 181.769 406.503C181.939 405.959 182.121 405.436 182.291 404.881C182.462 404.327 182.707 403.537 182.942 402.865C184.009 399.58 185.075 396.156 186.281 392.636C186.315 392.557 186.344 392.475 186.366 392.391L187.774 388.263C187.791 388.184 187.82 388.109 187.859 388.039C188.158 387.132 188.478 386.215 188.798 385.297L189.865 382.321C190.17 381.432 190.49 380.536 190.825 379.633L192.019 376.295C192.688 374.481 193.367 372.661 194.057 370.833C194.707 369.105 195.379 367.367 196.051 365.649C196.339 364.892 196.638 364.145 196.926 363.409C197.815 361.169 198.714 358.944 199.625 356.732C199.934 356.007 200.243 355.271 200.542 354.545C201.769 351.633 203.027 348.764 204.297 346.012C205.193 344.035 206.099 342.104 207.017 340.22C208.691 336.753 210.409 333.447 212.126 330.332C223.465 330.332 238.579 333.148 251.827 345.265C267.315 359.42 277.086 388.881 312.627 385.169C348.169 381.457 376.809 389.319 414.153 404.081C442.953 415.452 470.686 389.809 477.545 369.265C487.582 397.809 487.07 438.332 487.07 438.332Z" fill="black"/>
<path d="M260.754 414.471C260.754 414.471 278.653 394.375 281.629 394.375C284.605 394.375 307.634 395.069 318.471 394.375C329.309 393.682 341.213 406.109 350.749 414.471C360.285 422.834 385.949 430.471 385.949 430.471L390.109 438.109H260.754V414.471Z" fill="url(#paint1_linear_376_8381)"/>
<path opacity="0.2" d="M390.111 438.108H260.767V414.471C260.767 414.471 278.655 394.375 281.631 394.375C282.249 394.375 283.764 394.375 285.759 394.439C286.473 407.314 296.745 416.935 307.988 414.556L308.255 414.503C312.66 413.575 327.625 416.242 332.393 425.255C337.161 434.268 359.924 433.266 359.924 433.266C359.924 433.266 380.724 434.332 389.492 436.999L390.111 438.108Z" fill="black"/>
<path d="M284.606 438.11H78.4297C78.4297 438.11 78.739 437.043 79.315 435.081C79.443 434.654 79.571 434.195 79.7204 433.683C80.3177 431.678 81.0964 429.075 82.0137 426.099C82.4759 424.606 82.9666 423.027 83.4857 421.363C83.7524 420.542 84.0297 419.689 84.2964 418.825L85.5657 414.878L86.0137 413.545C88.147 407.23 90.419 400.542 92.723 394.633C93.3737 392.937 94.0457 391.294 94.707 389.747C95.1977 388.585 95.6883 387.475 96.1577 386.43C96.627 385.385 97.1284 384.393 97.587 383.454C97.8964 382.846 98.2057 382.27 98.5044 381.715C99.4123 379.822 100.693 378.131 102.27 376.745C119.71 365.011 133.758 350.462 143.774 343.561C155.624 335.39 169.512 332.51 182.526 332.137C191.31 332.279 200.077 332.963 208.776 334.185L210.462 334.462C210.908 334.547 211.35 334.658 211.784 334.793C212.658 335.061 213.501 335.419 214.302 335.859C214.547 335.998 214.814 336.126 215.059 336.275C216.388 337.08 217.638 338.009 218.792 339.049C219.475 339.678 220.179 340.339 220.926 341.043C220.949 341.089 220.982 341.129 221.022 341.161C221.512 341.673 221.992 342.227 222.462 342.75C224.474 345.074 226.334 347.525 228.03 350.089C228.936 351.422 229.811 352.798 230.696 354.185C231.112 354.835 231.496 355.486 231.912 356.137L233.299 358.441C233.747 359.187 234.184 359.913 234.611 360.649C234.846 361.033 235.07 361.438 235.315 361.833C236.382 363.646 237.42 365.424 238.43 367.166C238.47 367.262 238.524 367.352 238.59 367.433C238.931 368.062 239.294 368.67 239.656 369.278L239.848 369.598C240.478 370.665 241.096 371.731 241.715 372.734C242.131 373.417 242.515 374.067 242.931 374.697C243.923 376.275 244.915 377.769 245.864 379.102C246.238 379.614 246.611 380.169 246.995 380.606C247.031 380.668 247.074 380.725 247.123 380.777C247.432 381.203 247.763 381.577 248.083 381.961L248.19 382.078C248.497 382.451 248.825 382.807 249.171 383.145C249.349 383.334 249.537 383.512 249.736 383.678C250.204 384.103 250.703 384.492 251.23 384.841C251.384 384.952 251.548 385.049 251.72 385.129C251.902 385.225 252.083 385.299 252.264 385.374C252.392 385.431 252.524 385.478 252.659 385.513C252.846 385.587 253.044 385.63 253.246 385.641C255.216 386.071 257.069 386.927 258.675 388.147L259.88 389.022C260.286 389.321 260.68 389.651 261.107 389.993C261.534 390.334 261.918 390.697 262.334 391.059C262.75 391.422 263.187 391.806 263.592 392.201C264.232 392.798 264.872 393.427 265.491 394.057C265.704 394.259 265.918 394.473 266.131 394.707C267.198 395.774 268.264 396.937 269.331 398.099C269.544 398.345 269.758 398.569 269.95 398.825C277.416 407.358 283.998 417.097 284.67 418.654C285.8 421.406 284.606 438.11 284.606 438.11Z" fill="url(#paint2_linear_376_8381)"/>
<path opacity="0.1" d="M284.606 438.11H78.4297C78.4297 438.11 78.739 437.043 79.315 435.081C79.443 434.654 79.571 434.195 79.7204 433.683C80.3177 431.678 81.0964 429.075 82.0137 426.099C82.4759 424.606 82.9666 423.027 83.4857 421.363C83.7524 420.542 84.0297 419.689 84.2964 418.825L85.5657 414.878L86.0137 413.545C88.147 407.23 90.419 400.542 92.723 394.633C93.3737 392.937 94.0457 391.294 94.707 389.747C95.1977 388.585 95.6883 387.475 96.1577 386.43C96.627 385.385 97.1284 384.393 97.587 383.454C97.8964 382.846 98.2057 382.27 98.5044 381.715C99.4123 379.822 100.693 378.131 102.27 376.745C119.71 365.011 133.758 350.462 143.774 343.561C155.624 335.39 169.512 332.51 182.526 332.137C191.31 332.279 200.077 332.963 208.776 334.185L210.462 334.462C210.908 334.547 211.35 334.658 211.784 334.793C212.658 335.061 213.501 335.419 214.302 335.859C214.547 335.998 214.814 336.126 215.059 336.275C216.388 337.08 217.638 338.009 218.792 339.049C219.475 339.678 220.179 340.339 220.926 341.043C220.949 341.089 220.982 341.129 221.022 341.161C221.512 341.673 221.992 342.227 222.462 342.75C224.474 345.074 226.334 347.525 228.03 350.089C228.936 351.422 229.811 352.798 230.696 354.185C231.112 354.835 231.496 355.486 231.912 356.137L233.299 358.441C233.747 359.187 234.184 359.913 234.611 360.649C234.846 361.033 235.07 361.438 235.315 361.833C236.382 363.646 237.42 365.424 238.43 367.166C238.47 367.262 238.524 367.352 238.59 367.433C238.931 368.062 239.294 368.67 239.656 369.278L239.848 369.598C240.478 370.665 241.096 371.731 241.715 372.734C242.131 373.417 242.515 374.067 242.931 374.697C243.923 376.275 244.915 377.769 245.864 379.102C246.238 379.614 246.611 380.169 246.995 380.606C247.031 380.668 247.074 380.725 247.123 380.777C247.432 381.203 247.763 381.577 248.083 381.961L248.19 382.078C248.497 382.451 248.825 382.807 249.171 383.145C249.349 383.334 249.537 383.512 249.736 383.678C250.204 384.103 250.703 384.492 251.23 384.841C251.384 384.952 251.548 385.049 251.72 385.129C251.902 385.225 252.083 385.299 252.264 385.374C252.392 385.431 252.524 385.478 252.659 385.513C252.846 385.587 253.044 385.63 253.246 385.641C255.216 386.071 257.069 386.927 258.675 388.147L259.88 389.022C260.286 389.321 260.68 389.651 261.107 389.993C261.534 390.334 261.918 390.697 262.334 391.059C262.75 391.422 263.187 391.806 263.592 392.201C264.232 392.798 264.872 393.427 265.491 394.057C265.704 394.259 265.918 394.473 266.131 394.707C267.198 395.774 268.264 396.937 269.331 398.099C269.544 398.345 269.758 398.569 269.95 398.825C277.416 407.358 283.998 417.097 284.67 418.654C285.8 421.406 284.606 438.11 284.606 438.11Z" fill="#D3C3BF"/>
<path opacity="0.2" d="M251.711 385.106C246.533 384.751 241.338 384.733 236.159 385.053C226.565 385.638 216.942 385.559 207.359 384.818C202.996 384.626 207.796 374.311 215.625 370.215C221.859 366.817 227.778 362.869 233.311 358.418C240.329 370.183 246.527 382.407 251.711 385.106Z" fill="black"/>
<path opacity="0.2" d="M275.679 438.11H97.2148C106.324 430.643 127.764 413.939 138.751 413.577C152.938 413.118 167.007 428.382 183.604 421.449C200.202 414.515 223.466 404.734 234.719 405.129C255.882 405.854 271.551 423.102 275.679 438.11Z" fill="black"/>
<path opacity="0.5" d="M462.429 414.868C462.429 414.868 437.512 379.892 431.283 376.062C425.053 372.233 401.587 378.452 385.768 378.452C369.949 378.452 360.861 400.777 351.283 404.798C341.704 408.82 309.117 438.334 309.117 438.334H471.048L462.429 414.868Z" fill="#D3C3BF"/>
<path d="M462.429 414.868C462.429 414.868 437.512 379.892 431.283 376.062C425.053 372.233 401.587 378.452 385.768 378.452C369.949 378.452 360.861 400.777 351.283 404.798C341.704 408.82 309.117 438.335 309.117 438.335H471.048L462.429 414.868Z" fill="url(#paint3_linear_376_8381)"/>
<path opacity="0.1" d="M462.429 414.868C462.429 414.868 437.512 379.892 431.283 376.062C425.053 372.233 401.587 378.452 385.768 378.452C369.949 378.452 360.861 400.777 351.283 404.798C341.704 408.82 309.117 438.334 309.117 438.334H471.048L462.429 414.868Z" fill="#D3C3BF"/>
<path opacity="0.2" d="M471.048 438.332H309.117C309.117 438.332 310.184 437.382 311.933 435.804C320.157 434.737 338.664 432.038 343.667 428.998C350.152 425.041 381.384 421.094 397.192 423.601C413 426.108 412.275 401.692 420.189 395.217C425.011 391.27 428.061 382.001 429.683 375.398C430.245 375.542 430.783 375.765 431.283 376.06C437.523 379.889 462.429 414.865 462.429 414.865L471.048 438.332Z" fill="black"/>
<path d="M196.693 146.1V163.636C196.693 164.45 196.532 165.257 196.22 166.01C195.908 166.762 195.45 167.446 194.874 168.022C194.297 168.597 193.613 169.054 192.86 169.364C192.107 169.675 191.3 169.834 190.485 169.833H170.378C169.363 169.832 168.363 169.583 167.466 169.108L162.538 172.03L164.949 166.622C164.443 165.708 164.179 164.68 164.181 163.636V146.1C164.181 144.456 164.834 142.88 165.996 141.718C167.158 140.555 168.734 139.902 170.378 139.902H190.517C192.157 139.908 193.728 140.563 194.885 141.725C196.043 142.887 196.693 144.46 196.693 146.1Z" fill="#E1D6D3"/>
<path opacity="0.7" d="M196.693 146.1V163.636C196.693 164.45 196.532 165.257 196.22 166.01C195.908 166.762 195.45 167.446 194.874 168.022C194.297 168.597 193.613 169.054 192.86 169.364C192.107 169.675 191.3 169.834 190.485 169.833H170.378C169.363 169.832 168.363 169.583 167.466 169.108L162.538 172.03L164.949 166.622C164.443 165.708 164.179 164.68 164.181 163.636V146.1C164.181 144.456 164.834 142.88 165.996 141.718C167.158 140.555 168.734 139.902 170.378 139.902H190.517C192.157 139.908 193.728 140.563 194.885 141.725C196.043 142.887 196.693 144.46 196.693 146.1Z" fill="#E94F37"/>
<path d="M188.383 149.984L176.65 161.717L176.522 161.834C176.377 161.995 176.193 162.117 175.988 162.186C175.895 162.234 175.794 162.266 175.69 162.282C175.59 162.293 175.49 162.293 175.391 162.282C175.185 162.282 174.982 162.238 174.794 162.154C174.692 162.121 174.595 162.075 174.506 162.016C174.417 161.953 174.334 161.882 174.26 161.802L170.815 158.368C170.524 158.087 170.353 157.705 170.335 157.301C170.334 157.088 170.375 156.876 170.456 156.679C170.536 156.481 170.656 156.302 170.807 156.151C170.958 156 171.137 155.881 171.334 155.8C171.532 155.719 171.743 155.678 171.956 155.68C172.167 155.678 172.375 155.719 172.569 155.799C172.764 155.88 172.94 155.999 173.087 156.149L175.391 158.453L186.058 147.786C186.361 147.485 186.771 147.316 187.199 147.316C187.626 147.316 188.037 147.485 188.34 147.786C188.622 148.08 188.783 148.469 188.791 148.877C188.799 149.284 188.653 149.679 188.383 149.984Z" fill="#E1D6D3"/>
<path d="M142.771 456.277L142.729 471.755L148.979 472.267L152.083 457.781L142.771 456.277Z" fill="#FF8B7B"/>
<path d="M147.167 470.805C147.167 470.805 149.151 467.039 150.303 467.445C151.455 467.85 151.924 472.426 151.924 472.426C151.924 472.426 158.228 474.559 159.988 474.677C161.748 474.794 163.188 475.743 163.38 479.231L141.865 479.167C141.865 479.167 142.025 471.402 142.068 470.079C142.111 468.757 144.009 470.41 144.009 470.41L147.167 470.805Z" fill="#504643"/>
<path d="M142.121 473.026C142.507 473.237 142.845 473.525 143.115 473.873C143.384 474.221 143.579 474.62 143.687 475.047C143.795 475.473 143.814 475.917 143.743 476.351C143.672 476.786 143.512 477.2 143.273 477.57C143.25 477.607 143.243 477.651 143.253 477.693C143.263 477.735 143.289 477.771 143.326 477.794C143.363 477.816 143.407 477.824 143.449 477.814C143.491 477.804 143.528 477.777 143.55 477.74C143.812 477.335 143.988 476.881 144.068 476.406C144.148 475.93 144.13 475.443 144.016 474.975C143.901 474.506 143.691 474.066 143.401 473.682C143.11 473.297 142.743 472.976 142.324 472.738C142.153 472.62 141.94 472.919 142.121 473.026Z" fill="#D3C3BF"/>
<path d="M142.067 477.93L158.953 478.154H162.878C163.091 478.154 163.145 477.812 162.878 477.812L146.003 477.589L142.078 477.535C141.854 477.535 141.811 477.876 142.078 477.876L142.067 477.93Z" fill="#D3C3BF"/>
<path d="M150.997 473.782C151.156 473.527 151.367 473.308 151.616 473.14C151.865 472.972 152.147 472.859 152.443 472.808C152.739 472.756 153.043 472.768 153.334 472.842C153.625 472.916 153.897 473.051 154.133 473.238C154.293 473.366 154.506 473.067 154.346 472.939C154.066 472.739 153.749 472.597 153.413 472.522C153.076 472.447 152.729 472.441 152.39 472.504C152.051 472.567 151.729 472.697 151.442 472.887C151.155 473.077 150.909 473.324 150.72 473.611C150.57 473.792 150.848 473.963 150.997 473.782Z" fill="#D3C3BF"/>
<path d="M152.777 474.379C152.936 474.124 153.147 473.906 153.396 473.738C153.646 473.57 153.927 473.457 154.223 473.405C154.52 473.354 154.823 473.366 155.114 473.44C155.406 473.514 155.678 473.649 155.913 473.835C156.073 473.963 156.287 473.665 156.127 473.537C155.847 473.336 155.529 473.195 155.193 473.12C154.857 473.045 154.509 473.039 154.17 473.101C153.832 473.164 153.509 473.295 153.222 473.485C152.935 473.675 152.69 473.921 152.5 474.209C152.351 474.39 152.617 474.561 152.777 474.379Z" fill="#D3C3BF"/>
<path d="M154.611 474.914C154.77 474.657 154.981 474.437 155.231 474.268C155.481 474.099 155.764 473.985 156.062 473.934C156.359 473.882 156.664 473.895 156.956 473.97C157.249 474.045 157.522 474.181 157.757 474.37C157.917 474.498 158.12 474.199 157.96 474.071C157.681 473.871 157.364 473.729 157.029 473.655C156.694 473.58 156.347 473.574 156.009 473.637C155.671 473.699 155.35 473.83 155.063 474.02C154.777 474.21 154.533 474.456 154.344 474.743C154.184 474.925 154.461 475.095 154.611 474.914Z" fill="#D3C3BF"/>
<path d="M131.646 301.197C131.956 303.949 131.988 312.439 132.585 316.973C133.705 325.613 135.188 336.813 136.478 348.034C137.982 361.026 139.23 374.061 139.358 383.138C139.678 406.445 142.185 462.669 142.185 462.669L152.276 462.189C152.276 462.189 161.822 405.655 162.942 381.997C163.86 362.349 160.436 312.023 159.54 299.863L131.646 301.197Z" fill="#504643"/>
<path opacity="0.2" d="M132.584 316.971C133.704 325.611 135.187 336.811 136.477 348.032C140.744 333.099 135.048 311.094 135.048 311.094L132.584 316.971Z" fill="black"/>
<path d="M141.331 465.228L153.182 464.662L153.865 460.844L140.841 461.313L141.331 465.228Z" fill="#504643"/>
<path d="M89.428 453.965L87.8066 469.368L93.9826 470.52L98.5373 456.418L89.428 453.965Z" fill="#FF8B7B"/>
<path d="M92.3196 468.875C92.3196 468.875 94.645 465.323 95.7863 465.845C96.9276 466.368 96.853 470.976 96.853 470.976C96.853 470.976 102.901 473.728 104.64 474.027C106.378 474.325 107.69 475.456 107.562 478.901L86.1543 476.651C86.1543 476.651 87.1143 468.939 87.2956 467.627C87.477 466.315 89.1836 468.16 89.1836 468.16L92.3196 468.875Z" fill="#504643"/>
<path d="M87.0716 470.562C87.4343 470.812 87.7417 471.133 87.9745 471.507C88.2073 471.88 88.3606 472.298 88.4246 472.733C88.4887 473.169 88.4622 473.613 88.3469 474.038C88.2315 474.463 88.0298 474.859 87.7543 475.202C87.7288 475.236 87.7179 475.279 87.7239 475.321C87.7299 475.363 87.7523 475.401 87.7863 475.426C87.8202 475.452 87.8629 475.463 87.9049 475.457C87.9469 475.451 87.9848 475.428 88.0103 475.394C88.3133 475.019 88.5363 474.586 88.6655 474.121C88.7947 473.657 88.8273 473.17 88.7613 472.693C88.6954 472.215 88.5322 471.756 88.282 471.343C88.0317 470.931 87.6997 470.575 87.3063 470.296C87.1463 470.168 86.9009 470.434 87.0716 470.562Z" fill="#D3C3BF"/>
<path d="M86.5275 475.447L103.296 477.388L107.189 477.836C107.413 477.836 107.488 477.527 107.274 477.505L90.5062 475.553L86.6022 475.105C86.3889 475.105 86.3035 475.415 86.5275 475.447Z" fill="#D3C3BF"/>
<path d="M95.8175 472.246C96.0013 472.004 96.2346 471.804 96.5018 471.66C96.769 471.516 97.0639 471.43 97.3668 471.409C97.6697 471.388 97.9737 471.431 98.2584 471.537C98.543 471.643 98.8019 471.808 99.0175 472.022C99.1669 472.16 99.4016 471.894 99.2629 471.744C99.0047 471.516 98.7029 471.342 98.3758 471.233C98.0487 471.124 97.7029 471.082 97.3593 471.11C97.0156 471.138 96.6811 471.235 96.3758 471.395C96.0706 471.556 95.8009 471.776 95.5829 472.043C95.4229 472.203 95.6789 472.406 95.8389 472.246H95.8175Z" fill="#D3C3BF"/>
<path d="M97.5351 472.962C97.7248 472.728 97.9604 472.536 98.2272 472.398C98.4941 472.259 98.7866 472.177 99.0865 472.156C99.3865 472.135 99.6876 472.176 99.9712 472.276C100.255 472.376 100.515 472.533 100.735 472.738C100.884 472.887 101.119 472.62 100.98 472.471C100.722 472.242 100.42 472.068 100.093 471.959C99.7663 471.85 99.4205 471.809 99.0768 471.837C98.7331 471.864 98.3986 471.961 98.0934 472.122C97.7881 472.282 97.5184 472.502 97.3004 472.77C97.1298 472.93 97.3858 473.122 97.5564 472.962H97.5351Z" fill="#D3C3BF"/>
<path d="M99.3058 473.718C99.4896 473.476 99.7229 473.276 99.9901 473.132C100.257 472.988 100.552 472.902 100.855 472.881C101.158 472.859 101.462 472.903 101.747 473.009C102.031 473.115 102.29 473.28 102.506 473.494C102.655 473.632 102.89 473.366 102.751 473.216C102.494 472.988 102.193 472.814 101.867 472.705C101.54 472.596 101.196 472.555 100.853 472.583C100.51 472.611 100.176 472.707 99.872 472.868C99.5676 473.028 99.2988 473.248 99.0818 473.515C98.9111 473.675 99.1671 473.878 99.3271 473.718H99.3058Z" fill="#D3C3BF"/>
<path d="M121.79 386.029C116.649 409.175 98.0677 459.629 98.0677 459.629L88.041 458.38C88.041 458.38 98.1957 407.33 100.681 384.151C102.004 371.81 105.353 315.223 106.206 301.09L139.732 302.476C138.537 314.615 126.046 366.828 121.79 386.039V386.029Z" fill="#504643"/>
<path d="M87.1229 458.613L98.8882 460.085L100.222 456.437L87.1016 454.688L87.1229 458.613Z" fill="#504643"/>
<path d="M104.244 301.163C104.244 302.645 107.348 305.845 108.82 305.845L160.692 304.235C162.249 304.235 164.02 303.072 163.892 301.525C162.473 283.179 155.135 220.181 153.503 216.256C151.487 211.445 141.545 210.165 137.225 209.973C130.403 209.834 123.579 210.151 116.799 210.923C113.492 211.243 110.473 211.68 107.977 212.117C104.18 212.768 104.916 216.469 105.055 220.32C105.268 226.336 105.055 234.411 105.695 241.333C105.695 241.685 105.769 242.016 105.801 242.4C106.036 244.789 106.249 247.147 106.377 249.483C106.377 249.941 106.441 250.421 106.452 250.88C107.38 274.592 104.852 286.389 104.244 301.163Z" fill="#D3C3BF"/>
<path d="M125.183 306.145C118.271 306.903 99.924 307.361 99.7854 304.471C99.5507 299.649 104.532 265.964 104.831 259.255C104.831 258.188 104.905 256.844 104.927 255.18C104.927 252.108 104.927 248.108 104.927 243.809C104.799 230.433 104.425 214.188 104.425 214.188C104.425 214.188 104.66 210.497 120.809 210.508C120.809 210.508 125.769 229.9 126.751 247.137C127.732 264.375 127.519 305.847 125.183 306.145Z" fill="#504643"/>
<path d="M137.235 209.922C137.235 209.922 145.246 228.375 145.833 256.855C146.419 285.335 147.081 306.103 147.081 306.103C147.081 306.103 164.147 306.338 165.502 303.725C166.249 302.295 163.07 277.57 161.235 263.074C159.155 246.573 155.273 219.49 154.153 216.269C152.243 210.722 137.235 209.922 137.235 209.922Z" fill="#504643"/>
<path opacity="0.2" d="M113.033 231.949L104.927 255.181C104.927 252.109 104.927 248.109 104.927 243.811L113.033 231.949Z" fill="black"/>
<path d="M123.55 188.694C123.55 188.694 119.284 186.561 119.497 184.641C119.71 182.721 120.82 183.265 120.82 183.265C120.82 183.265 118.292 178.753 120.564 177.868C122.836 176.982 123.028 177.75 123.028 177.75C123.028 177.75 121.961 174.028 123.742 172.822C125.097 171.894 125.758 173.601 125.758 173.601C125.758 173.601 128.276 168.716 131.22 169.1C131.523 169.143 131.814 169.247 132.075 169.408C132.336 169.568 132.561 169.781 132.736 170.032C132.911 170.283 133.032 170.568 133.093 170.868C133.153 171.168 133.151 171.478 133.086 171.777C133.086 171.777 138.996 169.174 142.046 170.806C145.097 172.438 142.206 174.006 142.206 174.006C142.206 174.006 150.334 173.505 150.665 175.702C150.996 177.9 148.084 178.977 148.084 178.977C148.084 178.977 151.742 180.428 150.644 183.18C150.567 183.518 150.403 183.831 150.17 184.087C149.936 184.344 149.639 184.535 149.309 184.643C148.979 184.75 148.627 184.77 148.287 184.701C147.947 184.631 147.63 184.475 147.369 184.246C147.369 184.246 150.206 188.513 147.924 189.334C145.641 190.156 142.761 185.473 142.761 185.473L123.55 188.694Z" fill="#504643"/>
<path d="M136.094 174.327C134.187 173.937 132.22 173.943 130.315 174.345C128.411 174.747 126.609 175.536 125.022 176.663C122.953 178.167 121.267 180.258 121.715 182.946C122.868 188.523 124.332 194.032 126.099 199.447L145.843 186.082C145.843 186.082 148.681 182.231 143.71 177.548C142.099 176.012 138.942 174.882 136.094 174.327Z" fill="#504643"/>
<path d="M136.093 213.568C135.94 212.997 135.826 212.416 135.752 211.829C135.665 211.097 135.647 210.357 135.699 209.621L136.509 205.952C136.508 205.927 136.508 205.902 136.509 205.877L130.312 199.712L126.045 195.445C126.504 200.107 125.352 205.899 123.912 210.859C124.285 213.045 134.781 218.379 136.093 213.568Z" fill="#FF8B7B"/>
<path d="M133.29 215.51C130.677 214.134 127.786 210.443 124.917 206.977C124.06 207.243 123.3 207.755 122.731 208.449C122.163 209.143 121.81 209.988 121.717 210.881L124.607 219.158L133.29 215.51Z" fill="#D3C3BF"/>
<path d="M135.7 209.621C135.481 211.775 134.644 213.82 133.289 215.509L138.366 218.997L139.433 213.098C138.411 211.722 137.145 210.543 135.7 209.621Z" fill="#D3C3BF"/>
<g opacity="0.2">
<path d="M136.509 205.951L135.699 209.621C133.416 208.693 130.973 206.581 130.365 204.213C129.917 202.506 130.621 200.863 131.315 200.746L136.509 205.951Z" fill="black"/>
</g>
<path d="M145.269 197.962C145.098 198.762 144.885 199.552 144.671 200.33C142.687 207.2 134.346 208.16 128.938 203.381C128.448 202.946 127.992 202.476 127.573 201.973C124.085 197.706 124.778 194.378 124.97 186.762C124.996 184.994 125.473 183.262 126.356 181.73C127.239 180.198 128.5 178.917 130.017 178.009C131.534 177.1 133.259 176.595 135.026 176.54C136.794 176.485 138.546 176.883 140.117 177.696C146.591 181.045 147.082 189.973 145.269 197.962Z" fill="#FF8B7B"/>
<path d="M137.311 189.762C137.311 190.359 137.535 190.828 137.919 190.903C138.303 190.978 138.676 190.487 138.719 189.836C138.761 189.186 138.505 188.77 138.111 188.695C137.716 188.62 137.364 189.111 137.311 189.708" fill="#504643"/>
<path d="M140.51 199.18H140.713C140.743 199.177 140.772 199.168 140.799 199.154C140.826 199.139 140.849 199.119 140.867 199.095C140.885 199.071 140.898 199.043 140.904 199.013C140.911 198.984 140.911 198.953 140.905 198.924C140.895 198.865 140.862 198.813 140.815 198.777C140.767 198.742 140.708 198.725 140.649 198.732C140.211 198.793 139.765 198.764 139.338 198.647C138.912 198.531 138.513 198.329 138.167 198.053C137.821 197.778 137.534 197.435 137.325 197.046C137.115 196.656 136.987 196.228 136.948 195.788C136.944 195.758 136.934 195.73 136.919 195.705C136.904 195.68 136.883 195.658 136.859 195.641C136.835 195.624 136.808 195.612 136.779 195.606C136.75 195.6 136.72 195.6 136.692 195.606C136.662 195.61 136.634 195.62 136.608 195.635C136.582 195.65 136.56 195.67 136.542 195.694C136.524 195.718 136.511 195.745 136.504 195.774C136.497 195.803 136.495 195.833 136.5 195.862C136.605 196.828 137.083 197.716 137.832 198.335C138.581 198.955 139.542 199.257 140.51 199.18Z" fill="#504643"/>
<path d="M124.893 187.446C124.893 187.446 127.187 187.446 127.368 189.408C127.549 191.371 127.368 191.638 127.368 191.638H127.656C127.943 191.644 128.227 191.585 128.488 191.466C128.748 191.347 128.979 191.171 129.162 190.951C129.346 190.73 129.477 190.472 129.547 190.193C129.617 189.915 129.623 189.625 129.565 189.345C129.267 187.745 129.171 185.921 130.28 185.931C132.253 185.931 129.213 181.761 131.848 180.854C134.717 179.894 142.205 179.19 145.341 183.649C144.655 180.894 142.986 178.486 140.648 176.875C136.925 174.592 129.64 174.4 126.856 178.091C124.072 181.782 124.893 187.446 124.893 187.446Z" fill="#504643"/>
<path d="M121.309 191.508C121.495 192.437 121.862 193.32 122.389 194.107C122.916 194.894 123.593 195.57 124.381 196.095C126.515 197.482 128.328 195.775 128.381 193.364C128.381 191.231 127.315 187.882 124.936 187.455C124.4 187.36 123.848 187.404 123.333 187.582C122.819 187.76 122.358 188.067 121.995 188.473C121.632 188.878 121.378 189.37 121.258 189.901C121.138 190.433 121.156 190.986 121.309 191.508Z" fill="#FF8B7B"/>
<path d="M143.519 190.178C143.519 190.775 143.743 191.245 144.137 191.319C144.532 191.394 144.884 190.893 144.937 190.306C144.991 189.719 144.713 189.239 144.319 189.154C143.924 189.069 143.572 189.581 143.519 190.221" fill="#504643"/>
<path d="M145.684 188.717C145.631 188.71 145.581 188.689 145.539 188.655C145.498 188.621 145.467 188.576 145.449 188.525C145.387 188.321 145.284 188.132 145.146 187.969C145.009 187.806 144.84 187.672 144.649 187.576C144.251 187.424 143.81 187.424 143.412 187.576C143.337 187.604 143.254 187.602 143.18 187.57C143.106 187.539 143.048 187.479 143.017 187.405C143.002 187.368 142.994 187.329 142.994 187.288C142.994 187.248 143.003 187.209 143.019 187.172C143.035 187.135 143.058 187.102 143.087 187.074C143.116 187.046 143.15 187.025 143.188 187.011C143.737 186.799 144.345 186.799 144.895 187.011C145.15 187.143 145.376 187.325 145.56 187.547C145.743 187.769 145.88 188.025 145.961 188.301C145.989 188.375 145.987 188.457 145.955 188.528C145.923 188.6 145.864 188.657 145.791 188.685C145.757 188.703 145.721 188.714 145.684 188.717Z" fill="#504643"/>
<path d="M135.786 188.246C135.735 188.252 135.683 188.244 135.636 188.224C135.589 188.203 135.548 188.171 135.517 188.131C135.486 188.09 135.466 188.042 135.459 187.991C135.452 187.94 135.458 187.889 135.476 187.841C135.698 187.293 136.117 186.848 136.65 186.593C136.923 186.486 137.216 186.436 137.51 186.447C137.803 186.458 138.092 186.529 138.356 186.657C138.394 186.671 138.428 186.693 138.457 186.72C138.486 186.748 138.51 186.781 138.526 186.818C138.541 186.855 138.55 186.895 138.55 186.935C138.55 186.975 138.542 187.015 138.527 187.052C138.494 187.124 138.435 187.181 138.362 187.21C138.288 187.24 138.206 187.241 138.132 187.212C137.941 187.118 137.733 187.064 137.52 187.053C137.308 187.042 137.095 187.074 136.895 187.148C136.511 187.338 136.209 187.66 136.042 188.054C136.022 188.107 135.987 188.154 135.942 188.188C135.896 188.222 135.842 188.242 135.786 188.246Z" fill="#504643"/>
<path d="M140.724 190.816C141.536 192.424 142.249 194.081 142.857 195.776C142.985 196.47 140.724 196.566 140.724 196.566V190.816Z" fill="#FF5652"/>
<path d="M124.915 207.02C124.915 207.02 119.209 206.082 118.195 210.85L118.953 226.37L122.398 230.274L119.955 232.962L120.851 252.919L126.963 254.647C126.814 249.09 127.241 239.084 125.139 224.418C124.353 218.649 124.278 212.807 124.915 207.02Z" fill="#504643"/>
<path opacity="0.2" d="M124.915 207.02C124.915 207.02 119.209 206.082 118.195 210.85L118.953 226.37L122.398 230.274L119.955 232.962L120.851 252.919L126.963 254.647C126.814 249.09 127.241 239.084 125.139 224.418C124.353 218.649 124.278 212.807 124.915 207.02Z" fill="#D3C3BF"/>
<path d="M135.699 209.621C135.699 209.621 138.483 212.192 140.105 218.282C141.726 224.373 145.683 251.168 145.769 254.549L151.507 249.802L148.062 228.544L144.425 226.528L147.198 222.485C147.198 222.485 143.998 212.8 142.131 210.389C140.265 207.978 136.147 207.52 136.147 207.52L135.699 209.621Z" fill="#504643"/>
<path opacity="0.2" d="M135.699 209.621C135.699 209.621 138.483 212.192 140.105 218.282C141.726 224.373 145.683 251.168 145.769 254.549L151.507 249.802L148.062 228.544L144.425 226.528L147.198 222.485C147.198 222.485 143.998 212.8 142.131 210.389C140.265 207.978 136.147 207.52 136.147 207.52L135.699 209.621Z" fill="#D3C3BF"/>
<path d="M102.292 216.375C99.0923 222.509 96.2123 228.759 93.3536 235.031C91.9136 238.157 90.5269 241.314 89.0869 244.45L87.0176 249.154L85.9509 251.447L85.4389 252.514L85.1936 253.037C85.1083 253.218 85.0869 253.303 85.0229 253.442L84.8949 253.815L84.7989 254.114C84.7349 254.327 84.6816 254.509 84.6389 254.669L84.5109 255.149C84.2336 256.365 84.0949 257.282 83.9563 258.285C83.8176 259.287 83.7109 260.162 83.6256 261.069C83.4336 262.882 83.2736 264.653 83.1669 266.402C82.9429 269.933 82.7723 273.431 82.6869 276.919C82.4843 283.906 82.4416 290.85 82.6869 297.847C82.7191 298.809 83.104 299.724 83.7682 300.42C84.4324 301.115 85.3294 301.542 86.2881 301.619C87.2468 301.695 88.2001 301.416 88.9661 300.834C89.7322 300.253 90.2574 299.41 90.4416 298.466C91.7856 291.693 92.9696 284.877 94.1643 278.114C94.7829 274.743 95.3483 271.373 95.9883 268.055C96.3189 266.391 96.6283 264.749 96.9696 263.149C97.1403 262.349 97.3216 261.57 97.5029 260.823C97.6843 260.077 97.8869 259.362 98.0576 258.903L98.1216 258.765V258.701V258.775V258.882L98.0256 259.117V259.063L98.1109 258.903L98.3029 258.583L98.6656 257.933L99.9669 255.597L102.474 251.01C104.095 247.938 105.674 244.887 107.295 241.805C110.495 235.639 113.524 229.453 116.362 223.138C117.19 221.272 117.261 219.156 116.557 217.239C115.853 215.322 114.431 213.754 112.592 212.866C110.753 211.979 108.64 211.843 106.702 212.486C104.763 213.129 103.151 214.501 102.207 216.311L102.292 216.375Z" fill="#504643"/>
<path d="M74.9633 317.717L74.654 311.317C74.6511 311.265 74.6588 311.212 74.6767 311.162C74.6946 311.113 74.7223 311.067 74.7581 311.028C74.7939 310.989 74.8371 310.958 74.8852 310.936C74.9332 310.915 74.9852 310.903 75.038 310.901L78.5046 310.731L78.4513 309.664L74.9846 309.835C74.7969 309.844 74.6128 309.891 74.443 309.972C74.2732 310.052 74.1211 310.166 73.9952 310.306C73.8694 310.445 73.7723 310.609 73.7097 310.786C73.647 310.963 73.6199 311.151 73.63 311.339L73.9393 317.739L74.9633 317.717Z" fill="#504643"/>
<path d="M98.6125 310.185L98.9219 316.585L99.9885 316.532L99.6899 310.132C99.6678 309.753 99.4979 309.398 99.2167 309.142C98.9355 308.887 98.5654 308.752 98.1859 308.767L94.6445 308.937V310.004L98.1112 309.833C98.1676 309.819 98.2263 309.818 98.2834 309.828C98.3405 309.839 98.3947 309.862 98.4422 309.895C98.4898 309.928 98.5296 309.972 98.559 310.022C98.5883 310.072 98.6066 310.128 98.6125 310.185Z" fill="#504643"/>
<path d="M113.663 318.562L115.22 350.754C115.252 351.472 114.998 352.174 114.515 352.705C114.031 353.237 113.357 353.556 112.639 353.591L66.1747 355.842C65.4567 355.874 64.7552 355.62 64.2235 355.137C63.6919 354.653 63.3733 353.979 63.3374 353.261L61.78 321.069C61.7481 320.351 62.0017 319.649 62.4854 319.118C62.9691 318.586 63.6435 318.267 64.3614 318.231L110.825 315.991C111.542 315.957 112.244 316.208 112.776 316.69C113.308 317.172 113.627 317.845 113.663 318.562Z" fill="#504643"/>
<g opacity="0.5">
<path d="M113.663 318.562L115.22 350.754C115.252 351.472 114.998 352.174 114.515 352.705C114.031 353.237 113.357 353.556 112.639 353.591L66.1747 355.842C65.4567 355.874 64.7552 355.62 64.2235 355.137C63.6919 354.653 63.3733 353.979 63.3374 353.261L61.78 321.069C61.7481 320.351 62.0017 319.649 62.4854 319.118C62.9691 318.586 63.6435 318.267 64.3614 318.231L110.825 315.991C111.542 315.957 112.244 316.208 112.776 316.69C113.308 317.172 113.627 317.845 113.663 318.562Z" fill="#E94F37"/>
</g>
<path d="M106.679 316.198L104.623 316.297L106.436 353.896L108.492 353.797L106.679 316.198Z" fill="#504643"/>
<path d="M70.4967 317.936L68.4404 318.035L70.253 355.634L72.3093 355.535L70.4967 317.936Z" fill="#504643"/>
<path d="M89.876 299.914C89.876 299.914 93.556 307.253 93.268 308.97C92.98 310.687 90.58 307.658 90.58 307.658L89.876 299.914Z" fill="#FF8B7B"/>
<path d="M95.66 307.699L76.9404 308.602L77.1058 312.032L95.8254 311.13L95.66 307.699Z" fill="#504643"/>
<path opacity="0.3" d="M95.66 307.699L76.9404 308.602L77.1058 312.032L95.8254 311.13L95.66 307.699Z" fill="#D3C3BF"/>
<path d="M82.9957 299.116L80.7771 306.914C80.3611 309.132 87.5611 311.98 90.1957 309.964C92.3291 308.375 89.9824 299.596 89.9824 299.596C88.9458 298.951 87.7669 298.57 86.5488 298.486C85.3308 298.403 84.1108 298.619 82.9957 299.116Z" fill="#FF8B7B"/>
<path d="M80.7773 306.914C80.3507 309.378 80.8947 314.135 84.8093 314.434C85.6679 314.539 86.5371 314.521 87.3907 314.381C88.1724 314.663 89.0231 314.693 89.8227 314.466C91.7427 313.751 90.7827 308.866 90.7827 308.866L80.7773 306.914Z" fill="#FF8B7B"/>
<path d="M193.087 210.496C193.083 210.792 193.058 211.088 193.012 211.381C192.965 211.719 192.898 212.054 192.81 212.384C192.719 212.677 192.612 212.966 192.49 213.248C192.372 213.504 192.244 213.76 192.106 214.005C191.875 214.375 191.622 214.731 191.348 215.072C191.124 215.317 190.879 215.584 190.644 215.797C190.41 216.01 190.239 216.149 190.036 216.32L189.492 216.714C188.446 217.407 187.331 217.99 186.164 218.453C185.194 218.848 184.298 219.157 183.423 219.434C181.674 220 179.999 220.501 178.324 220.842C174.996 221.621 171.732 222.25 168.458 222.773C165.183 223.296 161.94 223.754 158.676 224.128L157.471 224.245C156.906 224.32 156.34 224.373 155.775 224.426C153.492 224.661 151.199 224.846 148.895 224.981L147.05 211.562C153.268 210.837 160.426 210.677 166.644 209.909C169.748 209.493 172.863 209.109 175.839 208.586C176.735 208.416 177.631 208.266 178.495 208.096C176.511 206.154 174.228 204.266 172.095 202.368C169.674 200.352 167.21 198.325 164.714 196.33C162.218 194.336 159.7 192.309 157.247 190.282L160.202 185.461C166.162 188.221 171.963 191.312 177.578 194.72C180.477 196.457 183.286 198.34 185.994 200.362C187.517 201.502 188.944 202.765 190.26 204.138C190.677 204.587 191.065 205.061 191.423 205.557C191.972 206.295 192.414 207.106 192.735 207.968C192.991 208.785 193.11 209.639 193.087 210.496Z" fill="#504643"/>
<path opacity="0.2" d="M157.47 224.246C156.905 224.321 156.34 224.374 155.774 224.427L154.654 217.75L157.47 224.246Z" fill="black"/>
<path d="M143.839 184.812C144.96 185.341 146.132 185.752 147.337 186.039C149.311 186.583 151.284 187.02 151.284 187.02C151.284 187.02 155.028 191.074 157.812 190.22C157.958 190.172 158.1 190.115 158.239 190.05C160.287 189.036 159.988 186.092 159.914 185.484C159.914 185.42 159.914 185.378 159.914 185.378C158.666 185.122 157.226 184.866 155.764 184.652C152.731 184.107 149.652 183.853 146.569 183.895C143.305 184.247 142.25 183.906 143.839 184.812Z" fill="#FF8B7B"/>
<path d="M130.291 216.781L134.387 224.184L136.072 217.421L133.288 215.512L130.291 216.781Z" fill="#504643"/>
<path d="M132.947 221.569L133.342 268.182L138.579 278.465L142.11 267.489L135.059 221.473L132.947 221.569Z" fill="#504643"/>
</g>
<defs>
<linearGradient id="paint0_linear_376_8381" x1="477.328" y1="185.257" x2="161.5" y2="199.814" gradientUnits="userSpaceOnUse">
<stop stop-color="#802B1E"/>
<stop offset="1" stop-color="#E94F37"/>
</linearGradient>
<linearGradient id="paint1_linear_376_8381" x1="386.102" y1="394.006" x2="257.516" y2="407.986" gradientUnits="userSpaceOnUse">
<stop stop-color="#802B1E"/>
<stop offset="1" stop-color="#E94F37"/>
</linearGradient>
<linearGradient id="paint2_linear_376_8381" x1="278.753" y1="331.309" x2="71.891" y2="346.151" gradientUnits="userSpaceOnUse">
<stop stop-color="#802B1E"/>
<stop offset="1" stop-color="#E94F37"/>
</linearGradient>
<linearGradient id="paint3_linear_376_8381" x1="466.032" y1="374.32" x2="304.581" y2="389.459" gradientUnits="userSpaceOnUse">
<stop stop-color="#802B1E"/>
<stop offset="1" stop-color="#E94F37"/>
</linearGradient>
<clipPath id="clip0_376_8381">
<rect width="533.333" height="533.333" fill="white" transform="translate(0.777344 0.777344)"/>
</clipPath>
</defs>
</svg>
