<svg width="464" height="463" viewBox="0 0 464 463" fill="none" xmlns="http://www.w3.org/2000/svg">
<path d="M401.747 102.695C400.33 100.328 398.85 98.0081 397.31 95.734C376.759 65.5416 342.555 44.8896 309.312 35.5157C294.82 31.4855 279.898 29.2013 264.865 28.7118C166.957 25.1527 130.986 105.875 99.4444 126.703C67.9024 147.531 19.4892 183.094 25.5628 257.752C30.1851 314.532 62.4759 368.833 121.474 393.535C128.139 396.332 134.979 398.694 141.95 400.607C156.069 404.429 170.572 406.658 185.187 407.253C229.791 409.241 266.011 398.48 301.436 371.413C309.672 365.117 317.863 358.017 328.549 357.241C336.324 356.677 343.683 359.46 335.566 366.975C326.026 375.794 337.036 393.146 361.256 381.092C401.719 360.957 418.359 317.508 426.199 273.329C435.822 219.092 431.163 151.663 401.747 102.695Z" fill="#504643"/>
<path opacity="0.7" d="M401.747 102.695C400.33 100.328 398.85 98.0081 397.31 95.734C376.759 65.5416 342.555 44.8896 309.312 35.5157C294.82 31.4855 279.898 29.2013 264.865 28.7118C166.957 25.1527 130.986 105.875 99.4444 126.703C67.9024 147.531 19.4892 183.094 25.5628 257.752C30.1851 314.532 62.4759 368.833 121.474 393.535C128.139 396.332 134.979 398.694 141.95 400.607C156.069 404.429 170.572 406.658 185.187 407.253C229.791 409.241 266.011 398.48 301.436 371.413C309.672 365.117 317.863 358.017 328.549 357.241C336.324 356.677 343.683 359.46 335.566 366.975C326.026 375.794 337.036 393.146 361.256 381.092C401.719 360.957 418.359 317.508 426.199 273.329C435.822 219.092 431.163 151.663 401.747 102.695Z" fill="#BEA6A0"/>
<path d="M139.5 355.743C137.059 356.51 131.374 355.743 131.374 355.743C131.374 355.743 133.01 352.147 133.14 351.934C134.674 349.457 139.102 345.574 142.273 346.387C142.795 346.533 143.281 346.787 143.698 347.133C144.116 347.478 144.456 347.908 144.696 348.393C144.937 348.879 145.073 349.41 145.095 349.951C145.117 350.493 145.025 351.033 144.825 351.537C144.039 353.7 141.58 355.096 139.5 355.743Z" fill="#191919"/>
<path d="M86.5478 354.154C86.4923 354.154 85.9284 350.262 85.9192 350.003C85.836 347.091 87.3891 341.415 90.4675 340.324C90.9834 340.157 91.5287 340.101 92.0679 340.159C92.6071 340.217 93.128 340.388 93.5965 340.661C94.065 340.934 94.4706 341.303 94.7869 341.744C95.1031 342.184 95.3229 342.687 95.4317 343.218C95.9771 345.455 94.6922 347.979 93.324 349.689C91.7062 351.649 86.5478 354.154 86.5478 354.154Z" fill="#191919"/>
<path d="M87.537 396.114C89.4414 396.355 93.2131 395.282 94.267 394.968C94.4426 396.595 94.646 398.194 94.9326 399.766C95.062 400.441 95.1545 401.143 95.3209 401.781C95.4873 402.419 95.6352 403.075 95.7831 403.713C96.1436 405.017 96.4672 406.228 96.8369 407.411C97.0126 408.031 97.1975 408.594 97.3824 409.186C96.9294 408.262 96.1898 406.783 96.1066 406.653C94.7015 404.508 90.7356 401.19 87.9715 401.948C87.5161 402.085 87.0946 402.317 86.7346 402.628C86.3746 402.939 86.084 403.323 85.8817 403.753C85.6795 404.184 85.57 404.652 85.5606 405.128C85.5511 405.604 85.6418 406.076 85.8268 406.514C86.5571 408.363 88.7573 409.584 90.5969 410.111C92.6215 410.693 97.0681 410.055 97.6227 409.972C98.0849 411.414 98.5472 412.819 98.9909 414.123C99.2867 414.982 99.5733 415.787 99.8506 416.572H101.7C101.33 415.648 100.951 414.622 100.553 413.549C100.156 412.477 99.6842 411.137 99.2405 409.852C99.7397 409.639 103.604 408.003 105.157 406.496C106.387 407.259 107.662 407.948 108.975 408.557C108.55 410.018 108.161 411.442 107.819 412.773C107.477 414.104 107.163 415.371 106.895 416.572H108.744C108.975 415.491 109.225 414.381 109.502 413.18C109.779 411.978 110.112 410.684 110.426 409.371C110.972 409.473 115.4 410.295 117.443 409.796C119.292 409.343 121.547 408.243 122.342 406.385C122.54 405.956 122.647 405.491 122.655 405.019C122.663 404.547 122.572 404.078 122.388 403.643C122.205 403.208 121.932 402.816 121.588 402.492C121.245 402.168 120.837 401.92 120.392 401.763C117.618 400.903 113.56 404.055 112.072 406.145C111.979 406.283 111.036 407.994 110.574 408.863C110.778 408.067 110.99 407.282 111.221 406.459C111.545 405.276 111.924 404.028 112.294 402.826L112.932 400.977C113.135 400.33 113.412 399.747 113.653 399.128C114.022 398.204 114.448 397.279 114.873 396.355C116.056 396.752 119.56 397.88 121.409 397.723C123.258 397.566 125.698 396.799 126.77 395.098C127.038 394.702 127.219 394.255 127.302 393.786C127.385 393.316 127.369 392.834 127.254 392.371C127.139 391.908 126.928 391.475 126.634 391.099C126.341 390.723 125.971 390.413 125.55 390.189C122.971 388.922 118.45 391.427 116.666 393.267C116.602 393.323 116.269 393.748 115.871 394.266C116.315 393.341 116.796 392.491 117.23 391.612C118.58 389.116 120.004 386.62 121.483 384.106L122.407 382.534C123.405 382.876 127.196 384.124 129.128 383.958C131.06 383.792 133.417 383.034 134.49 381.333C134.757 380.938 134.938 380.492 135.021 380.023C135.104 379.554 135.087 379.073 134.972 378.611C134.857 378.148 134.646 377.716 134.353 377.34C134.059 376.965 133.69 376.656 133.269 376.433C130.69 375.166 126.17 377.663 124.385 379.502C124.321 379.567 123.914 380.085 123.461 380.658C124.228 379.28 124.977 377.884 125.68 376.507C126.893 374.114 127.946 371.644 128.832 369.111C129.183 369.241 133.593 370.803 135.738 370.609C137.651 370.443 140.027 369.685 141.109 367.984C141.375 367.589 141.556 367.142 141.638 366.672C141.721 366.203 141.703 365.722 141.587 365.259C141.471 364.797 141.259 364.364 140.965 363.99C140.671 363.615 140.301 363.306 139.879 363.084C137.309 361.818 132.779 364.314 130.995 366.153C130.866 366.283 129.433 368.141 128.943 368.825V368.742C129.757 366.239 130.342 363.668 130.69 361.059C131.021 358.737 131.212 356.397 131.263 354.052C131.337 351.871 131.263 349.883 131.199 348.117C131.152 347.193 131.088 346.268 131.023 345.473H131.069C131.069 345.473 132.271 342.21 132.317 341.997C132.881 339.501 132.502 334.343 130.034 332.873C129.617 332.643 129.156 332.502 128.682 332.462C128.207 332.421 127.73 332.481 127.28 332.637C126.83 332.793 126.418 333.042 126.07 333.368C125.723 333.693 125.448 334.089 125.264 334.528C124.413 336.377 125.088 338.762 125.994 340.454C126.9 342.145 130.089 344.706 130.884 345.325C130.94 346.176 130.986 347.082 131.014 348.099C131.014 349.864 131.069 351.852 130.949 354.024C130.949 354.598 130.866 355.217 130.82 355.818C130.681 354.792 130.477 353.377 130.44 353.248C129.793 350.77 127.076 346.361 124.219 346.204C123.739 346.189 123.261 346.276 122.817 346.459C122.373 346.643 121.973 346.918 121.644 347.268C121.314 347.617 121.063 348.033 120.906 348.487C120.749 348.941 120.69 349.423 120.734 349.901C120.826 351.926 122.537 353.747 124.117 354.829C125.698 355.91 129.849 356.742 130.746 356.899C130.625 358.231 130.468 359.599 130.228 361.013C129.84 363.584 129.221 366.115 128.379 368.575H128.222C128.222 367.651 128.139 365.589 128.12 365.423C127.741 362.881 125.532 358.203 122.703 357.731C122.231 357.666 121.75 357.701 121.293 357.834C120.835 357.967 120.411 358.195 120.047 358.503C119.684 358.811 119.389 359.192 119.182 359.621C118.976 360.05 118.862 360.518 118.848 360.995C118.709 363.019 120.216 365.007 121.621 366.264C123.295 367.697 127.963 369.037 128.139 369.102C127.223 371.52 126.152 373.877 124.931 376.156C124.006 377.847 123.082 379.53 122.065 381.203C122.065 380.528 121.982 377.866 121.954 377.672C121.584 375.139 119.375 370.461 116.546 369.99C116.08 369.934 115.608 369.976 115.159 370.112C114.71 370.249 114.294 370.476 113.937 370.781C113.58 371.086 113.29 371.461 113.085 371.883C112.88 372.305 112.765 372.766 112.747 373.234C112.617 375.25 114.115 377.247 115.566 378.495C117.193 379.9 121.668 381.212 122.037 381.323C121.584 382.081 121.113 382.849 120.669 383.607C119.172 386.084 117.655 388.552 116.241 391.048C115.751 391.908 115.317 392.777 114.836 393.646C114.836 392.629 114.762 390.78 114.734 390.623C114.364 388.09 112.155 383.413 109.326 382.932C108.854 382.867 108.373 382.902 107.915 383.035C107.457 383.167 107.032 383.395 106.667 383.703C106.303 384.011 106.007 384.392 105.8 384.821C105.592 385.25 105.477 385.718 105.462 386.195C105.333 388.22 106.83 390.207 108.235 391.464C109.641 392.722 113.421 393.896 114.475 394.238C113.727 395.689 113.015 397.141 112.386 398.601C112.118 399.239 111.813 399.877 111.6 400.506C111.388 401.134 111.147 401.754 110.916 402.354C110.5 403.639 110.103 404.832 109.742 406.052C109.557 406.662 109.4 407.235 109.225 407.836C109.363 406.801 109.557 405.165 109.557 405.017C109.557 402.447 108.097 397.492 105.37 396.595C104.913 396.459 104.433 396.42 103.961 396.481C103.488 396.543 103.034 396.703 102.628 396.951C102.221 397.2 101.872 397.531 101.602 397.924C101.332 398.316 101.148 398.761 101.062 399.23C101.008 399.476 100.977 399.727 100.969 399.979C99.7339 401.865 98.999 404.035 98.8337 406.283C98.8337 406.44 98.9817 408.391 99.0833 409.38C98.8153 408.604 98.5564 407.827 98.2976 407.014C97.9093 405.849 97.5488 404.601 97.1882 403.39L96.689 401.476C96.5041 400.829 96.4025 400.182 96.2638 399.535C96.0697 398.61 95.9125 397.566 95.7646 396.567C96.9756 396.253 100.525 395.255 101.977 394.108C103.428 392.962 105.046 390.984 105 388.959C105.004 388.485 104.909 388.016 104.721 387.581C104.533 387.145 104.256 386.755 103.908 386.433C103.559 386.112 103.147 385.867 102.699 385.715C102.25 385.562 101.774 385.505 101.302 385.548C98.4547 385.899 96.0604 390.485 95.5797 393.008C95.5797 393.091 95.5242 393.628 95.478 394.275C95.3578 393.295 95.2377 392.315 95.1452 391.317C94.8956 388.488 94.7292 385.603 94.5536 382.71C94.5536 382.109 94.4704 381.499 94.4334 380.861C95.4503 380.602 99.3052 379.558 100.821 378.347C102.337 377.136 103.9 375.222 103.853 373.197C103.857 372.724 103.761 372.255 103.572 371.821C103.384 371.386 103.106 370.996 102.758 370.675C102.41 370.354 101.999 370.109 101.551 369.956C101.103 369.803 100.627 369.745 100.156 369.786C97.3084 370.147 94.9141 374.732 94.4334 377.246C94.4334 377.339 94.3687 377.986 94.3132 378.716C94.193 377.145 94.0544 375.573 93.8695 374.029C93.5561 371.372 93.0681 368.738 92.4089 366.144C92.7694 366.051 97.3084 364.914 98.9909 363.574C100.489 362.381 102.069 360.449 102.023 358.425C102.026 357.951 101.93 357.482 101.742 357.048C101.553 356.614 101.276 356.223 100.928 355.902C100.58 355.581 100.169 355.336 99.7204 355.183C99.2722 355.03 98.7971 354.972 98.3253 355.014C95.478 355.374 93.0837 359.959 92.603 362.474C92.603 362.659 92.3996 364.998 92.3626 365.839C92.3669 365.808 92.3669 365.777 92.3626 365.746C91.6642 363.202 90.7359 360.727 89.5893 358.351C88.5777 356.232 87.4449 354.173 86.1966 352.185C85.0503 350.336 83.8947 348.7 82.8593 347.267C82.2954 346.49 81.7685 345.797 81.2601 345.159H81.3155C81.3155 345.159 80.5113 341.785 80.3911 341.581C79.4666 339.187 76.3235 335.11 73.4577 335.231C72.9824 335.268 72.5202 335.405 72.1011 335.632C71.682 335.86 71.3155 336.173 71.0252 336.551C70.7349 336.929 70.5274 337.365 70.4162 337.828C70.3049 338.292 70.2924 338.774 70.3793 339.243C70.6844 341.239 72.5795 342.866 74.262 343.782C75.9445 344.697 80.0306 345.067 81.0289 345.141C81.5466 345.825 82.0828 346.555 82.656 347.378C83.6544 348.829 84.7729 350.475 85.873 352.342C86.1596 352.841 86.4554 353.396 86.7513 353.923C86.0672 353.137 85.1242 352.074 85.0133 351.981C83.1089 350.271 78.4128 348.09 75.9445 349.541C75.5375 349.79 75.1874 350.121 74.9169 350.514C74.6463 350.907 74.4615 351.353 74.3743 351.822C74.2871 352.291 74.2996 352.773 74.4108 353.237C74.5221 353.701 74.7296 354.136 75.0201 354.514C76.2126 356.151 78.6439 356.724 80.5667 356.761C82.4896 356.798 86.4 355.189 87.2412 354.838C87.8791 356.012 88.4985 357.232 89.0901 358.536C90.1722 360.919 91.0385 363.394 91.6785 365.931L91.5306 365.996C90.9852 365.201 89.8112 363.546 89.6817 363.426C87.9715 361.512 83.5527 358.804 80.9273 359.996C80.498 360.204 80.1171 360.499 79.8092 360.862C79.5013 361.226 79.2733 361.651 79.14 362.108C79.0066 362.566 78.9709 363.046 79.0351 363.519C79.0994 363.991 79.2621 364.444 79.5129 364.85C80.5113 366.606 82.8686 367.447 84.7637 367.688C86.9546 367.965 91.5861 366.514 91.7617 366.458C92.3487 368.995 92.7687 371.567 93.019 374.159C93.2039 376.072 93.3148 378.005 93.4073 379.955C93.0467 379.382 91.5029 377.182 91.3735 377.071C89.6633 375.157 85.2444 372.449 82.619 373.641C82.1898 373.848 81.8089 374.143 81.501 374.507C81.1931 374.871 80.9651 375.296 80.8317 375.753C80.6984 376.211 80.6626 376.691 80.7269 377.163C80.7911 377.636 80.9539 378.089 81.2046 378.495C82.203 380.251 84.5603 381.092 86.4554 381.333C88.5909 381.61 93.0467 380.232 93.4165 380.112C93.4165 381.037 93.5089 381.878 93.5367 382.765C93.6569 385.659 93.7586 388.562 93.9434 391.418C94.0082 392.417 94.1098 393.387 94.2115 394.367C93.6384 393.526 92.566 392.019 92.4551 391.899C90.7449 389.985 86.326 387.277 83.7006 388.478C83.2706 388.684 82.8888 388.977 82.5801 389.34C82.2715 389.703 82.0429 390.127 81.9094 390.584C81.7759 391.041 81.7404 391.522 81.8054 391.994C81.8703 392.465 82.0341 392.918 82.2862 393.323C83.2846 395.033 85.6419 395.874 87.537 396.114Z" fill="#191919"/>
<path d="M277.908 121.582C275.442 120.288 273.137 117.946 270.993 114.556C268.765 110.952 267.637 106.775 267.748 102.539C267.748 98.0766 268.937 94.727 271.316 92.4898C273.695 90.2527 277.19 88.5579 281.8 87.4054L298.652 83.3286C305.863 81.4797 309.465 78.0223 309.459 72.9563C309.459 70.22 308.128 67.8411 305.465 65.8196C302.803 63.7982 298.227 62.7905 291.737 62.7967C286.111 62.7595 280.509 63.5221 275.097 65.0616C270.694 66.2392 266.475 68.0219 262.562 70.3586C260.092 68.4696 257.971 66.164 256.294 63.5455C254.504 60.6616 253.6 57.3151 253.696 53.922C253.651 50.3844 254.801 46.9351 256.96 44.1322C259.352 41.1429 262.428 38.7715 265.927 37.2173C270.26 35.2624 274.842 33.9154 279.544 33.2145C285.299 32.3153 291.117 31.8825 296.942 31.9202C313.933 31.8956 326.798 35.6581 335.537 43.2077C344.277 50.7573 348.634 60.6643 348.609 72.9286C348.609 95.9842 332.327 110.754 299.761 117.237L277.908 121.582ZM270.771 149.898C270.771 143.994 272.62 139.131 276.318 135.31C280.015 131.489 285.097 129.579 291.562 129.579C298.039 129.579 303.117 131.489 306.796 135.31C310.476 139.131 312.325 143.994 312.343 149.898C312.343 155.814 310.494 160.677 306.796 164.486C303.099 168.294 298.02 170.205 291.562 170.217C285.072 170.217 279.991 168.307 276.318 164.486C272.644 160.665 270.796 155.802 270.771 149.898Z" fill="#191919"/>
<path d="M291.525 170.679C284.943 170.679 279.701 168.7 275.948 164.808C272.194 160.916 270.309 155.906 270.309 149.897C270.309 143.888 272.204 138.878 275.948 134.986C279.692 131.094 284.943 129.116 291.525 129.116C298.107 129.116 303.348 131.094 307.092 134.986C310.836 138.878 312.731 143.897 312.731 149.897C312.731 155.897 310.836 160.926 307.092 164.808C303.348 168.691 298.107 170.679 291.525 170.679ZM291.525 130.003C285.201 130.003 280.182 131.852 276.613 135.55C273.045 139.247 271.233 144.064 271.233 149.814C271.233 155.564 273.082 160.371 276.613 164.087C280.145 167.804 285.201 169.634 291.525 169.634C297.848 169.634 302.858 167.785 306.427 164.087C309.995 160.389 311.807 155.573 311.807 149.814C311.807 144.055 310.004 139.349 306.427 135.651C302.849 131.954 297.848 130.04 291.525 130.04V130.003ZM277.908 122.007C277.83 122.006 277.754 121.987 277.686 121.951C275.18 120.629 272.795 118.253 270.595 114.768C268.337 111.092 267.188 106.842 267.286 102.528C267.286 97.9525 268.534 94.4581 270.983 92.1377C273.433 89.8174 277.011 88.1164 281.679 86.9516L298.56 82.8748C305.585 81.0259 309.006 77.7996 309.006 72.9555C309.006 70.3856 307.73 68.1022 305.197 66.1886C302.664 64.275 298.097 63.2581 291.746 63.2581C286.165 63.2243 280.606 63.9806 275.236 65.5045C270.877 66.6753 266.7 68.439 262.821 70.7461C262.741 70.7982 262.648 70.826 262.552 70.826C262.457 70.826 262.364 70.7982 262.284 70.7461C259.779 68.8216 257.624 66.4792 255.915 63.822C254.08 60.856 253.158 57.4164 253.262 53.9305C253.203 50.2796 254.379 46.716 256.599 43.817C259.028 40.7625 262.154 38.3344 265.714 36.7358C270.086 34.7644 274.708 33.405 279.451 32.696C285.231 31.794 291.074 31.3581 296.923 31.3925C313.961 31.3925 327.042 35.2474 335.815 42.8556C344.588 50.4638 349.044 60.5957 349.044 72.9278C349.044 96.1221 332.487 111.181 299.826 117.689L277.991 122.007H277.908ZM291.774 62.2967C298.328 62.2967 303.043 63.3413 305.78 65.4121C308.516 67.4828 309.958 70.0343 309.958 72.9185C309.958 78.1694 306.214 81.8117 298.809 83.7345L281.92 87.8853C277.408 89.0131 273.942 90.6586 271.64 92.8496C269.338 95.0405 268.219 98.2483 268.219 102.565C268.119 106.706 269.22 110.787 271.39 114.315C273.452 117.551 275.67 119.862 277.991 121.101L299.66 116.811C331.821 110.405 348.128 95.6506 348.128 72.9555C348.128 60.9377 343.783 51.0185 335.186 43.5767C326.589 36.1349 313.711 32.3447 296.905 32.3447C291.105 32.3072 285.311 32.74 279.581 33.6389C274.922 34.3329 270.38 35.6642 266.084 37.5955C262.654 39.1234 259.639 41.45 257.292 44.3809C255.209 47.1226 254.115 50.4881 254.186 53.9305C254.093 57.2317 254.97 60.4878 256.71 63.2951C258.304 65.767 260.3 67.9544 262.617 69.7662C266.496 67.5005 270.659 65.7596 274.996 64.5893C280.442 63.0511 286.078 62.2917 291.737 62.3337L291.774 62.2967Z" fill="#191919"/>
<path d="M201.576 268.695L203.407 416.736H275.818L269.865 270.526L201.576 268.695Z" fill="#191919"/>
<path d="M275.819 417.2H203.407C203.284 417.2 203.167 417.151 203.08 417.065C202.993 416.978 202.945 416.86 202.945 416.738L201.096 268.697C201.1 268.573 201.149 268.455 201.234 268.364C201.279 268.32 201.333 268.286 201.392 268.264C201.451 268.241 201.514 268.232 201.576 268.235L269.865 270.084C269.982 270.088 270.094 270.136 270.177 270.218C270.261 270.3 270.311 270.411 270.318 270.528L276.281 416.682C276.285 416.744 276.275 416.805 276.253 416.863C276.23 416.92 276.196 416.972 276.151 417.015C276.113 417.069 276.063 417.113 276.006 417.145C275.948 417.177 275.884 417.196 275.819 417.2ZM203.86 416.276H275.338L269.421 270.981L202.039 269.132L203.86 416.276Z" fill="#191919"/>
<path d="M201.576 215.809L203.407 363.849H275.818L269.865 217.639L201.576 215.809Z" fill="#BEA6A0"/>
<path d="M275.819 364.314H203.407C203.284 364.314 203.167 364.265 203.08 364.178C202.993 364.091 202.945 363.974 202.945 363.851L201.096 215.82C201.096 215.695 201.146 215.575 201.234 215.487C201.277 215.44 201.33 215.403 201.39 215.379C201.449 215.355 201.513 215.344 201.576 215.349L269.865 217.197C269.982 217.197 270.095 217.242 270.179 217.323C270.263 217.404 270.313 217.515 270.318 217.632L276.272 363.842C276.276 363.905 276.266 363.968 276.244 364.027C276.221 364.086 276.187 364.14 276.142 364.184C276.055 364.267 275.939 364.313 275.819 364.314ZM203.86 363.389H275.338L269.421 218.094L202.039 216.245L203.86 363.389Z" fill="#191919"/>
<path d="M226.767 231.775L234.311 244.347L221.119 339.232L241.013 359.135L254.002 334.212L239.127 244.976L246.671 234.714L238.295 221.301L226.767 231.775Z" fill="#191919"/>
<path d="M241.013 359.597C240.952 359.598 240.892 359.586 240.837 359.562C240.781 359.538 240.731 359.503 240.689 359.459L220.786 339.565C220.736 339.512 220.698 339.449 220.676 339.381C220.654 339.312 220.647 339.239 220.657 339.167L233.849 244.439L226.398 232.015C226.34 231.924 226.316 231.815 226.332 231.708C226.347 231.601 226.4 231.504 226.481 231.432L237.999 220.958C238.052 220.915 238.112 220.883 238.177 220.864C238.243 220.845 238.311 220.839 238.378 220.847C238.445 220.857 238.508 220.881 238.564 220.917C238.62 220.954 238.667 221.003 238.702 221.06L247.077 234.465C247.129 234.541 247.157 234.631 247.157 234.723C247.157 234.816 247.129 234.906 247.077 234.982L239.682 245.086L254.519 334.129C254.536 334.23 254.52 334.334 254.473 334.425L241.531 359.385C241.497 359.449 241.448 359.504 241.388 359.546C241.329 359.588 241.261 359.615 241.189 359.625L241.013 359.597ZM221.6 339.075L240.884 358.359L253.511 334.129L238.665 245.049C238.646 244.926 238.676 244.8 238.748 244.698L246.144 234.686L238.221 222.021L227.377 231.867L234.773 244.106C234.826 244.199 234.849 244.306 234.838 244.412L221.6 339.075Z" fill="#191919"/>
<path d="M234.311 244.346L234.025 246.426L242.437 240.473L246.671 234.713L242.631 228.242L230.013 237.172L234.311 244.346Z" fill="#504643"/>
<path d="M234.024 246.89C233.939 246.888 233.856 246.863 233.784 246.817C233.707 246.771 233.645 246.703 233.606 246.623C233.567 246.543 233.551 246.452 233.562 246.364L233.83 244.441L229.615 237.415C229.551 237.315 229.529 237.195 229.554 237.079C229.578 236.963 229.646 236.861 229.744 236.796L242.363 227.875C242.468 227.801 242.597 227.771 242.724 227.791C242.785 227.805 242.842 227.831 242.893 227.867C242.944 227.904 242.987 227.95 243.019 228.004L247.059 234.475C247.111 234.552 247.138 234.642 247.138 234.734C247.138 234.826 247.111 234.916 247.059 234.993L242.834 240.752C242.802 240.791 242.765 240.825 242.724 240.854L234.311 246.807C234.227 246.864 234.126 246.893 234.024 246.89ZM230.623 237.341L234.709 244.145C234.762 244.237 234.784 244.344 234.773 244.45L234.625 245.467L242.113 240.179L246.116 234.725L242.502 228.947L230.623 237.341Z" fill="#191919"/>
<path d="M229.947 275.751L242.751 266.691L240.948 255.875L231.805 262.337L229.947 275.751Z" fill="#504643"/>
<path d="M229.947 276.168C229.863 276.17 229.779 276.147 229.707 276.103C229.631 276.057 229.57 275.989 229.53 275.909C229.491 275.829 229.476 275.739 229.485 275.65L231.334 262.237C231.343 262.174 231.365 262.113 231.398 262.059C231.432 262.005 231.476 261.958 231.528 261.922L240.662 255.451C240.725 255.406 240.8 255.378 240.878 255.37C240.955 255.362 241.034 255.374 241.105 255.405C241.177 255.436 241.24 255.484 241.289 255.546C241.337 255.607 241.369 255.679 241.383 255.756L243.185 266.572C243.199 266.657 243.189 266.745 243.156 266.825C243.124 266.904 243.07 266.974 243.001 267.025L230.216 276.168C230.128 276.193 230.035 276.193 229.947 276.168ZM232.24 262.569L230.548 274.717L242.243 266.397L240.616 256.597L232.24 262.569Z" fill="#191919"/>
<path d="M241.383 358.423L251.357 339.277L233.673 351.794L240.754 358.876L241.383 358.423Z" fill="#504643"/>
<path d="M240.753 359.366C240.628 359.365 240.509 359.316 240.421 359.227L233.349 352.146C233.299 352.099 233.261 352.041 233.237 351.977C233.213 351.913 233.204 351.844 233.21 351.776C233.216 351.71 233.236 351.645 233.27 351.588C233.303 351.53 233.349 351.481 233.404 351.443L251.089 338.935C251.17 338.871 251.271 338.836 251.375 338.836C251.479 338.836 251.58 338.871 251.662 338.935C251.739 339.003 251.791 339.094 251.81 339.195C251.828 339.296 251.812 339.4 251.764 339.49L241.798 358.635C241.762 358.701 241.711 358.758 241.65 358.802L241.022 359.246C240.949 359.316 240.854 359.359 240.753 359.366ZM234.384 351.868L240.8 358.284L241.022 358.127L250.063 340.784L234.384 351.868Z" fill="#191919"/>
<path d="M244.887 279.523L227.729 291.661L225.871 305.066L246.69 290.339L244.887 279.523Z" fill="#504643"/>
<path d="M225.87 305.527C225.785 305.529 225.702 305.507 225.63 305.462C225.551 305.416 225.488 305.347 225.449 305.265C225.409 305.183 225.395 305.091 225.408 305L227.257 291.596C227.275 291.471 227.341 291.358 227.442 291.281L244.599 279.153C244.663 279.106 244.738 279.076 244.816 279.066C244.894 279.056 244.974 279.067 245.047 279.096C245.121 279.126 245.185 279.174 245.234 279.236C245.284 279.297 245.317 279.371 245.33 279.449L247.123 290.265C247.141 290.35 247.133 290.439 247.1 290.52C247.067 290.6 247.011 290.669 246.938 290.718L226.12 305.444C226.046 305.494 225.959 305.523 225.87 305.527ZM228.163 291.882L226.452 304.076L246.171 290.126L244.535 280.327L228.163 291.882Z" fill="#191919"/>
<path d="M249.684 308.301L222.774 327.335L221.119 339.233L221.914 340.028L251.487 319.117L249.684 308.301Z" fill="#504643"/>
<path d="M221.914 340.487C221.853 340.489 221.792 340.478 221.735 340.456C221.677 340.434 221.625 340.401 221.581 340.358L220.786 339.563C220.736 339.511 220.698 339.448 220.676 339.379C220.654 339.31 220.647 339.237 220.657 339.166L222.311 327.268C222.334 327.142 222.403 327.03 222.506 326.954L249.416 307.919C249.48 307.874 249.555 307.847 249.633 307.838C249.71 307.83 249.789 307.842 249.861 307.872C249.933 307.903 249.996 307.951 250.045 308.013C250.093 308.074 250.125 308.147 250.137 308.224L251.94 319.04C251.952 319.125 251.941 319.212 251.908 319.292C251.876 319.371 251.823 319.441 251.755 319.493L222.173 340.404C222.096 340.456 222.006 340.485 221.914 340.487ZM221.609 339.073L221.96 339.424L250.979 318.902L249.351 309.103L223.199 327.591L221.609 339.073Z" fill="#191919"/>
<path d="M237.454 225.701L219.021 245.604L212.734 219.84L214.703 211.945L237.454 225.701Z" fill="#BEA6A0"/>
<path d="M219.057 246.069H218.937C218.857 246.048 218.784 246.006 218.725 245.948C218.667 245.889 218.625 245.816 218.604 245.736L212.327 219.971C212.309 219.899 212.309 219.822 212.327 219.75L214.296 211.855C214.315 211.786 214.349 211.722 214.395 211.667C214.441 211.613 214.499 211.57 214.564 211.541C214.629 211.509 214.7 211.492 214.772 211.492C214.845 211.492 214.916 211.509 214.98 211.541L237.694 225.324C237.754 225.359 237.804 225.408 237.843 225.465C237.881 225.523 237.906 225.588 237.916 225.657C237.925 225.725 237.918 225.794 237.898 225.86C237.877 225.925 237.842 225.985 237.796 226.036L219.362 245.939C219.279 246.017 219.171 246.063 219.057 246.069ZM213.252 219.842L219.307 244.663L236.77 225.805L215.045 212.668L213.252 219.842Z" fill="#191919"/>
<path d="M237.454 225.702L251.487 244.135L258.189 218.796L255.888 212.926L237.454 225.702Z" fill="#BEA6A0"/>
<path d="M251.487 244.598C251.417 244.597 251.347 244.581 251.283 244.551C251.219 244.52 251.163 244.477 251.117 244.422L237.084 225.933C237.046 225.885 237.018 225.828 237.004 225.767C236.989 225.706 236.988 225.643 237.001 225.582C237.01 225.52 237.032 225.461 237.066 225.409C237.099 225.356 237.143 225.311 237.195 225.277L255.619 212.501C255.678 212.462 255.745 212.435 255.816 212.424C255.886 212.413 255.958 212.417 256.026 212.437C256.092 212.46 256.152 212.497 256.202 212.545C256.253 212.593 256.294 212.65 256.322 212.714L258.624 218.575C258.651 218.668 258.651 218.768 258.624 218.861L251.922 244.21C251.901 244.294 251.856 244.371 251.792 244.43C251.727 244.49 251.647 244.529 251.561 244.542L251.487 244.598ZM238.12 225.813L251.284 243.11L257.709 218.852L255.675 213.675L238.12 225.813Z" fill="#191919"/>
<path d="M105.905 211.703C105.905 211.703 99.6186 198.909 96.4755 194.721C93.3324 190.534 90.18 188.01 86.6209 187.381C83.0618 186.753 80.5381 186.965 77.811 185.911C75.0839 184.858 69.6296 183.397 68.169 181.511C66.7084 179.625 63.972 180.882 65.2293 184.026C66.4865 187.169 70.8961 189.267 70.8961 189.267L74.4552 190.94C74.4552 190.94 62.9274 192.623 62.0862 193.252C61.2449 193.88 51.1777 194.721 51.1777 194.721C51.1777 194.721 55.5873 202.477 61.8736 206.046C68.1598 209.614 87.8782 206.674 87.8782 206.674L93.7484 219.044L105.905 211.703Z" fill="#BEA6A0"/>
<path d="M93.7498 219.507H93.6112C93.5501 219.487 93.4939 219.454 93.4462 219.411C93.3984 219.368 93.3602 219.316 93.3338 219.257L87.6023 207.239C84.8289 207.628 67.625 209.892 61.6531 206.509C55.3207 202.857 50.9665 195.268 50.8094 194.944C50.773 194.876 50.7539 194.8 50.7539 194.722C50.7539 194.645 50.773 194.569 50.8094 194.5C50.8454 194.432 50.8983 194.374 50.963 194.332C51.0278 194.29 51.1021 194.265 51.1792 194.26C55.977 193.863 61.2833 193.234 61.8565 192.883C62.5868 192.328 69.252 191.256 72.9498 190.71L70.7681 189.684C70.5832 189.601 66.1459 187.475 64.8794 184.202C64.0752 182.187 64.7685 180.911 65.6097 180.43C66.1196 180.173 66.7065 180.111 67.2587 180.258C67.8109 180.404 68.29 180.749 68.6049 181.225C69.6588 182.584 73.2272 183.814 75.8711 184.711C76.6846 184.988 77.4426 185.247 78.0528 185.478C79.6653 186.044 81.3482 186.387 83.054 186.495C84.1818 186.606 85.3559 186.726 86.6963 186.966C90.2462 187.586 93.4632 189.98 96.8652 194.482C99.9991 198.66 106.11 211.011 106.341 211.538C106.392 211.642 106.403 211.761 106.37 211.873C106.338 211.984 106.264 212.079 106.165 212.139L94.0087 219.479C93.9259 219.509 93.8371 219.518 93.7498 219.507ZM87.8796 206.213C87.9665 206.212 88.0519 206.236 88.1256 206.281C88.1994 206.327 88.2584 206.394 88.2956 206.472L93.944 218.379L105.352 211.529C104.279 209.375 98.8805 198.707 96.1072 195C92.8716 190.692 89.8394 188.418 86.5392 187.835C85.2264 187.604 84.0709 187.493 82.9616 187.382C81.1411 187.286 79.3429 186.937 77.6183 186.347C77.0174 186.116 76.2778 185.857 75.4736 185.589C72.5893 184.6 69.0024 183.37 67.7729 181.799C67.5933 181.5 67.3114 181.278 66.9796 181.172C66.6479 181.067 66.2891 181.086 65.9703 181.225C65.4433 181.53 65.0458 182.39 65.6375 183.851C66.8115 186.8 71.0177 188.834 71.064 188.852L74.6231 190.525C74.7132 190.569 74.7875 190.64 74.8356 190.727C74.8836 190.815 74.9031 190.916 74.8912 191.015C74.8746 191.114 74.8271 191.204 74.7557 191.274C74.6842 191.344 74.5925 191.389 74.4936 191.404C69.0487 192.199 62.9381 193.252 62.328 193.622C61.5329 194.223 54.9324 194.861 51.9372 195.12C53.1297 196.969 57.0032 202.765 62.1061 205.64C68.1889 209.088 87.6115 206.241 87.8056 206.213H87.8796Z" fill="#191919"/>
<path d="M47.2127 192.652C47.2127 192.652 43.9772 185.765 44.2453 184.276C44.5134 182.788 47.3514 183.74 48.2943 185.765C49.2373 187.789 52.4821 192.652 52.4821 192.652H47.2127Z" fill="#BEA6A0"/>
<path d="M52.4813 193.113H47.2119C47.1245 193.112 47.0394 193.086 46.9659 193.038C46.8925 192.991 46.8336 192.924 46.7959 192.845C46.2413 191.671 43.5049 185.745 43.7915 184.192C43.8346 183.904 43.9743 183.64 44.1876 183.442C44.4009 183.243 44.6752 183.123 44.9655 183.102C45.7604 183.116 46.5349 183.356 47.1992 183.793C47.8635 184.23 48.3904 184.846 48.7188 185.57C49.6432 187.548 52.8325 192.355 52.8695 192.401C52.9136 192.472 52.9382 192.553 52.9409 192.636C52.9435 192.719 52.9242 192.802 52.8847 192.875C52.8453 192.948 52.7872 193.009 52.7164 193.053C52.6455 193.096 52.5644 193.12 52.4813 193.123V193.113ZM47.5077 192.189H51.6215C50.269 190.177 49.0194 188.097 47.8775 185.958C47.6328 185.415 47.246 184.948 46.7579 184.606C46.2697 184.264 45.6984 184.061 45.1042 184.017C44.8084 184.017 44.7437 184.202 44.7159 184.359C44.531 185.302 46.2875 189.545 47.5077 192.189Z" fill="#191919"/>
<path d="M41.4717 189.369C41.4717 189.369 46.5007 200.065 49.8564 202.996C53.2121 205.926 59.9236 206.148 59.9236 206.148C59.9236 206.148 51.9549 197.754 50.2816 194.611C48.6084 191.468 42.4886 183.915 41.4717 189.369Z" fill="#BEA6A0"/>
<path d="M59.924 206.612C59.6467 206.612 53.0091 206.363 49.5702 203.349C46.1313 200.335 41.2502 190.009 41.0746 189.566C41.0429 189.476 41.0429 189.378 41.0746 189.288C41.3334 187.911 41.9343 187.144 42.8495 187.005C45.4564 186.607 49.4963 192.062 50.7443 194.401C52.3713 197.451 60.2383 205.743 60.3123 205.827C60.372 205.893 60.4115 205.976 60.4262 206.064C60.4409 206.152 60.4302 206.243 60.3953 206.325C60.3604 206.408 60.3028 206.478 60.2291 206.529C60.1555 206.58 60.0689 206.609 59.9795 206.612H59.924ZM41.9528 189.316C42.5537 190.573 47.1204 199.993 50.1619 202.656C52.5284 204.727 56.7347 205.429 58.7684 205.596C56.6792 203.358 51.2527 197.423 49.866 194.835C48.4794 192.247 44.7723 187.634 42.9327 187.92C42.489 187.994 42.1469 188.456 41.9528 189.316Z" fill="#191919"/>
<path d="M45.5215 190.312C45.5215 190.312 50.5505 201.008 53.9062 203.948C57.2619 206.887 63.9734 207.091 63.9734 207.091C63.9734 207.091 56.0047 198.706 54.3314 195.554C52.6582 192.401 46.5661 184.867 45.5215 190.312Z" fill="#BEA6A0"/>
<path d="M63.9728 207.553C63.6955 207.553 57.0672 207.304 53.619 204.29C50.1709 201.276 45.299 190.95 45.1234 190.516C45.0917 190.423 45.0917 190.322 45.1234 190.229C45.3884 188.855 45.98 188.097 46.8983 187.955C49.5145 187.548 53.5451 193.003 54.7931 195.351C56.4201 198.401 64.2871 206.694 64.3611 206.786C64.4246 206.851 64.4673 206.933 64.4838 207.022C64.5003 207.111 64.4897 207.202 64.4535 207.285C64.4116 207.375 64.3426 207.449 64.2563 207.497C64.1701 207.545 64.0709 207.565 63.9728 207.553ZM46.0016 190.257C46.6025 191.514 51.1692 200.934 54.2107 203.597C56.5865 205.668 60.7835 206.37 62.8265 206.536C60.728 204.299 55.3015 198.374 53.9241 195.776C52.5467 193.178 48.8212 188.593 46.9815 188.87C46.5193 188.935 46.1865 189.407 46.0016 190.257Z" fill="#191919"/>
<path d="M91.0218 201.222C91.0218 201.222 89.9679 199.54 86.3995 197.238C82.8312 194.936 63.9633 200.797 63.9633 200.797C63.9633 200.797 55.3659 190.11 54.1087 189.057C52.8515 188.003 50.5403 187.383 50.1243 189.482C49.7083 191.58 55.3659 200.575 56.8358 202.063C58.3057 203.552 63.9633 207.092 63.9633 207.092C67.4023 208.275 71.0231 208.842 74.6591 208.766C79.1138 208.445 83.5331 207.746 87.8694 206.676" fill="#BEA6A0"/>
<path d="M73.7722 209.247C70.3795 209.214 67.0144 208.633 63.8067 207.528L63.7512 207.482C63.5201 207.334 58.0289 203.876 56.5498 202.388C55.2463 201.084 49.219 191.822 49.7089 189.39C49.7538 189.025 49.8983 188.679 50.1266 188.391C50.3549 188.102 50.6581 187.882 51.0031 187.754C51.6086 187.625 52.2361 187.641 52.8339 187.802C53.4318 187.963 53.983 188.263 54.4421 188.678C55.6254 189.668 62.8453 198.598 64.1672 200.243C67.1532 199.319 83.1923 194.558 86.6867 196.823C90.1811 199.088 91.3921 200.881 91.4383 200.946C91.4719 200.997 91.4947 201.054 91.5054 201.115C91.5161 201.175 91.5145 201.237 91.5007 201.296C91.4869 201.356 91.4611 201.412 91.425 201.462C91.3888 201.511 91.3431 201.552 91.2904 201.584C91.24 201.617 91.1832 201.64 91.1237 201.65C91.0641 201.661 91.0031 201.659 90.9442 201.645C90.8853 201.632 90.8299 201.606 90.7813 201.57C90.7328 201.534 90.6921 201.488 90.6618 201.436C89.4119 199.886 87.8854 198.583 86.1598 197.59C83.3864 195.787 69.2979 199.587 64.1118 201.205C64.0233 201.233 63.9284 201.234 63.8394 201.208C63.7503 201.181 63.6713 201.129 63.6126 201.057C60.6543 197.359 54.7934 190.185 53.8227 189.381C53.4866 189.065 53.0833 188.829 52.6429 188.691C52.2026 188.554 51.7368 188.518 51.2805 188.586C51.0923 188.663 50.9285 188.79 50.8064 188.953C50.6844 189.115 50.6086 189.308 50.5871 189.51C50.2358 191.248 55.5699 200.068 57.1692 201.667C58.5189 203.017 63.6403 206.289 64.1765 206.613C67.5494 207.749 71.0919 208.299 74.6504 208.24C79.0779 207.937 83.4721 207.262 87.7868 206.224C87.9094 206.195 88.0386 206.215 88.1461 206.281C88.2536 206.347 88.3305 206.453 88.3599 206.576C88.3894 206.698 88.3689 206.828 88.303 206.935C88.2371 207.042 88.1312 207.119 88.0087 207.149C83.6418 208.226 79.1917 208.931 74.7059 209.257C74.3731 209.247 74.068 209.247 73.7722 209.247Z" fill="#191919"/>
<path d="M113.227 222.679L105.675 209.32L87.3799 220.358L92.0206 231.692L113.227 222.679Z" fill="#BEA6A0"/>
<path d="M92.0208 232.154C91.9626 232.162 91.9034 232.162 91.8452 232.154C91.7328 232.106 91.6433 232.016 91.5956 231.904L86.9733 220.57C86.9333 220.467 86.9308 220.353 86.9663 220.248C87.0018 220.144 87.073 220.055 87.1675 219.997L105.462 208.959C105.519 208.935 105.58 208.922 105.643 208.922C105.705 208.922 105.766 208.935 105.823 208.959C105.942 208.991 106.045 209.067 106.109 209.172L113.671 222.456C113.696 222.515 113.709 222.578 113.709 222.641C113.709 222.705 113.696 222.768 113.671 222.826C113.651 222.888 113.617 222.945 113.572 222.993C113.528 223.041 113.473 223.079 113.412 223.103L92.2057 232.117C92.1464 232.139 92.084 232.151 92.0208 232.154ZM87.9533 220.552L92.2704 231.081L112.608 222.456L105.545 209.958L87.9533 220.552Z" fill="#191919"/>
<path d="M212.734 219.842L205.607 416.749H153.902L164.358 276.437C164.358 276.437 136.181 307.23 132.982 308.968C129.784 310.706 125.725 305.196 125.725 305.196L87.666 230.529L110.324 218.04L135.284 258.715L139.056 256.099L141.959 257.55C141.959 257.55 167.843 211.947 169.849 210.783C171.855 209.618 181.469 210.2 181.469 210.2L206.429 212.234L214.888 210.385L212.734 219.842Z" fill="#504643"/>
<path d="M205.607 417.203H153.903C153.839 417.202 153.775 417.189 153.716 417.164C153.658 417.138 153.605 417.101 153.561 417.055C153.513 417.006 153.476 416.948 153.452 416.884C153.429 416.821 153.418 416.753 153.422 416.685L163.776 277.704C158.858 283.066 136.126 307.748 133.186 309.348C129.682 311.261 125.504 305.65 125.328 305.437L87.2502 230.742C87.1971 230.634 87.1876 230.509 87.2237 230.394C87.2599 230.278 87.3388 230.181 87.4444 230.123L110.102 217.633C110.207 217.577 110.328 217.562 110.443 217.591C110.558 217.62 110.657 217.691 110.722 217.791L135.442 258.05L138.825 255.711C138.895 255.671 138.975 255.649 139.056 255.649C139.137 255.649 139.217 255.671 139.287 255.711L141.802 256.969C145.305 250.793 167.612 211.569 169.646 210.414C171.68 209.258 180.527 209.711 181.525 209.766L206.485 211.8L214.87 209.951C214.945 209.933 215.024 209.935 215.098 209.956C215.172 209.977 215.24 210.017 215.295 210.072C215.35 210.128 215.389 210.198 215.41 210.273C215.431 210.349 215.433 210.429 215.415 210.506L213.233 219.908L206.115 416.75C206.113 416.813 206.098 416.876 206.071 416.933C206.044 416.991 206.005 417.042 205.958 417.085C205.91 417.127 205.855 417.159 205.794 417.179C205.734 417.2 205.67 417.208 205.607 417.203ZM154.402 416.278H205.191L212.3 219.824C212.296 219.794 212.296 219.763 212.3 219.732L214.324 210.996L206.587 212.678H206.448L181.488 210.645C178.872 210.488 171.707 210.266 170.136 211.162C168.583 212.216 152.71 239.608 142.403 257.764C142.344 257.867 142.248 257.944 142.134 257.978C142.021 258.012 141.898 258.002 141.792 257.949L139.13 256.617L135.58 259.076C135.529 259.113 135.47 259.139 135.408 259.152C135.346 259.164 135.282 259.164 135.22 259.15C135.159 259.137 135.101 259.111 135.05 259.074C134.999 259.038 134.956 258.991 134.924 258.938L110.158 218.65L88.2856 230.714L126.132 304.975C126.132 304.975 129.96 310.087 132.761 308.553C135.238 307.203 154.291 286.745 164.016 276.114C164.081 276.043 164.167 275.994 164.262 275.974C164.356 275.954 164.455 275.964 164.543 276.003C164.631 276.042 164.705 276.108 164.754 276.19C164.804 276.273 164.827 276.369 164.82 276.465L154.402 416.278Z" fill="#191919"/>
<path d="M164.645 272.063L166.448 254.129L152.997 288.333L164.359 276.427L164.645 272.063Z" fill="#191919"/>
<path d="M152.997 288.794C152.908 288.794 152.822 288.768 152.747 288.72C152.657 288.663 152.59 288.577 152.556 288.476C152.522 288.375 152.525 288.265 152.562 288.165L166.022 253.961C166.063 253.858 166.14 253.772 166.238 253.72C166.336 253.667 166.45 253.651 166.558 253.674C166.668 253.701 166.764 253.766 166.828 253.858C166.893 253.95 166.922 254.062 166.91 254.174L165.061 272.108L164.774 276.453C164.766 276.56 164.72 276.662 164.645 276.739L153.33 288.646C153.288 288.693 153.236 288.73 153.179 288.756C153.122 288.781 153.06 288.794 152.997 288.794ZM165.652 257.363L154.291 286.335L163.905 276.249L164.183 272.062L165.652 257.363Z" fill="#191919"/>
<path d="M163.194 259.748C163.083 259.746 162.977 259.706 162.894 259.633C162.811 259.56 162.756 259.46 162.741 259.35C162.445 257.326 160.494 229.98 160.411 228.843C160.407 228.783 160.415 228.722 160.434 228.664C160.453 228.606 160.484 228.553 160.524 228.507C160.604 228.414 160.719 228.357 160.841 228.349C160.964 228.34 161.085 228.381 161.177 228.461C161.27 228.542 161.327 228.656 161.336 228.779C161.336 229.065 163.37 257.252 163.656 259.285C163.672 259.407 163.639 259.529 163.564 259.626C163.49 259.723 163.38 259.787 163.259 259.803L163.194 259.748Z" fill="#191919"/>
<path d="M160.873 270.204C160.763 270.205 160.655 270.167 160.57 270.095C160.485 270.024 160.429 269.925 160.411 269.815L157.222 249.478C157.211 249.418 157.213 249.357 157.226 249.298C157.24 249.239 157.265 249.183 157.3 249.134C157.335 249.085 157.38 249.044 157.432 249.012C157.484 248.981 157.541 248.96 157.601 248.951C157.723 248.932 157.848 248.962 157.948 249.035C158.049 249.108 158.117 249.217 158.137 249.339L161.326 269.677C161.337 269.736 161.335 269.797 161.322 269.856C161.308 269.915 161.283 269.971 161.248 270.02C161.213 270.069 161.168 270.111 161.116 270.142C161.065 270.174 161.007 270.195 160.947 270.204H160.873Z" fill="#191919"/>
<path d="M127.464 277.174C127.397 277.191 127.327 277.191 127.26 277.174C127.152 277.12 127.069 277.026 127.03 276.912C126.99 276.798 126.996 276.673 127.048 276.563L134.6 260.848C134.624 260.789 134.659 260.735 134.704 260.69C134.748 260.645 134.802 260.61 134.861 260.587C134.92 260.564 134.983 260.553 135.047 260.555C135.11 260.557 135.173 260.572 135.23 260.6C135.287 260.627 135.338 260.666 135.38 260.714C135.421 260.762 135.453 260.818 135.472 260.879C135.491 260.939 135.497 261.003 135.49 261.066C135.483 261.129 135.464 261.19 135.432 261.245L127.88 276.961C127.837 277.032 127.775 277.089 127.702 277.127C127.628 277.164 127.546 277.18 127.464 277.174Z" fill="#191919"/>
<path d="M135.598 272.237C135.528 272.236 135.458 272.221 135.395 272.191C135.286 272.136 135.203 272.04 135.163 271.924C135.124 271.809 135.13 271.682 135.182 271.572L141.283 259.369C141.31 259.314 141.347 259.265 141.393 259.225C141.439 259.185 141.492 259.155 141.55 259.136C141.608 259.117 141.669 259.11 141.729 259.115C141.79 259.12 141.849 259.137 141.903 259.166C141.957 259.192 142.006 259.23 142.047 259.275C142.087 259.321 142.118 259.374 142.138 259.431C142.157 259.489 142.166 259.55 142.162 259.61C142.158 259.671 142.142 259.73 142.115 259.785L136.014 271.979C135.976 272.056 135.917 272.122 135.843 272.168C135.77 272.213 135.685 272.238 135.598 272.237Z" fill="#191919"/>
<path d="M203.287 310.871C203.192 310.874 203.098 310.846 203.019 310.791C202.941 310.736 202.883 310.657 202.853 310.566C198.388 298.077 195.023 278.728 192.98 264.686C192.964 264.566 192.995 264.445 193.068 264.348C193.141 264.251 193.248 264.186 193.368 264.168C193.489 264.152 193.611 264.184 193.71 264.256C193.808 264.328 193.874 264.436 193.895 264.556C195.929 278.553 199.284 297.836 203.722 310.261C203.742 310.318 203.751 310.378 203.747 310.439C203.744 310.499 203.728 310.558 203.701 310.613C203.675 310.667 203.637 310.715 203.592 310.755C203.546 310.795 203.493 310.825 203.435 310.843C203.388 310.862 203.338 310.871 203.287 310.871Z" fill="#191919"/>
<path d="M192.526 258.508C192.414 258.507 192.306 258.467 192.222 258.394C192.137 258.321 192.081 258.221 192.064 258.11C191.509 253.895 191.204 251.223 191.204 251.205C191.195 251.118 191.21 251.031 191.248 250.953C191.285 250.875 191.344 250.808 191.416 250.761L202.029 243.855L188.976 241.729C188.895 241.717 188.818 241.683 188.755 241.631C188.691 241.579 188.643 241.511 188.615 241.433C188.588 241.356 188.581 241.272 188.595 241.191C188.61 241.11 188.646 241.034 188.699 240.971C188.699 240.971 191.62 237.458 194.476 233.169C197.333 228.879 206.577 214.68 206.67 214.587C206.738 214.484 206.844 214.411 206.965 214.385C207.086 214.36 207.212 214.382 207.317 214.449C207.418 214.517 207.489 214.622 207.513 214.741C207.537 214.861 207.513 214.985 207.446 215.087C207.354 215.235 198.119 229.379 195.244 233.686C193.071 236.94 190.88 239.742 189.91 240.943L203.342 243.144C203.434 243.158 203.52 243.201 203.587 243.265C203.655 243.329 203.701 243.413 203.721 243.504C203.738 243.595 203.728 243.69 203.692 243.775C203.656 243.861 203.595 243.934 203.517 243.985L192.138 251.38C192.23 252.166 192.507 254.57 192.96 257.99C192.976 258.111 192.943 258.234 192.869 258.331C192.794 258.428 192.684 258.492 192.563 258.508H192.526Z" fill="#191919"/>
<path d="M364.87 211.703C364.87 211.703 371.156 198.909 374.309 194.721C377.461 190.534 380.595 188.01 384.163 187.381C387.732 186.753 390.237 186.965 392.964 185.911C395.691 184.858 401.145 183.397 402.615 181.511C404.085 179.625 406.803 180.882 405.546 184.026C404.288 187.169 399.888 189.267 399.888 189.267L396.32 190.94C396.32 190.94 407.857 192.623 408.689 193.252C409.521 193.88 419.597 194.721 419.597 194.721C419.597 194.721 415.188 202.477 408.901 206.046C402.615 209.614 382.906 206.674 382.906 206.674L377.036 219.044L364.87 211.703Z" fill="#BEA6A0"/>
<path d="M377.027 219.509C376.946 219.507 376.867 219.484 376.796 219.445L364.63 212.105C364.532 212.043 364.46 211.948 364.428 211.838C364.396 211.727 364.405 211.608 364.454 211.504C364.713 210.977 370.805 198.626 373.939 194.448C377.313 189.946 380.54 187.551 384.108 186.932C385.449 186.692 386.623 186.571 387.75 186.461C389.48 186.372 391.188 186.042 392.826 185.481C393.445 185.249 394.194 184.991 395.007 184.713C397.633 183.789 401.22 182.587 402.273 181.228C402.587 180.75 403.066 180.404 403.619 180.257C404.172 180.111 404.759 180.173 405.269 180.433C406.11 180.914 406.812 182.19 406.008 184.205C404.695 187.477 400.295 189.604 400.11 189.687L397.929 190.713C401.552 191.258 408.255 192.331 409.022 192.885C409.586 193.237 414.892 193.865 419.69 194.263C419.767 194.268 419.842 194.292 419.908 194.335C419.973 194.377 420.026 194.435 420.062 194.504C420.098 194.572 420.116 194.649 420.114 194.727C420.112 194.804 420.09 194.88 420.051 194.947C419.875 195.27 415.511 202.86 409.188 206.447C403.216 209.83 385.966 207.566 383.23 207.177L377.508 219.195C377.479 219.254 377.439 219.307 377.39 219.349C377.341 219.392 377.283 219.425 377.221 219.445L377.027 219.509ZM365.471 211.531L376.833 218.382L382.481 206.475C382.525 206.385 382.596 206.312 382.684 206.266C382.772 206.219 382.872 206.202 382.971 206.216C383.165 206.216 402.597 209.091 408.671 205.643C413.746 202.768 417.628 197.018 418.839 195.123C415.872 194.864 409.244 194.198 408.439 193.625C407.848 193.246 401.728 192.201 396.283 191.406C396.185 191.393 396.094 191.348 396.023 191.278C395.953 191.208 395.908 191.116 395.895 191.018C395.879 190.919 395.896 190.818 395.943 190.73C395.989 190.642 396.063 190.571 396.154 190.528L399.713 188.855C399.759 188.855 403.974 186.793 405.148 183.854C405.731 182.393 405.333 181.533 404.816 181.228C404.491 181.077 404.122 181.053 403.781 181.158C403.439 181.264 403.149 181.493 402.967 181.801C401.747 183.373 398.15 184.575 395.266 185.592C394.471 185.86 393.732 186.118 393.121 186.35C391.406 186.938 389.617 187.286 387.806 187.385C386.697 187.496 385.541 187.607 384.228 187.838C380.937 188.42 377.896 190.694 374.67 195.002C371.896 198.709 366.544 209.377 365.471 211.531Z" fill="#191919"/>
<path d="M423.563 192.652C423.563 192.652 426.799 185.765 426.531 184.276C426.263 182.788 423.425 183.74 422.482 185.765C421.539 187.789 418.294 192.652 418.294 192.652H423.563Z" fill="#BEA6A0"/>
<path d="M423.564 193.113H418.295C418.211 193.111 418.129 193.086 418.058 193.043C417.987 192.999 417.928 192.937 417.888 192.864C417.842 192.793 417.818 192.712 417.818 192.628C417.818 192.544 417.842 192.462 417.888 192.392C417.888 192.392 421.114 187.539 422.039 185.561C422.362 184.845 422.88 184.234 423.534 183.799C424.188 183.364 424.951 183.122 425.736 183.102C426.027 183.123 426.301 183.243 426.514 183.442C426.728 183.64 426.867 183.904 426.91 184.192C427.197 185.745 424.461 191.671 423.906 192.845C423.875 192.914 423.827 192.974 423.768 193.021C423.708 193.068 423.638 193.099 423.564 193.113ZM419.154 192.189H423.268C424.498 189.545 426.245 185.302 426.041 184.359C426.041 184.202 425.949 184.054 425.653 184.017C425.059 184.062 424.488 184.266 424 184.607C423.512 184.949 423.125 185.415 422.88 185.958C421.744 188.097 420.501 190.176 419.154 192.189Z" fill="#191919"/>
<path d="M429.303 189.369C429.303 189.369 424.274 200.065 420.919 202.996C417.563 205.926 410.852 206.148 410.852 206.148C410.852 206.148 418.82 197.754 420.503 194.611C422.185 191.468 428.259 183.915 429.303 189.369Z" fill="#BEA6A0"/>
<path d="M410.853 206.613C410.764 206.612 410.678 206.585 410.604 206.536C410.53 206.487 410.472 206.417 410.437 206.336C410.4 206.252 410.388 206.16 410.403 206.069C410.417 205.979 410.458 205.895 410.52 205.828C410.603 205.744 418.47 197.452 420.097 194.401C421.345 192.063 425.385 186.599 427.992 187.006C428.916 187.145 429.499 187.93 429.758 189.289C429.785 189.38 429.785 189.476 429.758 189.567C429.545 190.01 424.645 200.383 421.253 203.35C417.86 206.318 411.176 206.604 410.899 206.613H410.853ZM427.687 187.912C425.838 187.912 422.223 192.377 420.911 194.836C419.598 197.295 414.097 203.359 412.008 205.596C414.042 205.393 418.248 204.727 420.615 202.657C423.656 199.994 428.223 190.574 428.824 189.317C428.639 188.457 428.306 187.995 427.853 187.921L427.687 187.912Z" fill="#191919"/>
<path d="M425.256 190.312C425.256 190.312 420.227 201.008 416.871 203.948C413.515 206.887 406.804 207.091 406.804 207.091C406.804 207.091 414.772 198.706 416.455 195.554C418.137 192.401 424.211 184.867 425.256 190.312Z" fill="#BEA6A0"/>
<path d="M406.802 207.554C406.714 207.552 406.627 207.525 406.554 207.476C406.48 207.427 406.422 207.358 406.386 207.277C406.346 207.195 406.333 207.103 406.348 207.014C406.363 206.924 406.405 206.841 406.469 206.777C406.553 206.685 414.41 198.393 416.037 195.342C417.285 193.003 421.307 187.549 423.932 187.946C424.857 188.085 425.448 188.871 425.707 190.221C425.739 190.313 425.739 190.414 425.707 190.507C425.504 190.942 420.595 201.323 417.212 204.281C413.828 207.24 407.135 207.535 406.858 207.545L406.802 207.554ZM423.636 188.852C421.741 188.852 418.164 193.317 416.86 195.776C415.474 198.374 410.047 204.3 407.958 206.537C409.992 206.334 414.198 205.668 416.564 203.597C419.606 200.935 424.173 191.515 424.773 190.258C424.589 189.407 424.256 188.936 423.794 188.871L423.636 188.852Z" fill="#191919"/>
<path d="M379.754 201.222C379.754 201.222 380.808 199.54 384.376 197.238C387.944 194.936 406.812 200.797 406.812 200.797C406.812 200.797 415.41 190.11 416.667 189.057C417.924 188.003 420.235 187.383 420.651 189.482C421.067 191.58 415.41 200.575 413.94 202.063C412.47 203.552 406.812 207.092 406.812 207.092C403.373 208.275 399.753 208.842 396.117 208.766C391.665 208.445 387.249 207.747 382.916 206.676" fill="#BEA6A0"/>
<path d="M397.013 209.245C396.708 209.245 396.403 209.245 396.089 209.245C391.603 208.92 387.153 208.215 382.786 207.137C382.663 207.108 382.557 207.031 382.492 206.923C382.426 206.816 382.405 206.687 382.435 206.564C382.464 206.441 382.541 206.336 382.648 206.27C382.756 206.204 382.885 206.183 383.008 206.213C387.311 207.273 391.696 207.969 396.116 208.293C399.675 208.358 403.219 207.808 406.59 206.666C407.108 206.333 412.248 203.07 413.598 201.72C415.197 200.121 420.531 191.301 420.18 189.563C420.16 189.361 420.085 189.167 419.963 189.004C419.841 188.841 419.676 188.715 419.486 188.639C419.03 188.571 418.564 188.608 418.124 188.745C417.684 188.883 417.281 189.118 416.944 189.434C416.02 190.238 410.122 197.421 407.154 201.11C407.096 201.182 407.017 201.234 406.928 201.261C406.838 201.287 406.744 201.286 406.655 201.258C401.469 199.649 387.39 195.85 384.607 197.643C381.205 199.843 380.151 201.47 380.142 201.48C380.077 201.584 379.973 201.658 379.854 201.686C379.734 201.713 379.608 201.692 379.504 201.627C379.4 201.562 379.326 201.459 379.298 201.339C379.27 201.22 379.291 201.094 379.356 200.99C379.356 200.925 380.503 199.205 384.108 196.867C387.713 194.528 403.641 199.363 406.637 200.287C407.959 198.642 415.169 189.711 416.353 188.722C416.813 188.309 417.364 188.011 417.962 187.85C418.559 187.69 419.186 187.672 419.791 187.798C420.138 187.924 420.442 188.144 420.671 188.432C420.899 188.721 421.043 189.068 421.086 189.434C421.576 191.865 415.539 201.128 414.254 202.432C412.766 203.92 407.274 207.378 407.043 207.525L406.96 207.572C403.756 208.661 400.397 209.226 397.013 209.245Z" fill="#191919"/>
<path d="M357.549 222.679L365.102 209.32L383.406 220.358L378.756 231.692L357.549 222.679Z" fill="#BEA6A0"/>
<path d="M378.756 232.153C378.694 232.162 378.632 232.162 378.571 232.153L357.364 223.14C357.304 223.116 357.25 223.079 357.207 223.03C357.163 222.982 357.132 222.925 357.115 222.862C357.087 222.804 357.073 222.741 357.073 222.677C357.073 222.613 357.087 222.55 357.115 222.492L364.667 209.125C364.732 209.02 364.835 208.944 364.954 208.912C365.011 208.888 365.072 208.875 365.134 208.875C365.196 208.875 365.257 208.888 365.314 208.912L383.609 219.96C383.702 220.018 383.771 220.108 383.805 220.213C383.839 220.317 383.835 220.431 383.794 220.533L379.172 231.866C379.124 231.979 379.035 232.068 378.922 232.116C378.869 232.136 378.813 232.149 378.756 232.153ZM358.205 222.456L378.543 231.081L382.86 220.551L365.296 209.957L358.205 222.456Z" fill="#191919"/>
<path d="M258.041 219.842L265.169 416.749H316.882L306.418 276.427C306.418 276.427 334.595 307.221 337.793 308.959C340.992 310.697 345.059 305.187 345.059 305.187L383.11 230.529L360.498 218.04L335.538 258.715L331.757 256.099L328.854 257.55C328.854 257.55 302.969 211.947 300.963 210.783C298.957 209.618 289.343 210.2 289.343 210.2L264.383 212.234L255.139 210.385L258.041 219.842Z" fill="#504643"/>
<path d="M316.882 417.198H265.169C265.048 417.196 264.933 417.147 264.847 417.063C264.762 416.979 264.711 416.865 264.706 416.745L257.579 219.912L254.584 210.529C254.56 210.451 254.557 210.369 254.575 210.289C254.593 210.21 254.631 210.136 254.685 210.076C254.739 210.016 254.807 209.97 254.883 209.944C254.959 209.919 255.041 209.913 255.12 209.928L264.364 211.777L289.278 209.743C290.286 209.688 299.077 209.189 301.166 210.39C303.256 211.592 325.507 250.77 329.011 256.945L331.525 255.688C331.597 255.648 331.678 255.626 331.761 255.626C331.844 255.626 331.925 255.648 331.997 255.688L335.371 258.027L360.1 217.768C360.163 217.669 360.261 217.598 360.374 217.569C360.487 217.54 360.607 217.555 360.71 217.61L383.368 230.1C383.474 230.158 383.553 230.255 383.589 230.371C383.625 230.486 383.615 230.611 383.562 230.719L345.503 305.377C345.29 305.673 341.121 311.266 337.608 309.343C334.678 307.744 311.945 283.061 307.018 277.699L317.344 416.68C317.348 416.745 317.339 416.809 317.317 416.87C317.294 416.93 317.26 416.985 317.215 417.032C317.175 417.082 317.124 417.123 317.067 417.151C317.009 417.18 316.946 417.196 316.882 417.198ZM265.612 416.273H316.383L305.955 276.461C305.948 276.363 305.972 276.266 306.023 276.183C306.075 276.1 306.151 276.035 306.242 275.998C306.328 275.959 306.426 275.948 306.519 275.968C306.612 275.988 306.696 276.038 306.759 276.109C316.494 286.74 335.537 307.198 338.015 308.52C340.788 310.055 344.643 304.933 344.689 304.878L382.499 230.682L360.617 218.618L335.861 258.915C335.829 258.969 335.787 259.016 335.736 259.053C335.685 259.089 335.627 259.115 335.565 259.127C335.503 259.141 335.439 259.141 335.377 259.128C335.315 259.116 335.256 259.09 335.205 259.053L331.655 256.594L328.992 257.925C328.888 257.978 328.767 257.989 328.655 257.954C328.542 257.92 328.448 257.843 328.391 257.741C318.093 239.584 302.22 212.193 300.658 211.139C299.096 210.215 291.931 210.464 289.297 210.622L264.337 212.655H264.207L255.702 210.973L258.476 219.681C258.481 219.721 258.481 219.761 258.476 219.801L265.612 416.273Z" fill="#191919"/>
<path d="M306.418 276.426L306.066 262.254L317.28 287.491L306.418 276.426Z" fill="#191919"/>
<path d="M317.28 287.954C317.22 287.954 317.16 287.942 317.104 287.919C317.048 287.895 316.998 287.859 316.957 287.815L306.094 276.722C306.012 276.637 305.963 276.525 305.956 276.407L305.605 262.3C305.604 262.194 305.639 262.09 305.704 262.006C305.77 261.922 305.862 261.863 305.965 261.838C306.069 261.812 306.18 261.823 306.276 261.871C306.373 261.918 306.449 261.998 306.492 262.097L317.705 287.334C317.749 287.433 317.757 287.544 317.726 287.647C317.696 287.75 317.629 287.839 317.539 287.898C317.461 287.943 317.37 287.963 317.28 287.954ZM306.88 276.232L315.82 285.347L306.575 264.565L306.88 276.232Z" fill="#191919"/>
<path d="M306.131 272.525C306.015 272.525 305.903 272.482 305.817 272.403C305.731 272.324 305.678 272.216 305.669 272.099L303.053 233.754C303.049 233.693 303.056 233.632 303.076 233.574C303.095 233.516 303.125 233.463 303.165 233.417C303.205 233.371 303.254 233.334 303.308 233.307C303.363 233.279 303.422 233.263 303.483 233.259C303.543 233.255 303.604 233.262 303.662 233.282C303.72 233.301 303.773 233.332 303.819 233.371C303.865 233.411 303.903 233.46 303.93 233.514C303.957 233.569 303.973 233.628 303.977 233.689L306.594 272.035C306.597 272.095 306.589 272.156 306.569 272.214C306.549 272.271 306.518 272.324 306.478 272.37C306.438 272.415 306.389 272.453 306.334 272.479C306.279 272.506 306.22 272.521 306.159 272.525H306.131Z" fill="#191919"/>
<path d="M307.582 259.749H307.517C307.398 259.731 307.29 259.666 307.217 259.57C307.145 259.473 307.113 259.351 307.129 259.231C307.406 257.235 308.802 241.149 308.812 240.992C308.828 240.871 308.889 240.759 308.983 240.681C309.077 240.602 309.197 240.561 309.32 240.567C309.441 240.579 309.553 240.638 309.63 240.731C309.708 240.825 309.746 240.945 309.736 241.066C309.68 241.732 308.331 257.336 308.044 259.361C308.025 259.469 307.968 259.568 307.883 259.639C307.799 259.71 307.692 259.749 307.582 259.749Z" fill="#191919"/>
<path d="M309.912 270.204H309.838C309.778 270.196 309.719 270.176 309.667 270.145C309.614 270.114 309.568 270.073 309.532 270.024C309.495 269.974 309.469 269.918 309.455 269.859C309.441 269.799 309.44 269.738 309.45 269.677L312.649 249.339C312.658 249.279 312.679 249.22 312.71 249.168C312.742 249.115 312.784 249.069 312.833 249.033C312.882 248.996 312.938 248.97 312.998 248.955C313.058 248.94 313.12 248.937 313.18 248.947C313.241 248.956 313.299 248.977 313.352 249.008C313.404 249.04 313.45 249.082 313.487 249.131C313.523 249.18 313.55 249.236 313.564 249.296C313.579 249.356 313.582 249.417 313.573 249.478L310.375 269.816C310.359 269.926 310.303 270.027 310.218 270.098C310.132 270.17 310.024 270.208 309.912 270.204Z" fill="#191919"/>
<path d="M337.229 269.901C337.121 269.899 337.016 269.859 336.934 269.788C336.851 269.717 336.795 269.62 336.776 269.513L335.306 261.11C335.296 261.049 335.298 260.987 335.312 260.927C335.325 260.867 335.351 260.81 335.386 260.76C335.422 260.71 335.467 260.667 335.519 260.634C335.571 260.602 335.629 260.579 335.69 260.569C335.751 260.559 335.813 260.561 335.873 260.574C335.933 260.588 335.99 260.613 336.04 260.649C336.09 260.685 336.133 260.73 336.166 260.782C336.198 260.834 336.221 260.892 336.231 260.953L337.71 269.356C337.729 269.477 337.7 269.601 337.629 269.701C337.558 269.801 337.451 269.87 337.331 269.892L337.229 269.901Z" fill="#191919"/>
<path d="M328.983 265.775C328.862 265.768 328.748 265.715 328.664 265.628C328.58 265.54 328.532 265.424 328.53 265.303L328.623 259.562C328.635 259.443 328.69 259.333 328.776 259.25C328.862 259.167 328.975 259.117 329.094 259.109C329.155 259.111 329.215 259.124 329.27 259.148C329.326 259.172 329.376 259.207 329.418 259.251C329.46 259.295 329.493 259.347 329.516 259.403C329.538 259.46 329.548 259.52 329.547 259.581L329.455 265.312C329.455 265.374 329.442 265.435 329.419 265.491C329.395 265.548 329.36 265.6 329.316 265.643C329.272 265.686 329.22 265.719 329.163 265.742C329.106 265.765 329.045 265.776 328.983 265.775Z" fill="#191919"/>
<path d="M267.499 310.873C267.447 310.887 267.393 310.887 267.341 310.873C267.227 310.833 267.132 310.749 267.079 310.64C267.025 310.531 267.017 310.406 267.055 310.29C267.757 308.331 268.46 306.112 269.144 303.69C269.161 303.629 269.189 303.572 269.227 303.523C269.265 303.473 269.313 303.431 269.368 303.4C269.422 303.368 269.482 303.348 269.545 303.34C269.607 303.332 269.67 303.336 269.731 303.352C269.792 303.369 269.849 303.397 269.899 303.435C269.948 303.474 269.99 303.522 270.021 303.576C270.053 303.631 270.073 303.691 270.081 303.753C270.089 303.815 270.085 303.879 270.069 303.94C269.375 306.38 268.663 308.626 267.961 310.596C267.922 310.684 267.857 310.759 267.774 310.809C267.691 310.858 267.595 310.881 267.499 310.873Z" fill="#191919"/>
<path d="M270.826 299.821H270.706C270.589 299.791 270.488 299.716 270.426 299.612C270.364 299.508 270.345 299.384 270.373 299.267C275.291 279.853 278.323 254.366 278.693 251.399L267.313 244.003C267.235 243.953 267.175 243.88 267.14 243.794C267.106 243.708 267.098 243.613 267.119 243.523C267.135 243.432 267.18 243.348 267.246 243.283C267.312 243.218 267.397 243.176 267.489 243.162L280.939 240.962C280.015 239.76 277.778 236.959 275.605 233.705C272.73 229.397 263.495 215.216 263.403 215.105C263.344 215.003 263.327 214.881 263.355 214.766C263.383 214.651 263.455 214.551 263.554 214.487C263.654 214.423 263.774 214.4 263.89 214.422C264.007 214.444 264.11 214.51 264.179 214.606C264.272 214.745 273.507 228.889 276.372 233.187C279.238 237.486 282.132 240.962 282.16 240.99C282.209 241.055 282.242 241.131 282.255 241.211C282.268 241.292 282.261 241.375 282.233 241.452C282.206 241.529 282.158 241.598 282.094 241.65C282.031 241.702 281.954 241.736 281.873 241.748L268.82 243.874L279.442 250.78C279.514 250.827 279.571 250.894 279.607 250.972C279.643 251.051 279.656 251.138 279.645 251.223C279.645 251.491 276.52 278.864 271.325 299.489C271.295 299.594 271.228 299.686 271.137 299.747C271.045 299.808 270.935 299.834 270.826 299.821Z" fill="#191919"/>
<path d="M214.62 192.189L214.703 211.944L237.454 225.7L255.887 212.924L254.186 190.516C254.186 190.516 239.941 199.76 238.055 200.148C236.169 200.537 214.62 192.189 214.62 192.189Z" fill="#BEA6A0"/>
<path d="M237.454 226.162C237.369 226.163 237.286 226.141 237.214 226.097L214.435 212.378C214.367 212.336 214.311 212.277 214.27 212.208C214.23 212.139 214.207 212.061 214.204 211.981L214.121 192.225C214.123 192.151 214.142 192.078 214.177 192.012C214.213 191.946 214.263 191.89 214.324 191.847C214.386 191.805 214.456 191.778 214.53 191.768C214.604 191.758 214.679 191.766 214.75 191.791C223.07 195.008 236.622 200 237.944 199.732C239.266 199.464 248.224 193.843 253.928 190.164C253.996 190.123 254.074 190.102 254.154 190.102C254.234 190.102 254.312 190.123 254.381 190.164C254.452 190.2 254.514 190.253 254.559 190.32C254.605 190.386 254.632 190.463 254.639 190.543L256.313 212.951C256.318 213.032 256.303 213.114 256.267 213.187C256.231 213.26 256.177 213.322 256.109 213.367L237.685 226.143C237.611 226.168 237.531 226.174 237.454 226.162ZM215.166 211.685L237.436 225.154L255.407 212.692L253.807 191.319C250.775 193.279 239.941 200.212 238.184 200.564C236.428 200.915 219.816 194.657 215.073 192.826L215.166 211.685Z" fill="#191919"/>
<path d="M214.934 208.163L236.539 202.81L214.703 193.898L214.934 208.163Z" fill="#191919"/>
<path d="M214.935 208.615C214.831 208.618 214.73 208.585 214.648 208.523C214.593 208.48 214.549 208.426 214.518 208.363C214.488 208.301 214.472 208.232 214.472 208.162L214.241 193.889C214.241 193.813 214.26 193.737 214.295 193.67C214.33 193.602 214.382 193.544 214.445 193.501C214.511 193.464 214.586 193.445 214.662 193.445C214.738 193.445 214.812 193.464 214.879 193.501L236.714 202.412C236.805 202.449 236.881 202.514 236.933 202.597C236.984 202.68 237.008 202.777 237.001 202.875C236.991 202.971 236.953 203.063 236.89 203.137C236.827 203.211 236.743 203.265 236.65 203.291L215.045 208.634L214.935 208.615ZM215.184 194.592L215.388 207.534L235.05 202.662L215.184 194.592Z" fill="#191919"/>
<path d="M254.186 167.469C254.186 167.469 253.974 158.465 256.488 153.436C257.294 151.807 257.712 150.015 257.712 148.199C257.712 146.382 257.294 144.59 256.488 142.962L258.809 142.12C257.545 141.063 256.218 140.084 254.834 139.19C254.205 138.977 255.25 133.329 253.364 130.389C251.478 127.45 249.592 126.83 249.592 126.83L248.547 130.602C248.547 130.602 242.89 123.9 239.747 122.642C236.604 121.385 227.609 115.312 227.378 118.455C227.146 121.598 228.431 122.855 228.431 122.855C228.431 122.855 222.145 119.287 217.338 120.544C212.531 121.801 207.909 124.741 208.953 125.786C209.998 126.83 214.611 131.23 214.611 131.23C214.611 131.23 203.934 131.646 202.676 132.904C201.833 133.881 201.203 135.024 200.828 136.259L206.901 139.403C206.901 139.403 201.456 138.977 199.358 142.333C197.259 145.689 196.843 146.955 198.313 147.565C199.766 148.306 201.165 149.146 202.501 150.08C202.501 150.08 201.031 152.594 202.713 156.782C204.396 160.97 208.362 170.196 208.362 170.196C208.362 170.196 209.832 155.109 210.876 152.178C211.921 149.248 224.919 142.333 226.795 141.704C228.672 141.076 241.882 144.635 242.723 144.635C243.565 144.635 249 165.795 250.258 166.627C251.515 167.459 254.186 167.469 254.186 167.469Z" fill="#191919"/>
<path d="M208.334 170.66C208.244 170.658 208.157 170.63 208.083 170.579C208.01 170.528 207.952 170.456 207.918 170.373C207.918 170.281 203.915 161.129 202.251 156.96C200.874 153.521 201.53 151.145 201.891 150.248C200.682 149.408 199.416 148.654 198.1 147.993C197.854 147.909 197.629 147.771 197.444 147.588C197.258 147.406 197.116 147.184 197.028 146.939C196.714 145.931 197.426 144.517 198.942 142.086C200.365 139.802 203.166 139.146 205.043 138.979L200.569 136.668C200.472 136.622 200.395 136.542 200.353 136.444C200.31 136.345 200.305 136.234 200.338 136.132C200.742 134.82 201.423 133.609 202.334 132.582C203.481 131.436 210.47 130.974 213.502 130.817C212.143 129.513 209.397 126.888 208.621 126.111C208.49 125.989 208.398 125.831 208.355 125.657C208.312 125.483 208.321 125.3 208.38 125.131C208.833 123.458 213.419 121.091 217.209 120.102C220.833 119.178 225.159 120.786 227.313 121.775C226.953 120.699 226.818 119.56 226.915 118.429C226.917 118.199 226.979 117.973 227.096 117.775C227.213 117.577 227.38 117.414 227.581 117.301C228.977 116.534 232.129 118.115 236.428 120.444C237.796 121.184 239.09 121.886 239.913 122.219C242.566 123.273 246.791 127.905 248.326 129.615L249.139 126.675C249.157 126.614 249.186 126.558 249.226 126.509C249.266 126.46 249.315 126.419 249.37 126.388C249.426 126.361 249.488 126.347 249.55 126.347C249.613 126.347 249.674 126.361 249.731 126.388C249.814 126.388 251.792 127.1 253.743 130.086C255.009 132.055 255.028 135.097 255.037 137.112C255.024 137.662 255.049 138.211 255.111 138.758C256.497 139.66 257.827 140.645 259.095 141.706C259.159 141.76 259.208 141.829 259.237 141.906C259.266 141.984 259.275 142.068 259.262 142.15C259.246 142.23 259.209 142.305 259.156 142.366C259.102 142.428 259.034 142.474 258.957 142.502L257.108 143.167C257.846 144.811 258.209 146.599 258.171 148.401C258.132 150.203 257.694 151.974 256.886 153.586C254.455 158.457 254.63 167.314 254.63 167.406C254.63 167.531 254.58 167.651 254.492 167.739C254.45 167.783 254.4 167.819 254.344 167.842C254.289 167.866 254.229 167.878 254.168 167.877C254.048 167.877 251.284 167.877 249.934 166.953C249.25 166.5 248.252 163.486 245.598 154.658C244.406 150.711 242.945 145.839 242.446 145.016C242.021 144.961 241.087 144.739 239.09 144.276C235.513 143.435 228.071 141.679 226.869 142.076C224.909 142.733 212.189 149.601 211.237 152.245C210.229 155.092 208.769 169.994 208.75 170.142C208.741 170.245 208.698 170.342 208.628 170.417C208.557 170.493 208.464 170.542 208.362 170.558L208.334 170.66ZM206.319 139.848C204.951 139.848 201.281 140.089 199.718 142.622C198.489 144.6 197.703 146.051 197.869 146.708C197.869 146.828 198.008 147.013 198.433 147.198C199.912 147.946 201.337 148.799 202.695 149.749C202.793 149.815 202.862 149.916 202.887 150.031C202.913 150.146 202.894 150.267 202.834 150.369C202.834 150.369 201.512 152.763 203.074 156.664C204.303 159.733 206.772 165.576 208.02 168.423C208.445 164.318 209.536 154.445 210.377 152.069C211.551 148.788 225.057 141.827 226.592 141.318C227.923 140.865 233.368 142.086 239.303 143.481C240.902 143.86 242.418 144.212 242.659 144.221C243.269 144.221 243.5 144.572 246.486 154.501C247.919 159.243 249.869 165.724 250.47 166.306C251.482 166.786 252.586 167.039 253.706 167.046C253.706 165.076 253.835 157.736 256.063 153.281C256.827 151.716 257.224 149.997 257.224 148.256C257.224 146.515 256.827 144.797 256.063 143.232C256.031 143.173 256.012 143.108 256.008 143.042C256.003 142.975 256.013 142.909 256.037 142.846C256.061 142.784 256.098 142.727 256.145 142.681C256.193 142.634 256.25 142.598 256.313 142.575L257.847 142.021C256.836 141.166 255.768 140.381 254.649 139.673C254.103 139.497 254.103 138.831 254.085 137.214C254.085 135.309 254.085 132.434 252.938 130.687C252.175 129.405 251.116 128.325 249.851 127.535L248.926 130.77C248.905 130.852 248.862 130.926 248.802 130.984C248.741 131.043 248.666 131.084 248.584 131.103C248.502 131.12 248.416 131.114 248.336 131.086C248.257 131.059 248.186 131.01 248.131 130.946C248.076 130.881 242.511 124.318 239.516 123.116C238.289 122.561 237.092 121.944 235.929 121.267C233.155 119.779 229.032 117.569 227.969 118.115C227.923 118.115 227.803 118.207 227.784 118.494C227.599 121.35 228.709 122.524 228.709 122.543C228.782 122.626 228.823 122.732 228.823 122.843C228.823 122.954 228.782 123.061 228.709 123.144C228.641 123.231 228.544 123.292 228.435 123.314C228.327 123.336 228.214 123.318 228.117 123.264C228.062 123.264 221.942 119.816 217.357 121.008C213.067 122.127 209.443 124.438 209.185 125.39C210.22 126.499 214.796 130.863 214.842 130.937C214.908 131 214.953 131.081 214.973 131.169C214.993 131.258 214.986 131.351 214.953 131.435C214.921 131.52 214.864 131.594 214.79 131.646C214.716 131.699 214.628 131.729 214.537 131.732C210.174 131.898 203.684 132.49 202.908 133.276C202.181 134.082 201.622 135.025 201.262 136.049L206.984 139.007C207.078 139.058 207.151 139.138 207.193 139.235C207.235 139.332 207.243 139.441 207.215 139.543C207.185 139.646 207.121 139.735 207.034 139.797C206.947 139.859 206.842 139.89 206.735 139.885C206.735 139.885 206.633 139.848 206.319 139.848Z" fill="#191919"/>
<path d="M219.649 136.473C219.649 136.473 205.616 150.34 205.404 152.596C205.191 154.851 211.477 190.72 211.875 191.977C212.272 193.234 227.165 202.664 231.769 203.708C236.373 204.753 241.198 203.496 242.455 202.451C243.713 201.406 255.86 194.491 257.117 188.834C258.374 183.176 250.489 144.636 249.564 143.176C248.64 141.715 229.079 132.276 219.649 136.473Z" fill="#BEA6A0"/>
<path d="M235.439 204.559C234.18 204.564 232.925 204.431 231.695 204.162C227.304 203.163 211.986 193.706 211.459 192.144C210.886 190.425 204.738 154.87 204.941 152.578C205.145 150.285 216.959 138.489 219.326 136.16C219.364 136.119 219.412 136.087 219.464 136.067C228.783 131.926 248.908 141.041 249.971 142.964C250.84 144.48 258.846 183.149 257.561 188.955C256.488 193.79 247.928 199.392 244.277 201.786C243.528 202.276 242.945 202.655 242.742 202.831C241.697 203.709 238.721 204.559 235.439 204.559ZM219.917 136.862C214.528 142.169 206.005 151.089 205.866 152.643C205.681 154.723 211.81 190.258 212.337 191.83C212.984 193.05 227.276 202.211 231.898 203.256C236.52 204.3 241.069 203.034 242.187 202.1C242.428 201.897 242.973 201.536 243.805 200.991C247.364 198.661 255.703 193.207 256.692 188.733C257.903 183.297 250.036 144.97 249.204 143.435C248.427 142.243 229.227 132.878 219.917 136.862Z" fill="#191919"/>
<path d="M219.649 136.473C219.649 136.473 224.512 138.877 226.518 139.773C228.524 140.67 230.743 137.546 230.743 137.546C230.743 137.546 247.965 143.453 249.601 143.175C251.238 142.898 244.979 136.427 238.508 133.977C232.037 131.527 219.686 131.832 219.649 136.473Z" fill="#191919"/>
<path d="M249.509 143.637C247.281 143.637 234.311 139.255 230.909 138.091C230.262 138.886 228.284 141.058 226.287 140.198C224.29 139.339 219.455 136.907 219.409 136.88C219.331 136.842 219.266 136.782 219.22 136.709C219.174 136.635 219.15 136.55 219.15 136.464C219.169 135.918 219.326 135.386 219.605 134.918C219.885 134.449 220.279 134.058 220.75 133.783C224.447 131.278 233.553 131.601 238.675 133.552C244.351 135.706 250.452 141.28 250.286 142.953C250.272 143.122 250.202 143.28 250.086 143.403C249.97 143.526 249.815 143.605 249.648 143.628L249.509 143.637ZM230.743 137.083C230.795 137.074 230.848 137.074 230.9 137.083C237.288 139.274 247.688 142.63 249.389 142.694C249.001 141.428 244.009 136.519 238.388 134.374C233.507 132.526 224.669 132.22 221.323 134.513C221.02 134.688 220.758 134.925 220.554 135.209C220.351 135.492 220.209 135.816 220.14 136.159C221.203 136.676 225.011 138.562 226.712 139.311C228.071 139.912 229.818 138.017 230.41 137.24C230.451 137.192 230.502 137.153 230.559 137.125C230.617 137.098 230.679 137.084 230.743 137.083Z" fill="#191919"/>
<path d="M232.499 176.123C232.379 176.133 232.258 176.133 232.138 176.123L230.964 175.929C230.133 176.064 229.292 176.132 228.45 176.132C227.893 176.094 227.364 175.876 226.942 175.511C226.52 175.146 226.228 174.653 226.111 174.107C226.086 173.989 226.107 173.865 226.171 173.761C226.234 173.658 226.336 173.583 226.453 173.553C226.571 173.525 226.695 173.544 226.798 173.606C226.902 173.668 226.977 173.769 227.008 173.886C227.008 173.941 227.368 175.217 228.45 175.217C229.262 175.22 230.072 175.152 230.872 175.013H231.075L232.332 175.217C233.451 175.411 235.864 174.209 236.03 173.682C236.197 173.155 234.986 167.803 234.181 163.929C233.257 159.381 232.665 156.534 232.665 155.988C232.665 154.62 235.217 151.819 235.725 151.274C235.813 151.188 235.931 151.141 236.053 151.141C236.176 151.141 236.294 151.188 236.382 151.274C236.425 151.317 236.459 151.368 236.483 151.424C236.506 151.48 236.518 151.541 236.518 151.602C236.518 151.663 236.506 151.723 236.483 151.78C236.459 151.836 236.425 151.887 236.382 151.93C235.217 153.178 233.608 155.276 233.608 156.016C233.608 156.534 234.403 160.379 235.106 163.772C236.594 170.974 237.066 173.451 236.955 173.941C236.622 174.939 233.978 176.123 232.499 176.123Z" fill="#191919"/>
<path d="M237.149 174.283C236.87 174.281 236.592 174.256 236.317 174.209C236.258 174.197 236.201 174.173 236.151 174.139C236.101 174.105 236.057 174.062 236.024 174.011C235.99 173.961 235.967 173.904 235.956 173.844C235.944 173.785 235.944 173.723 235.957 173.664C235.968 173.604 235.991 173.547 236.024 173.496C236.058 173.445 236.101 173.401 236.152 173.367C236.203 173.334 236.261 173.311 236.321 173.3C236.381 173.289 236.442 173.29 236.502 173.303C237.022 173.418 237.564 173.37 238.055 173.165C238.162 173.087 238.235 172.971 238.258 172.841L238.462 171.584C238.484 171.463 238.553 171.356 238.653 171.286C238.753 171.215 238.877 171.186 238.998 171.205C239.058 171.214 239.115 171.235 239.167 171.266C239.219 171.298 239.263 171.339 239.299 171.388C239.334 171.437 239.359 171.493 239.373 171.552C239.386 171.611 239.388 171.672 239.377 171.732L239.164 172.989C239.134 173.174 239.067 173.351 238.967 173.51C238.867 173.669 238.736 173.806 238.582 173.913C238.151 174.175 237.653 174.303 237.149 174.283Z" fill="#191919"/>
<path d="M230.955 175.891C230.862 175.892 230.771 175.863 230.696 175.808C230.184 175.412 229.811 174.864 229.63 174.243C229.449 173.622 229.47 172.959 229.689 172.35C229.702 172.287 229.729 172.226 229.768 172.174C229.806 172.121 229.856 172.077 229.913 172.045C229.969 172.012 230.032 171.993 230.097 171.986C230.162 171.98 230.228 171.988 230.29 172.009C230.352 172.03 230.408 172.064 230.456 172.109C230.504 172.153 230.542 172.207 230.567 172.267C230.592 172.328 230.604 172.393 230.603 172.458C230.601 172.523 230.586 172.587 230.558 172.646C230.402 173.068 230.383 173.529 230.504 173.962C230.625 174.395 230.88 174.779 231.233 175.059C231.31 175.117 231.367 175.198 231.396 175.291C231.425 175.384 231.424 175.483 231.394 175.575C231.363 175.667 231.304 175.747 231.225 175.804C231.147 175.861 231.052 175.891 230.955 175.891Z" fill="#191919"/>
<path d="M227.193 188.667C227.079 188.667 226.968 188.628 226.879 188.556C226.794 188.468 226.746 188.35 226.746 188.228C226.746 188.105 226.794 187.987 226.879 187.899C226.953 187.816 234.099 179.94 242.271 183.166C242.328 183.189 242.379 183.222 242.423 183.264C242.466 183.307 242.501 183.357 242.525 183.413C242.549 183.469 242.562 183.529 242.563 183.59C242.564 183.65 242.552 183.711 242.53 183.767C242.507 183.824 242.474 183.875 242.432 183.919C242.389 183.962 242.339 183.997 242.283 184.021C242.227 184.045 242.167 184.058 242.107 184.059C242.046 184.06 241.985 184.048 241.929 184.026C234.358 181.04 227.637 188.436 227.572 188.519C227.525 188.571 227.466 188.611 227.4 188.637C227.334 188.662 227.264 188.673 227.193 188.667Z" fill="#191919"/>
<path d="M212.734 159.806C212.623 159.807 212.513 159.785 212.411 159.741C212.184 159.654 212 159.481 211.9 159.26C211.799 159.038 211.79 158.786 211.875 158.558C212.86 156.179 214.51 154.135 216.626 152.669C220.158 150.312 226.277 153.104 226.536 153.224C226.647 153.276 226.746 153.348 226.828 153.438C226.911 153.528 226.974 153.634 227.016 153.748C227.058 153.863 227.076 153.984 227.071 154.106C227.066 154.228 227.036 154.348 226.985 154.458C226.933 154.569 226.86 154.668 226.77 154.75C226.68 154.832 226.575 154.896 226.46 154.938C226.346 154.979 226.224 154.998 226.102 154.993C225.981 154.987 225.861 154.958 225.751 154.906C224.253 154.204 219.862 152.725 217.652 154.204C215.863 155.461 214.461 157.193 213.603 159.205C213.537 159.382 213.418 159.534 213.263 159.642C213.108 159.749 212.923 159.807 212.734 159.806Z" fill="#191919"/>
<path d="M249.398 155.831C249.229 155.832 249.063 155.787 248.918 155.701C248.773 155.614 248.655 155.49 248.575 155.341C247.527 153.557 245.928 152.161 244.018 151.366C243.194 151.067 242.306 150.99 241.442 151.142C240.579 151.295 239.771 151.672 239.1 152.235C239.009 152.317 238.904 152.381 238.789 152.423C238.674 152.464 238.552 152.482 238.43 152.476C238.308 152.47 238.188 152.44 238.078 152.387C237.967 152.335 237.869 152.261 237.787 152.17C237.623 151.988 237.538 151.749 237.55 151.505C237.562 151.261 237.671 151.031 237.852 150.866C238.776 150.075 239.894 149.544 241.091 149.328C242.289 149.112 243.522 149.218 244.665 149.637C246.997 150.587 248.948 152.284 250.211 154.463C250.27 154.57 250.306 154.688 250.318 154.809C250.331 154.931 250.319 155.053 250.284 155.17C250.249 155.287 250.191 155.396 250.113 155.49C250.036 155.584 249.94 155.663 249.832 155.72C249.699 155.792 249.55 155.83 249.398 155.831Z" fill="#191919"/>
<path d="M222.063 165.17C222.931 165.17 223.634 164.185 223.634 162.97C223.634 161.755 222.931 160.77 222.063 160.77C221.195 160.77 220.491 161.755 220.491 162.97C220.491 164.185 221.195 165.17 222.063 165.17Z" fill="#191919"/>
<path d="M242.381 159.825C242.381 161.036 241.67 162.025 240.81 162.025C239.95 162.025 239.238 161.036 239.238 159.825C239.238 158.614 239.941 157.625 240.81 157.625C241.679 157.625 242.381 158.614 242.381 159.825Z" fill="#191919"/>
<path d="M207.964 167.886C207.964 167.886 203.989 162.238 202.103 166.629C200.218 171.02 202.103 174.588 203.952 177.528C205.801 180.468 209.813 181.928 209.813 181.928L207.964 167.886Z" fill="#BEA6A0"/>
<path d="M209.814 182.392C209.762 182.402 209.709 182.402 209.657 182.392C209.49 182.337 205.506 180.839 203.565 177.77C201.448 174.479 199.756 170.837 201.642 166.446C201.785 165.954 202.06 165.512 202.439 165.168C202.817 164.824 203.284 164.591 203.786 164.495C205.885 164.283 208.067 167.269 208.307 167.62C208.353 167.678 208.382 167.749 208.39 167.823L210.239 181.856C210.248 181.936 210.236 182.017 210.205 182.091C210.175 182.166 210.126 182.231 210.063 182.282C209.993 182.342 209.906 182.381 209.814 182.392ZM204.008 165.42H203.879C203.324 165.475 202.862 165.947 202.492 166.806C200.69 171.003 202.492 174.405 204.341 177.271C205.609 178.978 207.301 180.323 209.25 181.172L207.484 168.054C206.874 167.241 205.266 165.42 203.999 165.42H204.008Z" fill="#191919"/>
<path d="M254.63 160.982C254.63 160.982 255.046 156.997 256.729 157.413C258.411 157.829 261.545 160.982 259.659 165.373C257.773 169.764 255.887 174.386 255.887 174.386L254.187 165.798L254.63 160.982Z" fill="#BEA6A0"/>
<path d="M255.887 174.847C255.788 174.835 255.695 174.792 255.622 174.724C255.549 174.656 255.5 174.566 255.481 174.468L253.807 165.88C253.802 165.837 253.802 165.794 253.807 165.751L254.223 160.934C254.223 160.639 254.565 158.013 255.74 157.19C255.905 157.073 256.094 156.993 256.294 156.957C256.493 156.92 256.699 156.927 256.895 156.978C257.598 157.23 258.244 157.62 258.795 158.125C259.346 158.629 259.79 159.239 260.103 159.918C260.53 160.798 260.752 161.763 260.752 162.742C260.752 163.72 260.53 164.686 260.103 165.566C258.254 169.911 256.35 174.524 256.331 174.57C256.295 174.656 256.233 174.73 256.153 174.779C256.074 174.829 255.981 174.853 255.887 174.847ZM254.676 165.769L256.045 172.786C256.756 171.076 257.995 168.071 259.234 165.196C259.598 164.436 259.787 163.603 259.787 162.76C259.787 161.917 259.598 161.085 259.234 160.324C258.722 159.193 257.786 158.31 256.627 157.865C256.558 157.844 256.485 157.84 256.415 157.853C256.344 157.866 256.277 157.896 256.22 157.939C255.601 158.374 255.203 160.056 255.102 161.018L254.676 165.769Z" fill="#191919"/>
<path d="M434.999 417.202H47.5179C47.3953 417.202 47.2777 417.153 47.191 417.066C47.1044 416.98 47.0557 416.862 47.0557 416.74C47.0557 416.617 47.1044 416.499 47.191 416.413C47.2777 416.326 47.3953 416.277 47.5179 416.277H434.999C435.121 416.277 435.239 416.326 435.326 416.413C435.412 416.499 435.461 416.617 435.461 416.74C435.459 416.861 435.409 416.978 435.323 417.064C435.237 417.15 435.121 417.199 434.999 417.202Z" fill="#191919"/>
</svg>
