<svg width="118" height="135" viewBox="0 0 118 135" fill="none" xmlns="http://www.w3.org/2000/svg">
<path d="M68.275 1.56956L65.9869 0.208309C65.5354 -0.0871912 64.9322 -0.0791287 64.2691 0.303746L28.6525 20.8669C27.2539 21.6744 26.1201 23.8408 26.1201 25.7055V92.4321C26.1201 93.5336 26.5159 94.2834 27.1283 94.5461L28.2098 95.2033L29.1587 95.7589L68.275 1.56956Z" fill="url(#paint0_linear_594_1291)"/>
<path d="M66.5407 75.1327L30.924 95.6961C29.5254 96.5036 28.3916 95.6464 28.3916 93.7817V27.0551C28.3916 25.1902 29.5254 23.0241 30.924 22.2165L66.5407 1.65318C67.9393 0.845619 69.0731 1.70287 69.0731 3.56756V70.2941C69.0731 72.159 67.9393 74.3254 66.5407 75.1327Z" fill="url(#paint1_linear_594_1291)"/>
<path d="M51.9763 18.1091L33.8389 28.5525C33.0519 29.0068 32.4141 30.2256 32.4141 31.2748C32.4141 32.3241 33.0519 32.8061 33.8389 32.352L51.9763 21.9086C52.7633 21.4543 53.4011 20.2356 53.4011 19.1863C53.4011 18.1371 52.7633 17.655 51.9763 18.1091Z" fill="#E94F37"/>
<path d="M63.6246 23.4163L33.8389 40.8495C33.0519 41.3038 32.4141 42.5226 32.4141 43.5718C32.4141 44.6211 33.0519 45.1031 33.8389 44.649L63.6246 27.2158C64.4115 26.7615 65.0494 25.5427 65.0494 24.4935C65.0494 23.4442 64.4115 22.962 63.6246 23.4163Z" fill="#E94F37"/>
<path d="M63.6246 34.2036L33.8389 51.6367C33.0519 52.0911 32.4141 53.3098 32.4141 54.3591C32.4141 55.4083 33.0519 55.8904 33.8389 55.4362L63.6246 38.0031C64.4115 37.5487 65.0494 36.33 65.0494 35.2807C65.0494 34.2315 64.4115 33.7492 63.6246 34.2036Z" fill="#E94F37"/>
<path d="M63.6246 44.9908L33.8389 62.424C33.0519 62.8783 32.4141 64.0971 32.4141 65.1463C32.4141 66.1956 33.0519 66.6778 33.8389 66.2235L63.6246 48.7903C64.4115 48.336 65.0494 47.1172 65.0494 46.068C65.0494 45.0187 64.4115 44.5365 63.6246 44.9908Z" fill="#E94F37"/>
<path d="M51.0931 71.8618C50.9405 71.8618 50.7854 71.8245 50.6422 71.7456C50.1886 71.4962 50.0229 70.926 50.2724 70.4724C50.2865 70.4469 51.6929 67.8919 53.2513 65.3398C56.6011 59.8536 57.3706 59.7152 57.8799 59.6237C58.2279 59.5612 58.5761 59.6539 58.8354 59.8779C59.8573 60.7605 59.0283 62.3044 57.9791 64.2591C57.7239 64.7344 57.3746 65.385 57.1169 65.9475C57.3823 65.5423 57.6575 65.0556 57.8626 64.6933C58.5223 63.5276 59.2042 62.3222 60.1387 61.5879C60.4543 61.3401 61.193 60.7592 61.8753 61.2808C62.5629 61.8067 62.2385 62.5721 61.8629 63.4582C61.7874 63.6366 61.6749 63.9022 61.5759 64.1642C62.0653 63.7329 62.6975 62.9987 63.1873 62.2554C63.4721 61.8234 64.0531 61.7032 64.4855 61.9879C64.9179 62.2723 65.0381 62.8532 64.7538 63.2856C64.0946 64.2887 62.5083 66.4234 60.9553 66.4236C60.7664 66.4236 60.5784 66.3921 60.3922 66.3231C60.0419 66.1933 59.7676 65.9336 59.6201 65.5916C59.6034 65.553 59.5884 65.5138 59.5753 65.4741C59.5481 65.5219 59.5213 65.5695 59.4944 65.6167C58.5676 67.2549 57.5169 69.1114 55.8335 68.4564C55.439 68.3031 55.142 68.0027 54.9973 67.6106C54.8156 67.1182 54.8795 66.5593 55.1197 65.8794C54.0723 67.5701 52.9303 69.5304 51.9155 71.376C51.7447 71.6861 51.4239 71.8618 51.0931 71.8618Z" fill="#E94F37"/>
<path d="M54.6364 73.9333C54.357 73.9333 54.0808 73.809 53.8959 73.5716C53.5779 73.1631 53.6514 72.5741 54.06 72.2561C54.2878 72.0789 59.6829 67.8938 63.5711 66.0658C64.0395 65.8457 64.598 66.0469 64.8184 66.5154C65.0387 66.984 64.8375 67.5424 64.3687 67.7627C60.6705 69.5012 55.2656 73.6937 55.2116 73.7359C55.0402 73.8688 54.8375 73.9333 54.6364 73.9333Z" fill="#E94F37"/>
<path d="M70.531 56.8402L68.2906 63.1355C68.2184 63.3382 68.416 63.5327 68.6176 63.4573L74.636 61.2064L70.531 56.8402Z" fill="url(#paint2_linear_594_1291)"/>
<path d="M94.1397 42.3825L89.1096 37.7694L71.3192 55.5107L71.3206 55.512C70.7331 56.1277 70.3701 56.9599 70.3701 57.8781C70.3701 59.7729 71.9063 61.3091 73.8012 61.3091C74.755 61.3091 75.6173 60.9193 76.2392 60.2912L76.2396 60.2916L94.1397 42.3825Z" fill="url(#paint3_linear_594_1291)"/>
<path d="M94.2157 42.3067L89.3686 37.4597L87.5767 39.2516C87.572 39.2563 87.5671 39.2612 87.5624 39.2659L87.5553 39.273L87.5557 39.2734C84.5628 42.3015 89.0812 47.1079 92.2827 44.2369L92.2842 44.2384L94.2157 42.3067Z" fill="url(#paint4_linear_594_1291)"/>
<path d="M82.2649 54.2569L82.2634 54.2554C79.0621 57.1264 74.5435 52.32 77.5364 49.2919L77.536 49.2915L76.3208 50.5067C76.3161 50.5114 76.3112 50.5161 76.3066 50.5209L76.2994 50.5281L76.2998 50.5284C73.3069 53.5565 77.8253 58.3629 81.0267 55.4919L81.0282 55.4934L82.2649 54.2569Z" fill="url(#paint5_linear_594_1291)"/>
<path d="M95.2111 40.6345C95.6469 38.7907 94.5056 36.9427 92.6618 36.5069C90.8181 36.0711 88.9701 37.2124 88.5343 39.0562C88.0984 40.8999 89.2398 42.7479 91.0835 43.1837C92.9273 43.6196 94.7753 42.4782 95.2111 40.6345Z" fill="#E9E5F6"/>
<path d="M96.3979 41.6689L94.6017 39.8646L94.2239 40.2424L94.3994 40.4179L91.2812 43.197L93.1289 45.0446L92.7571 45.4284L93.0687 45.7401L93.4465 45.3622L93.4525 45.3682L96.3972 42.4236C96.6053 42.2154 96.6057 41.8777 96.3979 41.6689Z" fill="#E9E5F6"/>
<path d="M97.1344 38.2183L93.5344 34.6183L90.1891 37.9637C90.1855 37.9672 90.1819 37.9706 90.1786 37.9742L90.1733 37.9794L90.1735 37.9796C87.9507 40.2287 91.3066 43.7985 93.6842 41.6661L93.6854 41.6672L97.1344 38.2183Z" fill="url(#paint6_linear_594_1291)"/>
<path d="M97.8234 37.0388C98.1472 35.6694 97.2994 34.2969 95.9301 33.9732C94.5607 33.6495 93.1881 34.4972 92.8644 35.8666C92.5407 37.236 93.3884 38.6085 94.7578 38.9322C96.1272 39.2559 97.4997 38.4082 97.8234 37.0388Z" fill="#E9E5F6"/>
<path d="M70.0257 62.8697C69.3807 62.8697 68.8578 62.3467 68.8578 61.7017C68.8578 61.6266 68.8655 61.5532 68.8791 61.4818L68.2906 63.1356C68.2184 63.3382 68.416 63.5327 68.6176 63.4573L70.2466 62.8481C70.1751 62.8618 70.1013 62.8697 70.0257 62.8697Z" fill="#F08979"/>
<path d="M85.1807 52.5699L87.5462 50.2044C87.632 50.1186 87.7485 50.0704 87.87 50.0704H88.5682L85.9584 52.5699H85.1807Z" fill="#F08979"/>
<path d="M91.281 43.197L90.9032 43.5748L92.7568 45.4284L85.8889 52.2964L85.3427 52.4587C85.1959 52.5024 85.0997 52.6429 85.1125 52.7957L85.1479 53.2252C85.1614 53.3884 85.3596 53.4611 85.4753 53.3454L93.0745 45.7462C93.2831 45.5376 93.2831 45.1993 93.0745 44.9906L91.281 43.197Z" fill="#C5BAEB"/>
<g filter="url(#filter0_f_594_1291)">
<ellipse cx="59" cy="113.5" rx="51" ry="13.5" fill="#504643"/>
</g>
<defs>
<filter id="filter0_f_594_1291" x="0" y="92" width="118" height="43" filterUnits="userSpaceOnUse" color-interpolation-filters="sRGB">
<feFlood flood-opacity="0" result="BackgroundImageFix"/>
<feBlend mode="normal" in="SourceGraphic" in2="BackgroundImageFix" result="shape"/>
<feGaussianBlur stdDeviation="4" result="effect1_foregroundBlur_594_1291"/>
</filter>
<linearGradient id="paint0_linear_594_1291" x1="42.1234" y1="34.8735" x2="46.7912" y2="26.7885" gradientUnits="userSpaceOnUse">
<stop offset="0.0319" stop-color="#A996EB"/>
<stop offset="0.2213" stop-color="#BFB3EB"/>
<stop offset="0.4108" stop-color="#D1C9EB"/>
<stop offset="0.5321" stop-color="#D7D1EB"/>
<stop offset="1" stop-color="#E9E5F6"/>
</linearGradient>
<linearGradient id="paint1_linear_594_1291" x1="48.7323" y1="144.469" x2="48.7323" y2="4.65544" gradientUnits="userSpaceOnUse">
<stop stop-color="#DFDAEF"/>
<stop offset="1" stop-color="white"/>
</linearGradient>
<linearGradient id="paint2_linear_594_1291" x1="71.9496" y1="62.6289" x2="68.306" y2="58.9852" gradientUnits="userSpaceOnUse">
<stop offset="0.0319" stop-color="#A996EB"/>
<stop offset="0.2213" stop-color="#BFB3EB"/>
<stop offset="0.4108" stop-color="#D1C9EB"/>
<stop offset="0.5321" stop-color="#D7D1EB"/>
<stop offset="1" stop-color="#E9E5F6"/>
</linearGradient>
<linearGradient id="paint3_linear_594_1291" x1="84.9293" y1="53.5155" x2="77.326" y2="45.9122" gradientUnits="userSpaceOnUse">
<stop stop-color="#D44832"/>
<stop offset="0.2999" stop-color="#E94F37"/>
<stop offset="1" stop-color="#ED725F"/>
</linearGradient>
<linearGradient id="paint4_linear_594_1291" x1="90.886" y1="43.1182" x2="86.2475" y2="38.4797" gradientUnits="userSpaceOnUse">
<stop offset="0.0319" stop-color="#A996EB"/>
<stop offset="0.2213" stop-color="#BFB3EB"/>
<stop offset="0.4108" stop-color="#D1C9EB"/>
<stop offset="0.5321" stop-color="#D7D1EB"/>
<stop offset="1" stop-color="#E9E5F6"/>
</linearGradient>
<linearGradient id="paint5_linear_594_1291" x1="80.6566" y1="55.9761" x2="76.018" y2="51.3375" gradientUnits="userSpaceOnUse">
<stop offset="0.0319" stop-color="#A996EB"/>
<stop offset="0.2213" stop-color="#BFB3EB"/>
<stop offset="0.4108" stop-color="#D1C9EB"/>
<stop offset="0.5321" stop-color="#D7D1EB"/>
<stop offset="1" stop-color="#E9E5F6"/>
</linearGradient>
<linearGradient id="paint6_linear_594_1291" x1="93.7352" y1="39.9092" x2="89.1334" y2="35.3074" gradientUnits="userSpaceOnUse">
<stop offset="0.0319" stop-color="#A996EB"/>
<stop offset="0.2213" stop-color="#BFB3EB"/>
<stop offset="0.4108" stop-color="#D1C9EB"/>
<stop offset="0.5321" stop-color="#D7D1EB"/>
<stop offset="1" stop-color="#E9E5F6"/>
</linearGradient>
</defs>
</svg>
