<svg width="17" height="16" viewBox="0 0 17 16" fill="none" xmlns="http://www.w3.org/2000/svg">
<path d="M8.5 16C12.9183 16 16.5 12.4183 16.5 8C16.5 3.58172 12.9183 0 8.5 0C4.08172 0 0.5 3.58172 0.5 8C0.504781 12.4163 4.08369 15.9952 8.5 16ZM5.2 4.7C7.02384 2.88062 9.97616 2.88062 11.8 4.7C12.0558 4.96484 12.0484 5.38688 11.7836 5.64266C11.5253 5.89219 11.1157 5.89219 10.8573 5.64266C9.55544 4.34109 7.44487 4.34134 6.14331 5.64328C4.84175 6.94522 4.842 9.05575 6.14394 10.3573C7.44563 11.6587 9.55569 11.6587 10.8574 10.3573C11.1222 10.1015 11.5443 10.1089 11.8 10.3737C12.0495 10.6321 12.0495 11.0416 11.8 11.3C9.9775 13.1225 7.02256 13.1225 5.20003 11.3C3.37747 9.47747 3.37747 6.52253 5.2 4.7Z" fill="#CBB8B3"/>
</svg>
