<svg width="118" height="135" viewBox="0 0 118 135" fill="none" xmlns="http://www.w3.org/2000/svg">
<g clip-path="url(#clip0_594_1322)">
<path d="M81.1636 60.0389C79.879 58.2095 80.8909 54.2182 80.5245 51.9169L76.4653 49.5693L81.1448 37.4604L81.1446 37.4602C81.0401 37.385 70.2414 31.1236 70.2414 31.1236C69.5145 30.6683 68.5549 30.6855 67.4988 31.2962L66.436 31.9108C64.3953 25.2671 90.9124 14.3725 89.1893 13.1748L78.3983 6.90944C73.8758 4.14869 68.1333 4.28786 61.8159 7.94119C50.4337 14.6112 40.5922 31.4277 36.9641 48.9555L33.1607 65.9144L31.3892 66.9389C29.1246 68.2486 27.2891 71.7619 27.2891 74.7864C27.2891 76.5843 27.9406 77.7979 28.9424 78.217L28.9381 78.2204L39.2563 84.2077C39.8939 84.7057 40.7455 84.7957 41.6971 84.3947C43.4999 86.4744 56.2347 93.9876 56.2347 93.9876L56.2354 93.9872C60.7504 96.8068 91.1991 67.8574 89.9069 65.862C89.2642 64.9159 81.1636 60.0389 81.1636 60.0389Z" fill="url(#paint0_linear_594_1322)"/>
<path d="M89.9071 65.862C89.2641 64.9159 81.1636 60.0389 81.1636 60.0389L56.5944 75.8206L55.4668 83.8453L68.8871 86.7172L89.9071 65.862Z" fill="url(#paint1_linear_594_1322)"/>
<path d="M76.4652 49.5694L54.4945 62.2757L54.4941 66.0827V68.4091L80.5244 51.9171L76.4652 49.5694Z" fill="url(#paint2_linear_594_1322)"/>
<path d="M70.2416 31.124C69.5147 30.6686 68.5551 30.6857 67.499 31.2966L66.4362 31.9112L58.9999 34.7697L56.6299 50.0884C61.3344 50.0884 81.145 37.4604 81.145 37.4604C81.0403 37.3854 70.2416 31.124 70.2416 31.124Z" fill="url(#paint3_linear_594_1322)"/>
<path d="M36.9641 48.9555L31.3892 52.1796C29.1246 53.4894 27.2891 57.0025 27.2891 60.0271C27.2891 61.8226 27.9388 63.0357 28.9383 63.4562L33.1609 65.9146L39.2148 69.4158L47.7553 55.221L36.9641 48.9555Z" fill="url(#paint4_linear_594_1322)"/>
<path d="M89.1891 13.1748L78.3981 6.90963C73.8756 4.14888 68.1331 4.28804 61.8157 7.94137C50.4335 14.6112 40.5921 31.4277 36.9639 48.9555L47.7549 55.2209C47.7549 55.2209 57.3639 36.2902 61.5381 28.9416C64.1843 24.2826 70.847 21.8651 77.0136 20.9128C83.3861 17.0227 90.0825 13.7958 89.1891 13.1748Z" fill="url(#paint5_linear_594_1322)" fill-opacity="0.45"/>
<path d="M84.1645 67.976C80.9341 73.7939 77.0577 78.1209 72.6068 80.6948C67.6539 83.5592 63.0597 83.1435 59.6853 80.2681C58.4672 79.1517 57.423 77.6534 56.5942 75.8208L78.2898 63.2738C80.5544 61.9641 82.39 58.451 82.39 55.4263C82.39 52.4016 80.5544 51.0118 78.2898 52.3213L54.4942 66.0829C54.4651 65.4701 54.4451 64.8486 54.4451 64.2084C54.4451 63.5662 54.4653 62.9216 54.4946 62.2759L78.29 48.5144C80.5546 47.2047 82.3902 43.6914 82.3902 40.6669C82.3902 37.6424 80.5546 36.2523 78.29 37.5621L56.6296 50.0888C57.4528 47.3451 58.4844 44.6588 59.6854 42.0874C63.0599 35.3082 67.654 29.5793 72.6069 26.7149C77.0577 24.141 81.006 23.9417 84.1647 26.0648C85.8155 27.085 88.4716 25.1103 89.9072 21.5373C91.1993 18.0466 90.9124 14.3727 89.1893 13.1751C84.6668 10.4144 78.9243 10.5534 72.6069 14.2069C61.2245 20.8765 51.3831 37.693 47.7549 55.2207L42.1802 58.4448C39.9156 59.7545 38.0801 63.2678 38.0801 66.2923C38.0801 69.317 39.9156 70.707 42.1802 69.3973L46.3005 67.0146C46.2781 67.6587 46.2639 68.3012 46.2618 68.9409C46.2639 69.5781 46.2781 70.2037 46.3003 70.8217L42.1804 73.2044C39.9158 74.5141 38.0803 78.0272 38.0803 81.0519C38.0803 84.0766 39.9158 85.4666 42.1804 84.1567L47.7426 80.9399C51.3605 94.3562 61.2115 99.7922 72.6071 93.2018C78.9245 89.5483 84.6668 83.0454 89.1895 75.0537C90.9125 71.973 91.1994 67.8572 89.9074 65.862C88.4714 64.0587 85.8154 65.1564 84.1645 67.976Z" fill="url(#paint6_linear_594_1322)"/>
</g>
<g filter="url(#filter0_f_594_1322)">
<ellipse cx="59" cy="113.5" rx="51" ry="13.5" fill="#504643"/>
</g>
<defs>
<filter id="filter0_f_594_1322" x="0" y="92" width="118" height="43" filterUnits="userSpaceOnUse" color-interpolation-filters="sRGB">
<feFlood flood-opacity="0" result="BackgroundImageFix"/>
<feBlend mode="normal" in="SourceGraphic" in2="BackgroundImageFix" result="shape"/>
<feGaussianBlur stdDeviation="4" result="effect1_foregroundBlur_594_1322"/>
</filter>
<linearGradient id="paint0_linear_594_1322" x1="27.2891" y1="49.5902" x2="89.9472" y2="49.5902" gradientUnits="userSpaceOnUse">
<stop stop-color="#802B1E"/>
<stop offset="0.9916" stop-color="#A53827"/>
</linearGradient>
<linearGradient id="paint1_linear_594_1322" x1="69.5017" y1="77.3456" x2="81.7805" y2="56.1138" gradientUnits="userSpaceOnUse">
<stop stop-color="#622117"/>
<stop offset="0.1672" stop-color="#802B1E"/>
<stop offset="0.3714" stop-color="#A53827"/>
<stop offset="0.595" stop-color="#D44832"/>
<stop offset="0.8307" stop-color="#E94F37"/>
<stop offset="0.9916" stop-color="#ED725F"/>
</linearGradient>
<linearGradient id="paint2_linear_594_1322" x1="54.4941" y1="58.9892" x2="80.5244" y2="58.9892" gradientUnits="userSpaceOnUse">
<stop stop-color="#622117"/>
<stop offset="0.9916" stop-color="#A53827"/>
</linearGradient>
<linearGradient id="paint3_linear_594_1322" x1="56.6299" y1="40.4477" x2="81.1448" y2="40.4477" gradientUnits="userSpaceOnUse">
<stop stop-color="#622117"/>
<stop offset="0.9916" stop-color="#D44832"/>
</linearGradient>
<linearGradient id="paint4_linear_594_1322" x1="33.2237" y1="63.8305" x2="44.2063" y2="44.8401" gradientUnits="userSpaceOnUse">
<stop stop-color="#802B1E"/>
<stop offset="0.9916" stop-color="#D44832"/>
</linearGradient>
<linearGradient id="paint5_linear_594_1322" x1="42.1631" y1="63.4804" x2="77.5136" y2="2.35476" gradientUnits="userSpaceOnUse">
<stop stop-color="#622117"/>
<stop offset="0.9916" stop-color="#E94F37"/>
</linearGradient>
<linearGradient id="paint6_linear_594_1322" x1="38.0799" y1="53.6326" x2="90.7101" y2="53.6326" gradientUnits="userSpaceOnUse">
<stop stop-color="#D44832"/>
<stop offset="1" stop-color="#E94F37"/>
</linearGradient>
<clipPath id="clip0_594_1322">
<rect width="91" height="91.0001" fill="white" transform="translate(13.5 4.99994)"/>
</clipPath>
</defs>
</svg>
