<svg width="118" height="135" viewBox="0 0 118 135" fill="none" xmlns="http://www.w3.org/2000/svg">
<path d="M71.4279 24.8859C57.3527 24.8859 45.9424 36.2962 45.9424 50.3713V56.0496L45.9495 56.049C45.9474 59.4294 47.9861 62.6576 52.1629 65.0689C61.3772 70.3888 77.472 69.7217 88.1117 63.5788C93.9308 60.2192 96.9056 55.9179 96.906 51.8392L96.9133 51.8387V50.3713C96.9135 36.2961 85.5032 24.8859 71.4279 24.8859Z" fill="url(#paint0_linear_594_1333)"/>
<path d="M51.416 34.59H71.4279L68.6186 25.0408C61.656 25.8043 55.5371 29.3713 51.416 34.59Z" fill="url(#paint1_linear_594_1333)"/>
<path d="M71.428 34.5868C80.4357 34.5868 87.7379 27.2846 87.7379 18.2769C87.7379 9.26924 80.4357 1.96706 71.428 1.96706C62.4203 1.96706 55.1182 9.26924 55.1182 18.2769C55.1182 27.2846 62.4203 34.5868 71.428 34.5868Z" fill="url(#paint2_radial_594_1333)"/>
<path d="M36.4856 45.0296C22.4101 45.0296 11 56.4399 11 70.5152V76.1934L11.0071 76.1929C11.0051 79.5733 13.0437 82.8015 17.2205 85.2127C26.4348 90.5327 42.5296 89.8656 53.1693 83.7227C58.9884 80.3631 61.9632 76.0618 61.9636 71.9831L61.9709 71.9826V70.5152C61.9709 56.4399 50.5608 45.0296 36.4856 45.0296Z" fill="url(#paint3_linear_594_1333)"/>
<path d="M16.4736 54.7339H36.4857L33.6764 45.1847C26.7136 45.9482 20.5947 49.5152 16.4736 54.7339Z" fill="url(#paint4_linear_594_1333)"/>
<path d="M36.4857 54.7305C45.4934 54.7305 52.7955 47.4283 52.7955 38.4206C52.7955 29.4129 45.4934 22.1107 36.4857 22.1107C27.478 22.1107 20.1758 29.4129 20.1758 38.4206C20.1758 47.4283 27.478 54.7305 36.4857 54.7305Z" fill="url(#paint5_radial_594_1333)"/>
<path d="M81.5149 50.2618C67.4396 50.2618 56.0293 61.6721 56.0293 75.7472V81.4254L56.0364 81.4249C56.0344 84.8053 58.073 88.0335 62.2498 90.4448C71.4641 95.7647 87.5589 95.0976 98.1986 88.9547C104.018 85.5951 106.993 81.2938 106.993 77.2151L107 77.2146V75.7472C107 61.6719 95.5901 50.2618 81.5149 50.2618Z" fill="url(#paint6_linear_594_1333)"/>
<path d="M61.5029 59.9659H81.515L78.7057 50.4165C71.7429 51.1802 65.624 54.7472 61.5029 59.9659Z" fill="url(#paint7_linear_594_1333)"/>
<path d="M81.515 59.9627C90.5226 59.9627 97.8248 52.6605 97.8248 43.6528C97.8248 34.6451 90.5226 27.3429 81.515 27.3429C72.5073 27.3429 65.2051 34.6451 65.2051 43.6528C65.2051 52.6605 72.5073 59.9627 81.515 59.9627Z" fill="url(#paint8_radial_594_1333)"/>
<g filter="url(#filter0_f_594_1333)">
<ellipse cx="59" cy="113.5" rx="51" ry="13.5" fill="#504643"/>
</g>
<defs>
<filter id="filter0_f_594_1333" x="0" y="92" width="118" height="43" filterUnits="userSpaceOnUse" color-interpolation-filters="sRGB">
<feFlood flood-opacity="0" result="BackgroundImageFix"/>
<feBlend mode="normal" in="SourceGraphic" in2="BackgroundImageFix" result="shape"/>
<feGaussianBlur stdDeviation="4" result="effect1_foregroundBlur_594_1333"/>
</filter>
<linearGradient id="paint0_linear_594_1333" x1="45.9426" y1="46.7732" x2="96.9135" y2="46.7732" gradientUnits="userSpaceOnUse">
<stop stop-color="#877672"/>
<stop offset="0.3492" stop-color="#AD9792"/>
<stop offset="1" stop-color="#BEA6A0"/>
</linearGradient>
<linearGradient id="paint1_linear_594_1333" x1="72.2143" y1="29.8153" x2="52.4917" y2="29.8153" gradientUnits="userSpaceOnUse">
<stop offset="0.0319" stop-color="#695B58"/>
<stop offset="1" stop-color="#AD9792"/>
</linearGradient>
<radialGradient id="paint2_radial_594_1333" cx="0" cy="0" r="1" gradientUnits="userSpaceOnUse" gradientTransform="translate(74.9558 12.4069) scale(23.1602)">
<stop stop-color="#CBB8B3"/>
<stop offset="0.1714" stop-color="#BEA6A0"/>
<stop offset="0.488" stop-color="#BEA6A0"/>
<stop offset="0.912" stop-color="#AD9792"/>
<stop offset="1" stop-color="#877672"/>
</radialGradient>
<linearGradient id="paint3_linear_594_1333" x1="11" y1="66.9171" x2="61.9709" y2="66.9171" gradientUnits="userSpaceOnUse">
<stop stop-color="#171717"/>
<stop offset="0.4762" stop-color="#191919"/>
<stop offset="1" stop-color="#474747"/>
</linearGradient>
<linearGradient id="paint4_linear_594_1333" x1="37.2719" y1="49.9592" x2="17.5493" y2="49.9592" gradientUnits="userSpaceOnUse">
<stop offset="0.0319" stop-color="#191919"/>
<stop offset="1" stop-color="#474747"/>
</linearGradient>
<radialGradient id="paint5_radial_594_1333" cx="0" cy="0" r="1" gradientUnits="userSpaceOnUse" gradientTransform="translate(40.0135 32.5507) scale(23.1602)">
<stop stop-color="#656565"/>
<stop offset="0.2328" stop-color="#474747"/>
<stop offset="0.6609" stop-color="#191919"/>
<stop offset="1" stop-color="#171717"/>
</radialGradient>
<linearGradient id="paint6_linear_594_1333" x1="56.0293" y1="72.1491" x2="107" y2="72.1491" gradientUnits="userSpaceOnUse">
<stop stop-color="#A53827"/>
<stop offset="0.3492" stop-color="#D44832"/>
<stop offset="1" stop-color="#E94F37"/>
</linearGradient>
<linearGradient id="paint7_linear_594_1333" x1="82.3012" y1="55.1914" x2="62.5786" y2="55.1914" gradientUnits="userSpaceOnUse">
<stop offset="0.0319" stop-color="#B31B04"/>
<stop offset="1" stop-color="#D44832"/>
</linearGradient>
<radialGradient id="paint8_radial_594_1333" cx="0" cy="0" r="1" gradientUnits="userSpaceOnUse" gradientTransform="translate(85.043 37.7827) scale(23.1602)">
<stop stop-color="#ED725F"/>
<stop offset="0.2112" stop-color="#E94F37"/>
<stop offset="0.6012" stop-color="#D44832"/>
<stop offset="1" stop-color="#A53827"/>
</radialGradient>
</defs>
</svg>
