<svg width="236" height="275" viewBox="0 0 236 275" fill="none" xmlns="http://www.w3.org/2000/svg">
<path d="M79.217 58.048L79.2178 58.046L53.5354 43.6375L53.5159 43.6766C49.7437 41.3297 44.7687 41.425 39.2953 44.5848C27.5343 51.3754 18 69.5925 18 85.2741C18 93.2733 20.4902 99.0499 24.4816 101.906L24.4746 101.92L24.8027 102.109C25.2191 102.386 25.6457 102.64 26.0926 102.854L50.4144 116.477C54.237 119.137 59.412 119.144 65.1151 115.851C76.8764 109.061 86.4108 90.844 86.4108 75.1624C86.4108 66.6945 83.6268 60.7039 79.217 58.048Z" fill="url(#paint0_linear_594_1265)"/>
<path d="M86.4097 75.1627C86.4097 90.8443 76.8753 109.061 65.114 115.852C53.3527 122.642 43.8184 115.434 43.8184 99.7525C43.8184 84.0709 53.3527 65.8538 65.114 59.0636C76.8753 52.2734 86.4097 59.4812 86.4097 75.1627Z" fill="url(#paint1_linear_594_1265)"/>
<path d="M94.0927 73.6745L94.0935 73.6729L81.972 66.5706L81.9568 66.6015C79.0009 64.7628 75.1033 64.837 70.815 67.3132C61.6002 72.6335 54.1299 86.9069 54.1299 99.1936C54.1299 105.461 56.0811 109.987 59.2084 112.224L59.2029 112.236L59.4599 112.384C59.7861 112.601 60.1205 112.8 60.4705 112.967L71.5259 119.454C74.5208 121.539 78.5755 121.544 83.0439 118.965C92.2587 113.644 99.729 99.3713 99.729 87.0846C99.7294 80.4491 97.5481 75.7558 94.0927 73.6745Z" fill="url(#paint2_linear_594_1265)"/>
<path d="M96.3926 102.445C101.938 89.4302 100.465 76.3362 93.1016 73.1989C85.7385 70.0616 75.274 78.0689 69.7285 91.0839C64.183 104.099 65.6565 117.193 73.0196 120.33C80.3826 123.467 90.8471 115.46 96.3926 102.445Z" fill="#FDEDEB"/>
<path d="M89.5706 125.703C89.5706 125.703 87.5816 129.966 83.7789 131.816C79.9761 133.666 75.8082 130.66 73.8035 129.388C71.7988 128.117 70.6531 125.849 72.0851 124.128C73.5168 122.406 76.3746 121.045 79.3949 122.145C82.4152 123.244 85.4183 125.978 89.5706 125.703Z" fill="url(#paint3_linear_594_1265)"/>
<path d="M141.661 101.238C141.661 101.238 139.211 90.6718 135.995 87.9152C132.779 85.1589 112.871 83.7804 104.602 83.4741C101.542 83.3609 98.8193 82.5273 96.6025 81.5222C90.847 78.9117 84.0576 80.3409 79.7818 84.9941C77.0807 87.9335 74.5982 91.8901 73.3619 97.1034C69.8397 111.958 77.4967 118.696 77.4967 118.696C77.4967 118.696 93.4345 147.413 101.857 152.16C101.857 152.16 108.792 159.977 114.443 159.217C117.599 158.792 118.324 157.64 119.413 157.051C119.586 157.045 121.404 158.135 126.347 157.676C130.697 157.273 132.096 153.658 132.096 153.658C132.096 153.658 136.147 154.496 139.224 153.522C143.471 152.178 145.622 146.934 145.398 142.905C147.408 126.077 141.661 101.238 141.661 101.238Z" fill="url(#paint4_linear_594_1265)"/>
<path opacity="0.5" d="M124.973 155.897C121.539 155.711 119.566 154.586 116.503 152.172C113.44 149.759 105.318 139.808 105.318 139.808C105.318 139.808 114.037 153.946 119.414 157.05C119.587 157.045 121.405 158.134 126.348 157.676C130.698 157.272 132.097 153.657 132.097 153.657C132.097 153.657 128.407 156.083 124.973 155.897Z" fill="url(#paint5_linear_594_1265)"/>
<path opacity="0.5" d="M150.691 145.197C150.678 145.255 146.88 147.411 141.298 145.197C135.717 142.983 124.625 127.508 124.625 127.508C124.625 127.508 137.666 142.148 143.793 143.169C149.919 144.189 152.146 142.358 152.146 142.358L150.691 145.197Z" fill="url(#paint6_linear_594_1265)"/>
<path opacity="0.5" d="M144.81 147.242L143.838 145.211C143.838 145.211 143.295 150.313 138.269 151.058C130.102 152.269 114.182 133.097 114.182 133.097C114.182 133.097 126.104 150.198 132.096 153.658C132.099 153.658 136.148 154.496 139.224 153.522C142.024 152.636 143.912 150.054 144.81 147.242Z" fill="url(#paint7_linear_594_1265)"/>
<path d="M127.879 113.999L110.422 112.366C110.422 112.366 105.011 119.819 98.7833 119.206C92.556 118.594 101.029 112.366 101.029 112.366C101.029 112.366 102.357 100.115 114.403 102.565C126.45 105.015 128.492 107.363 128.492 107.67C128.491 107.976 127.879 113.999 127.879 113.999Z" fill="url(#paint8_linear_594_1265)"/>
<path d="M171.775 120.754L153.147 113.03C153.147 113.03 147.174 104.301 141.968 99.0944C136.761 93.8878 132.014 92.2034 127.879 92.5096C123.744 92.8159 109.35 94.194 108.048 95.496C106.746 96.7975 100.698 106.139 98.4003 108.589C96.1035 111.039 96.4863 112.953 97.941 114.485C99.3956 116.016 104.679 116.246 107.435 113.949C110.192 111.652 112.719 107.594 112.719 107.594L124.357 109.814C124.357 109.814 124.816 135.847 148.399 137.991C171.982 140.135 171.775 120.754 171.775 120.754Z" fill="url(#paint9_linear_594_1265)"/>
<path d="M92.9842 140.986C92.9842 140.986 88.5674 142.604 84.5674 141.233C80.5674 139.861 79.7335 134.79 79.2096 132.475C78.6858 130.16 79.4733 127.744 81.7026 127.534C83.9319 127.324 86.9174 128.376 88.2823 131.285C89.6471 134.195 89.8471 138.251 92.9842 140.986Z" fill="url(#paint10_linear_594_1265)"/>
<path d="M97.9738 150.139C97.9738 150.139 93.3086 150.742 89.7102 148.522C86.1114 146.301 86.4176 141.172 86.4176 138.798C86.4176 136.424 87.7192 134.242 89.9399 134.529C92.1602 134.816 94.8402 136.501 95.5293 139.64C96.2184 142.779 95.518 146.779 97.9738 150.139Z" fill="url(#paint11_linear_594_1265)"/>
<path d="M106.268 156.15C106.268 156.15 99.0903 158.204 95.4914 155.984C91.8926 153.764 92.1989 148.634 92.1989 146.26C92.1989 143.886 93.5004 141.704 95.7211 141.991C97.9414 142.278 100.622 143.963 101.311 147.102C102 150.241 103.813 152.791 106.268 156.15Z" fill="url(#paint12_linear_594_1265)"/>
<path d="M190.026 124.307L190.027 124.305L169.905 113.016L169.889 113.047C166.934 111.208 163.036 111.283 158.748 113.758C149.533 119.079 142.062 133.352 142.062 145.639C142.062 151.906 144.014 156.432 147.141 158.67L147.136 158.681L147.393 158.829C147.719 159.046 148.053 159.245 148.403 159.413L167.459 170.086C170.455 172.171 174.509 172.176 178.977 169.597C188.192 164.276 195.662 150.003 195.662 137.717C195.662 131.081 193.482 126.388 190.026 124.307Z" fill="url(#paint13_linear_594_1265)"/>
<path d="M192.361 153.115C197.907 140.1 196.433 127.006 189.07 123.869C181.707 120.731 171.243 128.739 165.697 141.754C160.152 154.769 161.625 167.863 168.988 171C176.351 174.137 186.816 166.13 192.361 153.115Z" fill="#FDEDEB"/>
<path d="M210.805 127.641L210.806 127.639L185.124 113.23L185.104 113.27C181.332 110.923 176.357 111.018 170.884 114.178C159.123 120.969 149.588 139.186 149.588 154.867C149.588 162.866 152.078 168.643 156.07 171.499L156.062 171.513L156.391 171.702C156.807 171.979 157.234 172.233 157.68 172.447L182.002 186.07C185.825 188.73 191 188.737 196.703 185.445C208.465 178.655 217.999 160.438 217.999 144.756C217.999 136.287 215.215 130.297 210.805 127.641Z" fill="url(#paint14_linear_594_1265)"/>
<path d="M218 144.756C218 160.437 208.465 178.654 196.704 185.445C184.943 192.235 175.408 185.027 175.408 169.345C175.408 153.664 184.943 135.447 196.704 128.656C208.465 121.866 218 129.074 218 144.756Z" fill="url(#paint15_linear_594_1265)"/>
<g filter="url(#filter0_f_594_1265)">
<ellipse cx="118" cy="230.5" rx="99.5" ry="26.5" fill="#622117"/>
</g>
<defs>
<filter id="filter0_f_594_1265" x="0.5" y="186" width="235" height="89" filterUnits="userSpaceOnUse" color-interpolation-filters="sRGB">
<feFlood flood-opacity="0" result="BackgroundImageFix"/>
<feBlend mode="normal" in="SourceGraphic" in2="BackgroundImageFix" result="shape"/>
<feGaussianBlur stdDeviation="9" result="effect1_foregroundBlur_594_1265"/>
</filter>
<linearGradient id="paint0_linear_594_1265" x1="34.0535" y1="111.659" x2="54.1855" y2="76.789" gradientUnits="userSpaceOnUse">
<stop stop-color="#3A3331"/>
<stop offset="1" stop-color="#695B58"/>
</linearGradient>
<linearGradient id="paint1_linear_594_1265" x1="65.114" y1="110.969" x2="65.114" y2="32.8551" gradientUnits="userSpaceOnUse">
<stop stop-color="#433A38"/>
<stop offset="0.3965" stop-color="#5E524F"/>
<stop offset="1" stop-color="#AD9792"/>
</linearGradient>
<linearGradient id="paint2_linear_594_1265" x1="62.756" y1="117.688" x2="78.4728" y2="90.4659" gradientUnits="userSpaceOnUse">
<stop stop-color="#A996EB"/>
<stop offset="0.39" stop-color="#C5BAEB"/>
<stop offset="1" stop-color="#F2EFFA"/>
</linearGradient>
<linearGradient id="paint3_linear_594_1265" x1="76.8043" y1="131.122" x2="83.0018" y2="121.352" gradientUnits="userSpaceOnUse">
<stop stop-color="#DEA861"/>
<stop offset="1" stop-color="#EBCBA0"/>
</linearGradient>
<linearGradient id="paint4_linear_594_1265" x1="136.869" y1="146.226" x2="117.098" y2="118.937" gradientUnits="userSpaceOnUse">
<stop stop-color="#CC8241"/>
<stop offset="1" stop-color="#DEA861"/>
</linearGradient>
<linearGradient id="paint5_linear_594_1265" x1="129.085" y1="166.078" x2="112.513" y2="135.185" gradientUnits="userSpaceOnUse">
<stop stop-color="#8B451C"/>
<stop offset="1" stop-color="#8B451C" stop-opacity="0"/>
</linearGradient>
<linearGradient id="paint6_linear_594_1265" x1="149.489" y1="155.631" x2="131.88" y2="122.805" gradientUnits="userSpaceOnUse">
<stop stop-color="#8B451C"/>
<stop offset="1" stop-color="#8B451C" stop-opacity="0"/>
</linearGradient>
<linearGradient id="paint7_linear_594_1265" x1="143.896" y1="163.448" x2="120.168" y2="124.725" gradientUnits="userSpaceOnUse">
<stop stop-color="#8B451C"/>
<stop offset="1" stop-color="#8B451C" stop-opacity="0"/>
</linearGradient>
<linearGradient id="paint8_linear_594_1265" x1="121.37" y1="94.9819" x2="107.329" y2="126.628" gradientUnits="userSpaceOnUse">
<stop stop-color="#8B451C"/>
<stop offset="1" stop-color="#8B451C" stop-opacity="0"/>
</linearGradient>
<linearGradient id="paint9_linear_594_1265" x1="134.27" y1="154.07" x2="134.27" y2="85.3077" gradientUnits="userSpaceOnUse">
<stop stop-color="#DEA861"/>
<stop offset="1" stop-color="#EBCBA0"/>
</linearGradient>
<linearGradient id="paint10_linear_594_1265" x1="79.9769" y1="135.922" x2="91.2499" y2="133.367" gradientUnits="userSpaceOnUse">
<stop stop-color="#DEA861"/>
<stop offset="1" stop-color="#EBCBA0"/>
</linearGradient>
<linearGradient id="paint11_linear_594_1265" x1="86.4114" y1="142.359" x2="97.9738" y2="142.359" gradientUnits="userSpaceOnUse">
<stop stop-color="#DEA861"/>
<stop offset="1" stop-color="#EBCBA0"/>
</linearGradient>
<linearGradient id="paint12_linear_594_1265" x1="92.1926" y1="149.491" x2="106.268" y2="149.491" gradientUnits="userSpaceOnUse">
<stop stop-color="#DEA861"/>
<stop offset="1" stop-color="#EBCBA0"/>
</linearGradient>
<linearGradient id="paint13_linear_594_1265" x1="154.641" y1="166.311" x2="170.414" y2="138.991" gradientUnits="userSpaceOnUse">
<stop stop-color="#A996EB"/>
<stop offset="0.39" stop-color="#C5BAEB"/>
<stop offset="1" stop-color="#F2EFFA"/>
</linearGradient>
<linearGradient id="paint14_linear_594_1265" x1="165.642" y1="181.252" x2="185.774" y2="146.382" gradientUnits="userSpaceOnUse">
<stop stop-color="#622117"/>
<stop offset="0.3965" stop-color="#A53827"/>
<stop offset="1" stop-color="#ED725F"/>
</linearGradient>
<linearGradient id="paint15_linear_594_1265" x1="196.704" y1="180.563" x2="196.704" y2="102.448" gradientUnits="userSpaceOnUse">
<stop stop-color="#622117"/>
<stop offset="0.3965" stop-color="#A53827"/>
<stop offset="1" stop-color="#ED725F"/>
</linearGradient>
</defs>
</svg>
