<svg width="235" height="275" viewBox="0 0 235 275" fill="none" xmlns="http://www.w3.org/2000/svg">
<g clip-path="url(#clip0_594_1216)">
<path d="M92.9426 63.1262C91.332 63.1262 89.6289 62.6329 87.9285 61.6512C81.966 58.2082 77.2949 49.3864 77.2949 41.5672C77.2949 36.9989 78.9457 33.4262 81.8238 31.7645C84.3582 30.3016 87.452 30.4766 90.5344 32.2567C96.4969 35.6989 101.168 44.5207 101.168 52.3403C101.168 56.9086 99.5172 60.4813 96.6398 62.1426C95.5027 62.7993 94.2535 63.1262 92.9426 63.1262ZM85.5277 36.0032C85.1473 36.0032 84.7715 36.0813 84.4293 36.2786C83.2262 36.9735 82.5074 38.9504 82.5074 41.5672C82.5074 47.4946 86.1828 54.6247 90.534 57.1372C91.3469 57.6063 92.882 58.2938 94.0328 57.6293C95.2359 56.9344 95.9547 54.9575 95.9547 52.3411C95.9547 46.4133 92.2793 39.2836 87.9281 36.7711C87.357 36.4411 86.4289 36.0032 85.5277 36.0032Z" fill="#F2EFFA"/>
<path d="M119.915 47.5364C118.304 47.5364 116.601 47.043 114.901 46.0614C108.939 42.6192 104.268 33.7973 104.268 25.9778C104.268 21.4094 105.918 17.8367 108.796 16.175C111.33 14.7121 114.424 14.8871 117.507 16.6672C123.47 20.1098 128.141 28.9317 128.141 36.7508C128.141 41.3188 126.49 44.8918 123.612 46.5532C122.475 47.2094 121.226 47.5364 119.915 47.5364ZM112.5 20.4133C112.12 20.4133 111.744 20.4914 111.402 20.6887C110.198 21.3836 109.48 23.3606 109.48 25.977C109.48 31.9047 113.155 39.0348 117.507 41.5465C118.32 42.0157 119.855 42.7035 121.005 42.0387C122.209 41.3438 122.927 39.3668 122.927 36.7504C122.927 30.8231 119.252 23.693 114.901 21.1805C114.33 20.8512 113.401 20.4133 112.5 20.4133Z" fill="#F2EFFA"/>
<path d="M143.668 33.8277C142.057 33.8277 140.353 33.334 138.653 32.3523C132.691 28.9098 128.02 20.0879 128.02 12.2687C128.02 7.70078 129.67 4.12773 132.548 2.4664C135.083 1.00351 138.177 1.17851 141.259 2.95859C147.221 6.40078 151.893 15.2227 151.893 23.0422C151.893 27.6105 150.242 31.1832 147.364 32.8449C146.227 33.5012 144.978 33.8277 143.668 33.8277ZM136.252 6.70508C135.871 6.70508 135.496 6.7832 135.154 6.98047C133.951 7.67539 133.232 9.65234 133.232 12.2687C133.232 18.1961 136.907 25.3262 141.259 27.8387C142.072 28.3078 143.607 28.9949 144.757 28.3309C145.961 27.6359 146.679 25.659 146.679 23.0426C146.679 17.1148 143.004 9.98476 138.653 7.47305C138.082 7.14297 137.154 6.70508 136.252 6.70508Z" fill="#F2EFFA"/>
<path d="M65.2668 79.0801C63.6562 79.0801 61.9531 78.5867 60.2527 77.6051C54.2902 74.1629 49.6191 65.341 49.6191 57.5211C49.6191 52.9531 51.2699 49.3801 54.1473 47.7188C56.6805 46.2563 59.7742 46.4305 62.8586 48.2109C68.8211 51.6531 73.4922 60.475 73.4922 68.2949C73.4922 72.8629 71.8414 76.4359 68.9641 78.0973C67.8273 78.7535 66.5777 79.0801 65.2668 79.0801ZM57.852 51.9574C57.4711 51.9574 57.0957 52.0356 56.7535 52.2328C55.5496 52.9277 54.8316 54.9047 54.8316 57.5211C54.8316 63.4488 58.507 70.5789 62.8582 73.0906C63.6711 73.5602 65.2066 74.2469 66.357 73.5828C67.5609 72.8879 68.2789 70.9109 68.2789 68.2945C68.2789 62.3668 64.6035 55.2367 60.2523 52.725C59.6813 52.3953 58.7531 51.9574 57.852 51.9574Z" fill="#F2EFFA"/>
<path d="M165.461 8.51877L151.93 0.612516C150.602 -0.257016 148.827 -0.233187 146.876 0.892984L42.1055 61.3824C37.9914 63.7578 34.6562 70.1301 34.6562 75.6156V185.603C34.6562 188.843 35.8207 191.048 37.6215 191.822L47.6043 197.657L50.3953 199.291L165.461 8.51877Z" fill="url(#paint0_linear_594_1216)"/>
<path d="M160.359 138.617L55.5879 199.106C51.4738 201.481 48.1387 198.96 48.1387 193.474V83.4875C48.1387 78.002 51.4738 71.6293 55.5879 69.2543L160.359 8.76488C164.473 6.38949 167.808 8.91097 167.808 14.3965V124.384C167.808 129.869 164.473 136.241 160.359 138.617Z" fill="url(#paint1_linear_594_1216)"/>
<path d="M146.876 0.892984L42.1055 61.3824C37.9914 63.7578 34.6562 70.1301 34.6562 75.6156V91.4098L48.1383 99.1938L165.461 8.51877L151.93 0.612516C150.601 -0.257016 148.827 -0.233187 146.876 0.892984Z" fill="url(#paint2_linear_594_1216)"/>
<path d="M94.0326 85.6504L78.3252 94.7192V115.663L94.0326 106.594V85.6504Z" fill="#E94F37"/>
<path d="M115.827 73.0676L100.119 82.1364V103.08L115.827 94.011V73.0676Z" fill="#E94F37"/>
<path d="M137.621 60.4848L121.914 69.5536V90.4969L137.621 81.4282V60.4848Z" fill="#E94F37"/>
<path d="M159.415 47.902L143.708 56.9707V77.9141L159.415 68.8453V47.902Z" fill="#877672"/>
<path d="M72.2387 127.918L56.5312 136.987V157.931L72.2387 148.862V127.918Z" fill="#E94F37"/>
<path d="M94.0326 115.336L78.3252 124.404V145.348L94.0326 136.279V115.336Z" fill="#E94F37"/>
<path d="M115.827 102.753L100.119 111.822V132.765L115.827 123.696V102.753Z" fill="#E94F37"/>
<path d="M137.621 90.17L121.914 99.2387V120.182L137.621 111.113V90.17Z" fill="#E94F37"/>
<path d="M159.415 77.5872L143.708 86.6559V107.599L159.415 98.5305V77.5872Z" fill="#877672"/>
<path d="M72.2387 157.604L56.5312 166.672V187.616L72.2387 178.547V157.604Z" fill="#E94F37"/>
<path d="M94.0326 145.021L78.3252 154.09V175.033L94.0326 165.964V145.021Z" fill="#E94F37"/>
<path d="M115.827 132.438L100.119 141.507V162.45L115.827 153.381V132.438Z" fill="#E94F37"/>
<path d="M137.621 119.855L121.914 128.924V149.867L137.621 140.798V119.855Z" fill="#E94F37"/>
<path d="M160.358 8.76483L55.5873 69.2543C51.4729 71.6297 48.1377 78.0019 48.1377 83.4875V99.1934L167.807 30.1023V14.3965C167.807 8.91093 164.472 6.38983 160.358 8.76483Z" fill="#877672"/>
<path d="M60.4316 76.491H65.6684V87.3977H60.4316V76.491Z" fill="url(#paint3_linear_594_1216)"/>
<path d="M62.8579 48.211C59.8411 46.4696 56.7989 46.266 54.2939 47.6363C53.031 48.327 52.5669 49.9106 53.2575 51.1735C53.9482 52.4367 55.5333 52.9 56.7943 52.2098C57.9404 51.5832 59.4525 52.2637 60.2521 52.7254C64.6032 55.2371 68.2786 62.3672 68.2786 68.2949C68.2786 70.9117 67.5607 72.8887 66.3568 73.5832C65.3661 74.1551 64.0939 73.725 63.2396 73.2949C62.9407 73.1238 62.5568 73.1305 62.1318 73.3762C61.1904 73.9196 60.4271 75.3778 60.4271 76.6332C60.4271 77.3539 60.6837 77.8406 61.0763 78.0305L61.0736 78.0367C62.4989 78.7281 63.9154 79.0801 65.2665 79.0801C66.5775 79.0801 67.8271 78.7535 68.9638 78.0973C71.8411 76.436 73.4919 72.8629 73.4919 68.2949C73.4915 60.475 68.8204 51.6531 62.8579 48.211Z" fill="url(#paint4_linear_594_1216)"/>
<path d="M88.1084 60.5359H93.3451V71.4426H88.1084V60.5359Z" fill="url(#paint5_linear_594_1216)"/>
<path d="M90.5347 32.2555C87.5179 30.5141 84.4757 30.3106 81.9706 31.6809C80.7077 32.3715 80.2437 33.9551 80.9343 35.218C81.6249 36.4813 83.2101 36.9446 84.471 36.2543C85.6171 35.6278 87.1292 36.3082 87.9288 36.77C92.28 39.2817 95.9554 46.4118 95.9554 52.3395C95.9554 54.9563 95.2374 56.9332 94.0335 57.6278C93.0429 58.1997 91.7706 57.7696 90.9163 57.3395C90.6175 57.1684 90.2335 57.175 89.8085 57.4207C88.8671 57.9641 88.1038 59.4223 88.1038 60.6778C88.1038 61.3989 88.3605 61.8852 88.753 62.075L88.7503 62.0813C90.1753 62.7727 91.5921 63.1247 92.9433 63.1247C94.2542 63.1247 95.5038 62.7981 96.6405 62.1415C99.5179 60.4801 101.169 56.9071 101.169 52.3391C101.168 44.5196 96.4972 35.6977 90.5347 32.2555Z" fill="url(#paint6_linear_594_1216)"/>
<path d="M115.08 44.9067H120.317V55.8133H115.08V44.9067Z" fill="url(#paint7_linear_594_1216)"/>
<path d="M117.506 16.6262C114.49 14.8848 111.447 14.6813 108.942 16.0516C107.679 16.7422 107.215 18.3258 107.906 19.5887C108.597 20.852 110.182 21.3152 111.443 20.625C112.589 19.9984 114.101 20.6789 114.901 21.1406C119.252 23.6524 122.927 30.7824 122.927 36.7102C122.927 39.327 122.209 41.3039 121.005 41.9984C120.015 42.5703 118.742 42.1402 117.888 41.7102C117.589 41.5391 117.205 41.5457 116.78 41.7914C115.839 42.3352 115.076 43.7934 115.076 45.0484C115.076 45.7695 115.332 46.2559 115.725 46.4457L115.722 46.452C117.147 47.1434 118.564 47.4953 119.915 47.4953C121.226 47.4953 122.476 47.1688 123.612 46.5125C126.49 44.8508 128.14 41.2781 128.14 36.7102C128.14 28.8906 123.469 20.0688 117.506 16.6262Z" fill="url(#paint8_linear_594_1216)"/>
<path d="M138.866 31.1949H144.103V42.1016H138.866V31.1949Z" fill="url(#paint9_linear_594_1216)"/>
<path d="M141.293 2.91445C138.276 1.17304 135.234 0.969527 132.728 2.33984C131.466 3.03046 131.001 4.61406 131.692 5.87695C132.383 7.14023 133.968 7.60351 135.229 6.91328C136.375 6.28671 137.887 6.96718 138.687 7.42851C143.038 9.94062 146.713 17.0703 146.713 22.998C146.713 25.6148 145.995 27.5918 144.791 28.2863C143.801 28.8582 142.528 28.4281 141.674 27.998C141.375 27.8269 140.991 27.8336 140.566 28.0793C139.625 28.6227 138.862 30.0809 138.862 31.3363C138.862 32.057 139.118 32.5437 139.511 32.7336L139.508 32.7398C140.933 33.4312 142.35 33.7832 143.701 33.7832C145.012 33.7832 146.261 33.4566 147.398 32.8C150.275 31.1383 151.926 27.5656 151.926 22.9977C151.926 15.1789 147.255 6.35703 141.293 2.91445Z" fill="url(#paint10_linear_594_1216)"/>
<path d="M147.753 65.634C127.56 77.2926 111.19 108.57 111.19 135.493C111.19 135.493 111.195 166.607 111.203 166.996L160.358 138.617C164.472 136.241 167.807 129.869 167.807 124.383V62.0407C162.049 60.3192 155.159 61.3582 147.753 65.634Z" fill="url(#paint11_linear_594_1216)"/>
<path d="M187.137 71.6691L187.139 71.6652L171.096 62.4297L171.095 62.432C164.762 59.0766 156.628 59.5543 147.753 64.6785C127.56 76.3367 111.19 107.614 111.19 134.537C111.19 149.34 116.145 159.73 123.956 164.161L123.95 164.173L138.608 172.636L138.623 172.605C145.066 176.456 153.519 176.178 162.781 170.83C182.974 159.171 199.344 127.895 199.344 100.971C199.344 86.5223 194.626 76.2723 187.137 71.6691Z" fill="url(#paint12_linear_594_1216)"/>
<path d="M199.344 100.971C199.344 74.0469 182.975 61.6719 162.782 73.3301C142.59 84.9883 126.22 116.265 126.22 143.189C126.22 170.113 142.589 182.488 162.782 170.83C182.975 159.171 199.344 127.895 199.344 100.971Z" fill="url(#paint13_linear_594_1216)"/>
<path d="M183.916 131.143C192.688 110.557 190.357 89.8454 178.71 84.883C167.064 79.9206 150.512 92.5861 141.741 113.172C132.969 133.758 135.3 154.469 146.946 159.432C158.593 164.394 175.145 151.729 183.916 131.143Z" fill="#F2EFFA"/>
<path d="M167.892 119.129C167.892 115.366 165.604 113.636 162.781 115.266C159.959 116.895 157.671 121.267 157.671 125.03C157.671 128.793 159.959 130.523 162.781 128.894C165.604 127.264 167.892 122.893 167.892 119.129Z" fill="url(#paint14_linear_594_1216)"/>
<path d="M160.79 125.528V95.9277C160.79 94.8281 161.681 93.9367 162.781 93.9367C163.881 93.9367 164.772 94.8281 164.772 95.9277V118.631L180.94 109.297C181.892 108.746 183.11 109.074 183.659 110.026C184.209 110.978 183.882 112.196 182.93 112.746L160.79 125.528Z" fill="url(#paint15_linear_594_1216)"/>
<path d="M162.782 86.891C148.206 95.3062 136.391 117.883 136.391 137.317C136.391 147.198 139.447 154.363 144.366 157.914L181.684 86.6121C176.89 82.8211 170.193 82.6121 162.782 86.891Z" fill="url(#paint16_linear_594_1216)"/>
</g>
<g filter="url(#filter0_f_594_1216)">
<ellipse cx="117.5" cy="230.5" rx="99.5" ry="26.5" fill="#622117"/>
</g>
<defs>
<filter id="filter0_f_594_1216" x="0" y="186" width="235" height="89" filterUnits="userSpaceOnUse" color-interpolation-filters="sRGB">
<feFlood flood-opacity="0" result="BackgroundImageFix"/>
<feBlend mode="normal" in="SourceGraphic" in2="BackgroundImageFix" result="shape"/>
<feGaussianBlur stdDeviation="9" result="effect1_foregroundBlur_594_1216"/>
</filter>
<linearGradient id="paint0_linear_594_1216" x1="100.059" y1="194.475" x2="100.059" y2="87.3664" gradientUnits="userSpaceOnUse">
<stop offset="0.0319" stop-color="#A996EB"/>
<stop offset="0.2213" stop-color="#BFB3EB"/>
<stop offset="0.4108" stop-color="#D1C9EB"/>
<stop offset="0.5321" stop-color="#D7D1EB"/>
<stop offset="1" stop-color="#E9E5F6"/>
</linearGradient>
<linearGradient id="paint1_linear_594_1216" x1="107.973" y1="298.386" x2="107.973" y2="14.5825" gradientUnits="userSpaceOnUse">
<stop stop-color="#DFDAEF"/>
<stop offset="1" stop-color="white"/>
</linearGradient>
<linearGradient id="paint2_linear_594_1216" x1="68.2215" y1="94.9418" x2="79.2695" y2="75.8063" gradientUnits="userSpaceOnUse">
<stop stop-color="#802B1E"/>
<stop offset="1" stop-color="#ED725F"/>
</linearGradient>
<linearGradient id="paint3_linear_594_1216" x1="58.8145" y1="74.6086" x2="66.5074" y2="87.9328" gradientUnits="userSpaceOnUse">
<stop offset="0.0319" stop-color="#5D3645"/>
<stop offset="1" stop-color="#5D3645" stop-opacity="0"/>
</linearGradient>
<linearGradient id="paint4_linear_594_1216" x1="66.9048" y1="70.7766" x2="60.4173" y2="50.134" gradientUnits="userSpaceOnUse">
<stop stop-color="#C5BAEB"/>
<stop offset="0.2585" stop-color="#CBC0ED"/>
<stop offset="0.6156" stop-color="#DAD2F4"/>
<stop offset="1" stop-color="#F2EDFF"/>
</linearGradient>
<linearGradient id="paint5_linear_594_1216" x1="86.4912" y1="58.6531" x2="94.1842" y2="71.9774" gradientUnits="userSpaceOnUse">
<stop offset="0.0319" stop-color="#5D3645"/>
<stop offset="1" stop-color="#5D3645" stop-opacity="0"/>
</linearGradient>
<linearGradient id="paint6_linear_594_1216" x1="94.5816" y1="54.8211" x2="88.0941" y2="34.179" gradientUnits="userSpaceOnUse">
<stop stop-color="#C5BAEB"/>
<stop offset="0.2585" stop-color="#CBC0ED"/>
<stop offset="0.6156" stop-color="#DAD2F4"/>
<stop offset="1" stop-color="#F2EDFF"/>
</linearGradient>
<linearGradient id="paint7_linear_594_1216" x1="113.463" y1="43.0239" x2="121.156" y2="56.3485" gradientUnits="userSpaceOnUse">
<stop offset="0.0319" stop-color="#B02F61"/>
<stop offset="1" stop-color="#5D3645" stop-opacity="0"/>
</linearGradient>
<linearGradient id="paint8_linear_594_1216" x1="121.553" y1="39.1918" x2="115.066" y2="18.5496" gradientUnits="userSpaceOnUse">
<stop stop-color="#C5BAEB"/>
<stop offset="0.2585" stop-color="#CBC0ED"/>
<stop offset="0.6156" stop-color="#DAD2F4"/>
<stop offset="1" stop-color="#F2EDFF"/>
</linearGradient>
<linearGradient id="paint9_linear_594_1216" x1="137.249" y1="29.3121" x2="144.942" y2="42.6367" gradientUnits="userSpaceOnUse">
<stop offset="0.0319" stop-color="#B02F61"/>
<stop offset="1" stop-color="#5D3645" stop-opacity="0"/>
</linearGradient>
<linearGradient id="paint10_linear_594_1216" x1="145.339" y1="25.4801" x2="138.852" y2="4.83788" gradientUnits="userSpaceOnUse">
<stop stop-color="#C5BAEB"/>
<stop offset="0.2585" stop-color="#CBC0ED"/>
<stop offset="0.6156" stop-color="#DAD2F4"/>
<stop offset="1" stop-color="#F2EDFF"/>
</linearGradient>
<linearGradient id="paint11_linear_594_1216" x1="139.499" y1="134.703" x2="139.499" y2="163.377" gradientUnits="userSpaceOnUse">
<stop stop-color="#43386B"/>
<stop offset="1" stop-color="#43386B" stop-opacity="0"/>
</linearGradient>
<linearGradient id="paint12_linear_594_1216" x1="157.748" y1="113.458" x2="172.774" y2="87.4309" gradientUnits="userSpaceOnUse">
<stop stop-color="#802B1E"/>
<stop offset="1" stop-color="#E94F37"/>
</linearGradient>
<linearGradient id="paint13_linear_594_1216" x1="162.782" y1="203.794" x2="162.782" y2="55.65" gradientUnits="userSpaceOnUse">
<stop stop-color="#A53827"/>
<stop offset="1" stop-color="#ED725F"/>
</linearGradient>
<linearGradient id="paint14_linear_594_1216" x1="162.781" y1="136.22" x2="162.781" y2="94.2578" gradientUnits="userSpaceOnUse">
<stop stop-color="#E94F37"/>
<stop offset="1" stop-color="#E94F37"/>
</linearGradient>
<linearGradient id="paint15_linear_594_1216" x1="172.358" y1="136.22" x2="172.358" y2="94.2578" gradientUnits="userSpaceOnUse">
<stop stop-color="#A53827"/>
<stop offset="1" stop-color="#ED725F"/>
</linearGradient>
<linearGradient id="paint16_linear_594_1216" x1="209.208" y1="144.602" x2="120.099" y2="101.162" gradientUnits="userSpaceOnUse">
<stop stop-color="white"/>
<stop offset="1" stop-color="white" stop-opacity="0"/>
</linearGradient>
<clipPath id="clip0_594_1216">
<rect width="200" height="200" fill="white" transform="translate(17)"/>
</clipPath>
</defs>
</svg>
