<svg width="37" height="36" viewBox="0 0 37 36" fill="none" xmlns="http://www.w3.org/2000/svg">
<g clip-path="url(#clip0_346_5091)">
<path d="M28.0354 3.01747L24.0803 0.764372C22.0485 -0.393323 19.405 -0.276323 16.5145 1.39254C10.104 5.09358 4.90735 15.0228 4.90735 23.57C4.90735 28.0757 6.35192 31.2971 8.65676 32.7947L8.65641 32.7954L13.0863 35.327C15.0951 36.3857 28.0354 3.01747 28.0354 3.01747Z" fill="url(#paint0_linear_346_5091)"/>
<path d="M32.0928 12.4297C32.0928 3.8825 26.8961 -0.0460753 20.4857 3.65496C14.0753 7.356 8.87866 17.2852 8.87866 25.8324C8.87866 34.3796 14.0753 38.3082 20.4857 34.6071C26.8961 30.906 32.0928 20.9769 32.0928 12.4297Z" fill="url(#paint1_linear_346_5091)"/>
<path d="M27.8859 22.2539C27.5013 22.1032 27.3111 21.6694 27.4618 21.2848C27.6114 20.9002 28.0451 20.71 28.4298 20.8607C28.8144 21.0102 29.0046 21.444 28.855 21.8287C28.7396 22.1246 28.4565 22.3052 28.1573 22.3052C28.0675 22.3051 27.9758 22.288 27.8859 22.2539ZM28.9619 19.179C28.5602 19.0817 28.3133 18.6779 28.4105 18.2762C28.5078 17.8744 28.9116 17.6277 29.3133 17.7249C29.715 17.821 29.9619 18.2259 29.8647 18.6276C29.7813 18.9696 29.4758 19.1992 29.1382 19.1992C29.0805 19.1993 29.0206 19.1928 28.9619 19.179ZM29.6008 15.9844C29.1883 15.9503 28.8817 15.5902 28.9159 15.1778C28.949 14.7665 29.3101 14.4599 29.7215 14.493C30.1328 14.5272 30.4395 14.8872 30.4064 15.2996C30.3742 15.6907 30.0473 15.9866 29.6616 15.9866C29.6414 15.9866 29.621 15.9855 29.6008 15.9844ZM28.8721 12.0773C28.8219 11.6681 29.1136 11.2942 29.5228 11.2439C29.9331 11.1937 30.3059 11.4854 30.3573 11.8956C30.4075 12.3059 30.1157 12.6788 29.7055 12.729C29.6745 12.7333 29.6435 12.7343 29.6136 12.7343C29.2407 12.7344 28.918 12.4566 28.8721 12.0773ZM28.0761 9.18305C27.8977 8.81124 28.0559 8.36468 28.4287 8.18623C28.8006 8.00785 29.2471 8.16493 29.4255 8.53772C29.6039 8.91059 29.4469 9.35721 29.074 9.53567C28.9694 9.58482 28.8593 9.6083 28.7514 9.6083C28.4725 9.60823 28.2044 9.45228 28.0761 9.18305ZM26.2716 7.04836C25.9212 6.82934 25.8143 6.36781 26.0333 6.0185C26.2524 5.66806 26.7139 5.56118 27.0644 5.78021C27.4148 5.99923 27.5206 6.46076 27.3026 6.81127C27.1605 7.03775 26.917 7.16276 26.667 7.16276C26.5323 7.16269 26.3945 7.12528 26.2716 7.04836ZM22.8026 5.82401C22.7576 5.41374 23.0536 5.0441 23.465 4.99925C23.8752 4.95432 24.2438 5.25139 24.2899 5.66159C24.3336 6.07186 24.0377 6.44157 23.6264 6.48642C23.5997 6.48959 23.5718 6.49071 23.5451 6.49071C23.168 6.49071 22.8442 6.2075 22.8026 5.82401Z" fill="#E94F37"/>
<path d="M16.8135 33.3C15.8294 33.3 14.9025 33.0607 14.0687 32.5793C11.8024 31.2708 10.5026 28.3125 10.5026 24.4629C10.5026 21.0553 11.4934 17.2854 13.2927 13.8476C15.1019 10.3908 17.5235 7.66416 20.1115 6.17002C20.4694 5.96337 20.9267 6.08606 21.1332 6.44374C21.3397 6.80149 21.2171 7.25888 20.8594 7.46539C15.9734 10.2864 11.9983 17.9114 11.9983 24.463C11.9983 27.7638 13.0254 30.2499 14.8166 31.284C16.2519 32.1126 18.1325 31.9395 20.1115 30.7969C22.3396 29.5105 24.4753 27.1487 26.1248 24.1467C26.3238 23.7847 26.7786 23.6525 27.1404 23.8514C27.5024 24.0503 27.6346 24.5051 27.4356 24.867C25.6563 28.1052 23.3208 30.6712 20.8594 32.0922C19.4683 32.8954 18.0927 33.2999 16.8135 33.3Z" fill="#E94F37"/>
<path d="M23.6955 22.8944C23.5118 22.8944 23.3279 22.8272 23.1835 22.6916L19.7377 19.4545V12.2649C19.7377 11.8519 20.0725 11.517 20.4856 11.517C20.8987 11.517 21.2335 11.8519 21.2335 12.2649V18.8075L24.2078 21.6014C24.5088 21.8842 24.5236 22.3575 24.2408 22.6585C24.0935 22.8152 23.8947 22.8944 23.6955 22.8944Z" fill="#E94F37"/>
<path d="M19.8876 4.93982L21.7033 6.31246L19.901 9.75609L19.8876 4.93982Z" fill="#E94F37"/>
</g>
<defs>
<linearGradient id="paint0_linear_346_5091" x1="12.109" y1="21.0734" x2="27.4506" y2="-5.49907" gradientUnits="userSpaceOnUse">
<stop offset="0.0319" stop-color="#F5AEA3"/>
<stop offset="0.2213" stop-color="#F5AEA3"/>
<stop offset="0.4108" stop-color="#F8C8C1"/>
<stop offset="0.5321" stop-color="#FDEDEB"/>
<stop offset="1" stop-color="#E9E5F6"/>
<stop offset="1" stop-color="#FDEDEB"/>
</linearGradient>
<linearGradient id="paint1_linear_346_5091" x1="20.4857" y1="29.5888" x2="20.4857" y2="-18.3474" gradientUnits="userSpaceOnUse">
<stop stop-color="#FDEDEB"/>
<stop offset="1" stop-color="white"/>
<stop offset="1" stop-color="#F9F6F6"/>
</linearGradient>
<clipPath id="clip0_346_5091">
<rect width="36" height="36" fill="white" transform="translate(0.5)"/>
</clipPath>
</defs>
</svg>
