<svg width="96" height="96" viewBox="0 0 96 96" fill="none" xmlns="http://www.w3.org/2000/svg">
<g clip-path="url(#clip0_376_8908)">
<path d="M93.2283 83.0733V73.7899C93.2283 73.0131 92.5988 72.3833 91.8218 72.3833C91.0448 72.3833 90.4152 73.0131 90.4152 73.7899V83.057H5.77194V34.6524H10.2592C11.0362 34.6524 11.6658 34.0226 11.6658 33.2458C11.6658 32.469 11.0362 31.8393 10.2592 31.8393H4.36557C3.61391 31.8393 3.00234 31.2279 3.00234 30.4762V25.8342C3.00234 25.0826 3.61391 24.4712 4.36557 24.4712H91.8218C92.5734 24.4712 93.185 25.0826 93.185 25.8342V30.4762C93.185 31.2279 92.5734 31.8393 91.8218 31.8393H16.2536C15.4766 31.8393 14.847 32.469 14.847 33.2458C14.847 34.0226 15.4766 34.6524 16.2536 34.6524H90.4152V67.7957C90.4152 68.5725 91.0448 69.2023 91.8218 69.2023C92.5988 69.2023 93.2283 68.5725 93.2283 67.7957V34.408C94.8412 33.8293 95.9981 32.2856 95.9981 30.4762V25.8342C95.9981 23.5314 94.1248 21.6581 91.8218 21.6581H89.1039L88.2114 18.5571C87.7681 17.0164 86.3388 15.9405 84.7357 15.9405H79.2648C77.6617 15.9405 76.2327 17.0164 75.7893 18.5571L74.8968 21.6581H71.3277V19.2247C71.3277 17.4311 69.882 15.9709 68.0947 15.9432V12.1171C68.0947 6.84574 63.8062 2.55725 58.5348 2.55725H37.6527C32.3815 2.55725 28.0928 6.84574 28.0928 12.1171V15.9432C26.3056 15.9709 24.8598 17.4311 24.8598 19.2247V21.6581H21.2907L20.3982 18.5571C19.9549 17.0164 18.5258 15.9405 16.9227 15.9405H11.4516C9.84851 15.9405 8.41926 17.0164 7.97592 18.5571L7.08341 21.6581H4.36557C2.06276 21.6581 0.189229 23.5314 0.189229 25.8342V30.4762C0.189229 32.2856 1.34598 33.8293 2.95883 34.408V83.0636C1.31635 83.1324 0 84.4865 0 86.1458V90.3538C0 92.0571 1.38574 93.4426 3.08879 93.4426H92.9112C94.6143 93.4426 96 92.0571 96 90.3538V86.1458C96 84.5497 94.783 83.2327 93.2283 83.0733ZM36.9072 15.9432V12.1171C36.9072 11.706 37.2416 11.3717 37.6527 11.3717H58.535C58.9459 11.3717 59.2805 11.706 59.2805 12.1171V15.9432C57.4932 15.9709 56.0475 17.4311 56.0475 19.2247V21.6581H40.1406V19.2247C40.1403 17.4311 38.6945 15.9709 36.9072 15.9432ZM78.4925 19.3352C78.591 18.9928 78.9087 18.7536 79.2648 18.7536H84.7357C85.0919 18.7536 85.4098 18.9928 85.5082 19.3352L86.1768 21.6581H77.8239L78.4925 19.3352ZM68.5146 19.2247V21.6581H58.8602V19.2247C58.8602 18.965 59.0716 18.7536 59.3313 18.7536H68.0435C68.3032 18.7536 68.5146 18.965 68.5146 19.2247ZM37.6527 5.37017H58.535C62.2552 5.37017 65.2818 8.3967 65.2818 12.1169V15.9405H62.0936V12.1171C62.0936 10.1549 60.4972 8.55855 58.535 8.55855H37.6527C35.6905 8.55855 34.0941 10.1549 34.0941 12.1171V15.9407H30.906V12.1171C30.906 8.39689 33.9325 5.37017 37.6527 5.37017ZM27.6729 19.2247C27.6729 18.965 27.8843 18.7536 28.144 18.7536H36.8562C37.116 18.7536 37.3273 18.965 37.3273 19.2247V21.6581H27.6729V19.2247ZM10.6791 19.3352C10.7776 18.9928 11.0955 18.7536 11.4516 18.7536H16.9225C17.2787 18.7536 17.5964 18.9928 17.6948 19.3352L18.3634 21.6581H10.0105L10.6791 19.3352ZM93.1869 90.3538C93.1869 90.5059 93.0633 90.6295 92.9112 90.6295H3.08879C2.9367 90.6295 2.81311 90.5059 2.81311 90.3538V86.1458C2.81311 85.9937 2.9367 85.8701 3.08879 85.8701H92.9112C93.0633 85.8701 93.1869 85.9937 93.1869 86.1458V90.3538Z" fill="#BEA6A0"/>
<path d="M44.0056 68.7604C44.2751 68.9065 44.566 68.9778 44.854 68.9778C45.3139 68.9778 45.7658 68.7963 46.1096 68.4482L53.8608 60.6015C54.2236 60.2346 54.4077 59.7294 54.3666 59.2154C54.3254 58.7011 54.063 58.2317 53.6461 57.9268L51.6559 56.4724L53.2176 49.918C53.404 49.1371 53.0402 48.3266 52.3328 47.9468C51.6256 47.5672 50.7488 47.7118 50.2006 48.2986L42.1032 56.9722C41.7041 57.3998 41.5422 57.9958 41.6696 58.5663C41.7969 59.1368 42.1973 59.6073 42.7402 59.8243L44.4945 60.5261L43.1195 66.8258C42.9503 67.6035 43.3061 68.3809 44.0056 68.7604ZM49.5682 53.0987L48.7594 56.494C48.5932 57.1897 48.8591 57.9123 49.4366 58.3345L49.4369 58.3347L51.0104 59.4843L46.6351 63.9134L47.432 60.2633C47.6167 59.4153 47.166 58.5652 46.3592 58.242L45.1995 57.7781L49.5682 53.0987Z" fill="#BEA6A0"/>
<path d="M61.883 49.7229C62.3189 50.3658 63.1932 50.5337 63.8364 50.098C64.4795 49.6622 64.6474 48.7875 64.2115 48.1444C60.5811 42.7886 54.5558 39.5911 48.0941 39.5911C37.3645 39.5911 28.6353 48.3201 28.6353 59.0499C28.6353 69.7797 37.3645 78.5088 48.0941 78.5088C58.8237 78.5088 67.5529 69.7797 67.5529 59.0499C67.5529 57.3947 67.3442 55.7492 66.9326 54.1596C66.7379 53.4076 65.9697 52.9556 65.2182 53.1504C64.4662 53.3453 64.0144 54.1127 64.2091 54.8648C64.5611 56.2244 64.7396 57.6325 64.7396 59.0499C64.7396 68.2283 57.2725 75.6956 48.0939 75.6956C38.9153 75.6956 31.4482 68.2285 31.4482 59.0499C31.4482 49.8713 38.9153 42.4042 48.0939 42.4042C53.6217 42.4042 58.7764 45.1402 61.883 49.7229Z" fill="#BEA6A0"/>
</g>
<defs>
<clipPath id="clip0_376_8908">
<rect width="96" height="96" fill="white"/>
</clipPath>
</defs>
</svg>
