<svg width="96" height="96" viewBox="0 0 96 96" fill="none" xmlns="http://www.w3.org/2000/svg">
<g clip-path="url(#clip0_643_2764)">
<path d="M71.4044 11.3345C70.9289 10.7224 70.0472 10.6114 69.4349 11.0867C68.8227 11.5623 68.7117 12.4439 69.1871 13.0563C73.0594 18.0429 75.1216 24.2316 74.9936 30.4822C74.8559 37.2079 72.2365 43.4101 67.4183 48.4182L58.9667 57.2034C58.7151 57.4648 58.5746 57.8137 58.5746 58.1765V62.5221H55.4144L61.4599 29.9819C61.5913 29.2752 61.3193 28.5635 60.7502 28.1244C60.1811 27.6854 59.4239 27.6029 58.7735 27.9096L56.4169 29.0207L54.7268 27.8314C54.0353 27.3444 53.0924 27.3751 52.4335 27.9062L51.0104 29.054L49.0522 27.7687C48.4169 27.3515 47.5957 27.3515 46.9607 27.7687L45.0023 29.054L43.5791 27.906C42.9207 27.3753 41.9778 27.3444 41.2861 27.8312L39.5958 29.0207L37.239 27.9096C36.5888 27.6032 35.8314 27.6856 35.2623 28.1244C34.6932 28.5635 34.4213 29.2752 34.5527 29.9817L36.7618 41.8719C36.9034 42.634 37.6356 43.1372 38.3982 42.9955C39.1603 42.8539 39.6633 42.1214 39.5218 41.3591L37.6343 31.1995L38.873 31.7834C39.4921 32.0754 40.2238 32.0117 40.7827 31.6182L42.3461 30.5181L43.7512 31.6513C44.398 32.1731 45.2991 32.2172 45.9937 31.7613L48.0065 30.4402L50.0192 31.7613C50.7138 32.2172 51.6149 32.1729 52.2615 31.6515L53.6668 30.5181L55.2299 31.618C55.7892 32.0117 56.521 32.0754 57.1399 31.7834L58.3787 31.1995L52.5592 62.5221H43.4537L40.6154 47.2457C40.4737 46.4836 39.741 45.9798 38.9789 46.1221C38.2169 46.2637 37.7138 46.9962 37.8553 47.7585L40.5983 62.5221H37.4381V58.1765C37.4381 57.8137 37.2976 57.465 37.046 57.2034L28.5944 48.4182C20.978 40.5012 18.9191 29.3035 23.2213 19.195C27.5235 9.08667 37.0206 2.80724 48.0066 2.80724C54.4916 2.80724 60.4521 4.93326 65.2439 8.95529C65.8375 9.45367 66.7229 9.37638 67.2213 8.78255C67.7197 8.18873 67.6424 7.30351 67.0485 6.80513C61.7445 2.35322 55.1599 0 48.0065 0C35.8758 0 25.3889 6.93389 20.6385 18.0959C15.8881 29.2578 18.1614 41.6224 26.5717 50.3647L34.6311 58.7425V62.5225H34.0498C32.5481 62.5225 31.3262 63.7442 31.3262 65.2461V74.6384C31.3262 79.4464 34.6582 83.4891 39.1337 84.5837V87.2212C39.1337 92.062 43.0721 96.0004 47.9129 96.0004C49.4063 96.0004 50.8835 95.6167 52.1844 94.8908C52.8613 94.5131 53.104 93.6582 52.7262 92.9811C52.3485 92.3042 51.4936 92.0615 50.8165 92.4393C49.9328 92.9324 48.9287 93.193 47.9127 93.193C44.6198 93.193 41.9408 90.5139 41.9408 87.221V84.8777H53.8846V87.221C53.8846 87.6649 53.8337 88.1135 53.7332 88.5545C53.561 89.3103 54.034 90.0627 54.7899 90.2349C54.8949 90.2588 54.9997 90.2702 55.103 90.2702C55.7434 90.2702 56.3219 89.8291 56.4703 89.1782C56.6174 88.5329 56.6919 87.8745 56.6919 87.221V84.6269C61.2613 83.6004 64.6865 79.5133 64.6865 74.6384V65.2459C64.6865 63.7442 63.4648 62.5223 61.9629 62.5223H61.3816V58.7423L69.4411 50.3645C74.757 44.8388 77.6476 37.9835 77.7999 30.5396C77.9414 23.6482 75.67 16.8277 71.4044 11.3345ZM61.8621 75.1212H34.1508C34.1405 74.9614 34.1334 74.8007 34.1334 74.6382V71.3535H61.8797V74.6382C61.8795 74.8007 61.8725 74.9614 61.8621 75.1212ZM54.4474 82.0705H41.5657C38.6484 82.0705 36.1198 80.3803 34.9039 77.9285H61.1094C59.8933 80.3803 57.3645 82.0705 54.4474 82.0705ZM61.8795 68.5463H34.1334V65.3296H61.8797V68.5463H61.8795Z" fill="#BEA6A0"/>
</g>
<defs>
<clipPath id="clip0_643_2764">
<rect width="96" height="96" fill="white"/>
</clipPath>
</defs>
</svg>
