<svg width="96" height="96" viewBox="0 0 96 96" fill="none" xmlns="http://www.w3.org/2000/svg">
<g clip-path="url(#clip0_643_2718)">
<path d="M46.3509 31.3119C45.8013 30.7624 44.9106 30.7624 44.3612 31.3119L39.8818 35.7913L39.818 35.7275C39.2682 35.1775 38.5371 34.8747 37.7596 34.8747C36.982 34.8747 36.251 35.1775 35.7012 35.7273L33.646 37.7823C31.8354 39.5931 29.4277 40.5903 26.8665 40.5903H26.3167C25.7025 39.6577 24.6476 39.0397 23.4496 39.0397H19.9001C19.0452 37.9988 17.7488 37.3336 16.3001 37.3336H12.354C11.5768 37.3336 10.9471 37.9635 10.9471 38.7405C10.9471 39.5175 11.5768 40.1474 12.354 40.1474H16.3001C17.3166 40.1474 18.1437 40.9745 18.1437 41.9911V53.6339C18.1437 54.6504 17.3166 55.4775 16.3001 55.4775H1.40691C0.629733 55.4775 0 56.1074 0 56.8844C0 57.6614 0.629733 58.2913 1.40691 58.2913H16.3003C17.5663 58.2913 18.7153 57.783 19.5557 56.9604H23.45C24.6479 56.9604 25.7029 56.3425 26.3171 55.4098H26.8669C29.4279 55.4098 31.8355 56.407 33.6463 58.2178L35.7015 60.273C36.269 60.8403 37.0145 61.1241 37.76 61.1241C38.5054 61.1241 39.2509 60.8403 39.8184 60.2728L39.8821 60.209L44.3614 64.6883C44.6362 64.9629 44.9963 65.1004 45.3563 65.1004C45.7163 65.1004 46.0765 64.9631 46.3513 64.6883C46.9007 64.1388 46.9007 63.248 46.3513 62.6987L41.8719 58.2193L41.9357 58.1555C42.4857 57.6057 42.7884 56.8747 42.7884 56.0971C42.7884 55.3196 42.4857 54.5885 41.9357 54.0387L39.8808 51.9837C38.1522 50.2551 36.1401 48.913 33.9495 48.0002C36.1399 47.0874 38.152 45.7454 39.8806 44.0168L41.9357 41.962C42.4857 41.4122 42.7884 40.6811 42.7884 39.9036C42.7884 39.126 42.4857 38.395 41.9358 37.8452L41.8719 37.7812L46.3513 33.3018C46.9004 32.7522 46.9004 31.8613 46.3509 31.3119ZM24.0679 53.5285C24.0679 53.8693 23.7905 54.1466 23.4498 54.1466H20.9288C20.9474 53.9781 20.9577 53.8072 20.9577 53.6339V41.9911C20.9577 41.9449 20.9556 41.8993 20.9541 41.8536H23.4498C23.7905 41.8536 24.0679 42.1308 24.0679 42.4717V53.5285ZM39.9457 56.0283C39.9527 56.0354 39.9741 56.0568 39.9741 56.0969C39.9741 56.1371 39.9527 56.1584 39.9455 56.1656L37.828 58.2833C37.7905 58.321 37.7288 58.3211 37.6909 58.2833L35.6359 56.2282C33.2972 53.8896 30.1887 52.6003 26.8817 52.5963V49.4073C31.0404 49.4111 34.9497 51.032 37.8909 53.9732L39.9457 56.0283ZM39.9457 39.972L37.8905 42.0271C34.9495 44.9683 31.0404 46.5892 26.8815 46.593V43.404C30.1885 43.4 33.297 42.1109 35.6355 39.7721L37.6905 37.7172C37.6977 37.7101 37.7191 37.6887 37.7594 37.6887C37.7995 37.6887 37.8209 37.7101 37.8279 37.7172L39.9455 39.8349C39.9525 39.842 39.9739 39.8634 39.9739 39.9036C39.9739 39.9437 39.9527 39.9649 39.9457 39.972Z" fill="#BEA6A0"/>
<path d="M1.40691 40.1474H6.35829C7.13547 40.1474 7.7652 39.5175 7.7652 38.7405C7.7652 37.9635 7.13547 37.3336 6.35829 37.3336H1.40691C0.629733 37.3336 0 37.9635 0 38.7405C0 39.5175 0.629733 40.1474 1.40691 40.1474Z" fill="#BEA6A0"/>
<path d="M82.5233 55.4774H79.6997C78.6832 55.4774 77.8561 54.6504 77.8561 53.6338V41.991C77.8561 40.9745 78.6832 40.1474 79.6997 40.1474H94.5931C95.3703 40.1474 96 39.5175 96 38.7405C96 37.9635 95.3703 37.3336 94.5931 37.3336H79.6997C78.2508 37.3336 76.9546 37.9988 76.0997 39.0397H72.5502C71.3523 39.0397 70.2973 39.6576 69.6831 40.5903H69.1333C68.282 40.5903 67.4266 40.4736 66.5907 40.2436C65.8406 40.0376 65.0671 40.4779 64.861 41.227C64.6548 41.9762 65.0951 42.7505 65.8443 42.9567C66.9184 43.2522 68.0198 43.4024 69.1181 43.4037V46.5925C64.9594 46.5888 61.0501 44.9678 58.1089 42.0266L56.0541 39.9718C56.047 39.9647 56.0256 39.9433 56.0256 39.903C56.0256 39.8628 56.0468 39.8414 56.0541 39.8343L58.1716 37.7166C58.2093 37.6791 58.271 37.6789 58.3087 37.7166L60.0882 39.4961C60.6378 40.0455 61.5285 40.0455 62.0779 39.4961C62.6274 38.9466 62.6274 38.0558 62.0779 37.5065L60.2983 35.7269C59.1632 34.5922 57.3164 34.5923 56.1816 35.7271L56.1179 35.7908L51.6386 31.3116C51.089 30.7622 50.1983 30.7622 49.6489 31.3116C49.0995 31.8611 49.0995 32.7519 49.6489 33.3012L54.1283 37.7806L54.0645 37.8444C53.5145 38.3942 53.2118 39.1252 53.2118 39.903C53.2118 40.6803 53.5145 41.4114 54.0645 41.9612L56.1194 44.0162C57.848 45.7448 59.8601 47.0868 62.0507 47.9996C59.8602 48.9124 57.8482 50.2544 56.1196 51.9831L54.0645 54.0379C53.5145 54.5877 53.2118 55.3187 53.2118 56.0963C53.2118 56.8739 53.5145 57.6049 54.0643 58.1547L54.1283 58.2187L49.6489 62.6981C49.0995 63.2475 49.0995 64.1384 49.6489 64.6876C49.9237 64.9623 50.2839 65.0998 50.6439 65.0998C51.0038 65.0998 51.364 64.9625 51.6388 64.6876L56.1182 60.2082L56.182 60.272C56.7495 60.8396 57.4948 61.1235 58.2404 61.1233C58.9859 61.1233 59.7312 60.8396 60.299 60.2722L62.354 58.2172C64.1646 56.4064 66.5723 55.4092 69.1335 55.4092H69.6833C70.2975 56.3419 71.3524 56.9598 72.5504 56.9598H76.4447C77.2851 57.7823 78.4341 58.2907 79.7001 58.2907H82.5237C83.3009 58.2907 83.9306 57.6608 83.9306 56.8838C83.9306 56.1068 83.3005 55.4774 82.5233 55.4774ZM60.3641 56.2282L58.3093 58.283C58.2716 58.3209 58.2097 58.3211 58.172 58.283L56.0543 56.1653C56.0473 56.1582 56.026 56.1368 56.026 56.0967C56.026 56.0565 56.0473 56.0351 56.0543 56.028L58.1095 53.973C61.0505 51.0318 64.9596 49.4109 69.1185 49.4071V52.5961C65.8113 52.6002 62.7028 53.8893 60.3641 56.2282ZM71.9321 53.5284V42.4716C71.9321 42.1308 72.2095 41.8535 72.5502 41.8535H75.0459C75.0446 41.8993 75.0423 41.9449 75.0423 41.991V53.6338C75.0423 53.8072 75.0526 53.9781 75.0712 54.1465H72.5502C72.2095 54.1465 71.9321 53.8693 71.9321 53.5284Z" fill="#BEA6A0"/>
<path d="M94.5933 55.4774H88.5192C87.742 55.4774 87.1123 56.1073 87.1123 56.8843C87.1123 57.6613 87.742 58.2912 88.5192 58.2912H94.5933C95.3705 58.2912 96.0002 57.6613 96.0002 56.8843C96.0002 56.1073 95.3703 55.4774 94.5933 55.4774Z" fill="#BEA6A0"/>
<path d="M61.0862 19.1779L62.8409 19.8798L61.4657 26.1811C61.2959 26.9588 61.6518 27.7364 62.3515 28.1159C62.6212 28.2622 62.9122 28.3335 63.2003 28.3335C63.6603 28.3335 64.1124 28.1519 64.4562 27.8037L72.2094 19.955C72.5722 19.5881 72.7564 19.0828 72.7153 18.5686C72.6741 18.0542 72.4116 17.5847 71.9946 17.2797L70.0041 15.8249L71.5664 9.26835C71.7525 8.48705 71.3882 7.67648 70.6802 7.29699C69.973 6.9175 69.096 7.06232 68.5485 7.64928L60.449 16.325C60.05 16.7525 59.8879 17.3487 60.0153 17.9195C60.1426 18.49 60.543 18.9605 61.0862 19.1779ZM67.9155 12.4504L67.1065 15.8465C66.9403 16.5424 67.2063 17.265 67.7838 17.6875C67.784 17.6875 67.784 17.6875 67.7842 17.6877L69.3581 18.8376L64.9817 23.268L65.7782 19.6183C65.9642 18.7691 65.5133 17.9182 64.7057 17.595L63.5457 17.1309L67.9155 12.4504Z" fill="#BEA6A0"/>
<path d="M31.7313 27.8037C32.0751 28.1519 32.5272 28.3335 32.9872 28.3335C33.2753 28.3335 33.5664 28.2622 33.836 28.1159C34.5355 27.7364 34.8916 26.9589 34.7218 26.1813L33.3466 19.8798L35.1017 19.1777C35.6445 18.9605 36.0447 18.49 36.172 17.9192C36.2996 17.3485 36.1373 16.7524 35.7383 16.3245L27.6392 7.64949C27.0917 7.06253 26.2145 6.91733 25.5073 7.29701C24.7995 7.6765 24.435 8.48726 24.6211 9.26856L26.1834 15.8249L24.1921 17.2801C23.7757 17.5847 23.5132 18.0542 23.472 18.5686C23.4309 19.0828 23.6153 19.5881 23.9775 19.9547L31.7313 27.8037ZM28.4035 17.6879L28.4038 17.6877C28.9814 17.2654 29.2474 16.5427 29.0814 15.8471L28.2721 12.4504L32.642 17.1311L31.4816 17.5952C30.6744 17.9182 30.2234 18.7691 30.4093 19.6174L31.206 23.2681L26.8296 18.8376L28.4035 17.6879Z" fill="#BEA6A0"/>
<path d="M64.4563 68.1963C63.8971 67.6298 63.0513 67.5045 62.3514 67.884C61.6519 68.2635 61.2958 69.041 61.4656 69.8186L62.8408 76.12L61.0857 76.8222C60.5428 77.0394 60.1427 77.5099 60.0153 78.0807C59.8878 78.6513 60.0501 79.2475 60.4491 79.6754L68.5482 88.3504C68.8916 88.7186 69.3649 88.913 69.8444 88.913C70.1293 88.913 70.4165 88.8443 70.6801 88.7029C71.3879 88.3234 71.7523 87.5126 71.5663 86.7313L70.0042 80.1751L71.9955 78.72C72.4119 78.4153 72.6743 77.9458 72.7156 77.4314C72.7567 76.9173 72.5723 76.4119 72.2101 76.0454L64.4563 68.1963ZM67.7843 78.3122L67.7839 78.3124C67.2063 78.7346 66.9403 79.4574 67.1064 80.153L67.9156 83.5496L63.5458 78.8689L64.7062 78.4048C65.5134 78.0818 65.9643 77.2309 65.7784 76.3826L64.9817 72.732L69.3582 77.1624L67.7843 78.3122Z" fill="#BEA6A0"/>
<path d="M35.1013 76.8222L33.3466 76.1202L34.7218 69.819C34.8916 69.0412 34.5357 68.2637 33.836 67.8842C33.1361 67.5047 32.2905 67.6302 31.7311 68.1963L23.9779 76.045C23.6151 76.4119 23.4309 76.9173 23.472 77.4315C23.5132 77.9458 23.7757 78.4154 24.1927 78.7204L26.1834 80.1751L24.6211 86.7317C24.435 87.513 24.7993 88.3236 25.5073 88.7031C25.7709 88.8445 26.0582 88.9132 26.3432 88.9132C26.8227 88.9132 27.2956 88.7188 27.639 88.3508L35.7385 79.675C36.1375 79.2475 36.2996 78.6514 36.1722 78.0805C36.0447 77.5101 35.6445 77.0396 35.1013 76.8222ZM28.272 83.5496L29.081 80.1536C29.2472 79.4576 28.9812 78.735 28.4036 78.3126C28.4035 78.3126 28.4035 78.3126 28.4033 78.3124L26.8294 77.1625L31.2058 72.732L30.4093 76.3817C30.2233 77.2309 30.6742 78.0818 31.4818 78.405L32.6418 78.8691L28.272 83.5496Z" fill="#BEA6A0"/>
</g>
<defs>
<clipPath id="clip0_643_2718">
<rect width="96" height="96" fill="white"/>
</clipPath>
</defs>
</svg>
